<?xml version="1.0" encoding="utf-8"?>
<!-- Generator: Adobe Illustrator 19.0.1, SVG Export Plug-In . SVG Version: 6.00 Build 0)  -->
<svg version="1.1" id="Layer_1" xmlns="http://www.w3.org/2000/svg" xmlns:xlink="http://www.w3.org/1999/xlink" x="0px" y="0px"
	 viewBox="0 0 512 512" style="enable-background:new 0 0 512 512;" xml:space="preserve">
<style type="text/css">
	.st0{fill:#ED8700;}
	.st1{fill:#FFFFFF;}
	.st2{fill:none;stroke:#FFFFFF;stroke-width:3;stroke-miterlimit:10;}
</style>
<circle class="st0" cx="256" cy="256" r="246"/>
<g>
	<path class="st1" d="M359.6,369.8c-2.4,4-4.2,6.5-5.5,7.6c-9.6-0.7-15.8-1-18.5-1c-10.2,0-22.7,0.7-37.4,2.2
		c-14.7,1.4-27.1,2.2-37,2.2c-27.8,0-46-5.4-54.6-16.3c0,8.5-1.2,14.9-3.7,19.1c-4.9,7.7-13.2,15.1-25,22
		c-11.8,6.9-22.3,10.3-31.5,10.3c-16.8,0-25.2-11.6-25.2-34.7c0-4.7,0.6-10,1.8-15.8c-4.3,0.9-8.7,1.4-13,1.4
		c-11.2,0-19.6-4.1-25.2-12.2c-4.5-7-6.7-15.4-6.7-25.2c0-9.8,1.8-20.8,5.5-32.9C70.5,292,64,281.5,64,265c0-9.5,1.9-20.5,5.7-33.3
		c-5.1,0-7.7-3.4-7.7-10.2c0-7.4,3.4-16,10.2-25.8c5.4-8,10.4-13.7,15-16.9l0.8,1c-11,11.6-16.5,21-16.5,28.4c0,5.3,1.8,7.9,5.3,7.9
		c0.8,0,1.7-0.4,2.7-1.1c1-0.7,1.5-1.1,1.7-1.1l1.4,1c-3.8,9.8-7.5,15.5-11,16.9c-2.2,9.7-3.3,16.8-3.3,21.3
		c0,9.6,2.7,17.5,8.1,23.8c4.9,4.7,10.2,7.1,16,7.1c21.4,0,41.2-11.5,59.3-34.5c0-5-1.9-11.6-5.7-19.9c-4.9-9.2-9.7-13.8-14.4-13.8
		c-3.2,0-5.2,2.4-6.1,7.3c4.2,2.1,9,2.4,14.4,1c2.5,3.2,4.5,7.2,6.1,12c-4.1,1.4-8.1,2.2-12,2.2c-9.1,0-13.6-4.6-13.6-13.8
		c0-15.4,4.3-23,12.8-23c5.5,0,10.7,4.2,15.7,12.5c4.9,8.3,7.4,16.4,7.4,24.3c0,11.4-1.5,19.6-4.5,24.4
		c-6.4,9.5-14.7,17.4-24.8,23.8c-11.7,7.7-22.8,11.6-33.5,11.6c-2.9,0-5.6-0.5-8.1-1.4c-2.4,8.3-3.5,16.7-3.5,25.2
		c0,21.1,9.8,31.7,29.5,31.7c10,0,20.9-3.2,32.9-9.5c9.8-5.4,17.7-11.2,23.6-17.5c-0.5-6.8-4.9-15.3-13-25.4l4.5-15.2
		c5.1,7,10.6,10.4,16.5,10.4c4.7,0,8.7-3.1,11.8-9.3c2.2-4.7,3.3-8.8,3.3-12.1c0-3.3,0.8-5,2.4-5c3.7,16.2,6.2,26.3,7.7,30.5
		c3.4,10.2,8.2,18,14.4,23.2c0-7.7,4.4-20.5,13.2-38.4c1.8-4.9,1.8-15.3,0-31.3l-2.2-22.3c2.1-0.1,4.2-1,6.3-2.8l2.4,21.7
		c1.2,9.6,0.9,18.3-1,26c10.4-20.9,21.9-31.3,34.5-31.3c5.8,0,10.9,2,15.4,6.1c2.9,3.2,4.5,6.1,4.9,8.9c1.7,8.8-0.7,15.6-7.3,20.5
		c13.9-5.1,20.9-9.8,20.9-14c0-2.8-2.5-7.8-7.5-15.2c0.1-2.9,0.9-7.7,2.4-14.4c6.4,5.4,9.7,12.7,9.7,22.1c0,15.4-6.3,25.5-18.9,30.3
		c-13.9,4.5-28,8.9-42.1,13.2c-16.9,5.8-25.4,10.7-25.4,14.8c0,2.9,2.7,6.5,8.1,10.8c4.3,3.8,8.1,6,11.4,6.5
		c-0.7,2.9-1.7,7.2-3.2,12.8c-16.2-4.2-28-14-35.6-29.5c-3.3-6.6-6.2-17-8.9-31.3c-3,15.6-10.7,23.4-23,23.4c1.3,4.5,2,8.3,2,11.6
		c0,7.2-2.2,13.4-6.7,18.5c-10,11.3-23,19-39.2,23.2c-0.7,4.7-1,9-1,12.8c0,7.2,2,13.4,5.9,18.6c3.9,5.2,9.3,7.8,16.2,7.8
		c8.7,0,19-3.3,31.1-10c11-6.3,19.8-13.3,26.2-21.1c-4.9-10.1-8.5-18.8-11-26.2l5.9-16h1.8c4.2,14.3,11.5,24.5,22,30.4
		c10.4,6,25.5,9,45.2,9c8.9,0,19.9-0.8,32.8-2.4c12.9-1.6,23.7-2.6,32.2-3c7.1,0,14.7,0.5,22.8,1.6c-4.5-10.4-15.9-14.8-34.3-13.2
		l-15.6,1.2l-3.2-11.6l18.1-1.6c28.5-2.1,42.7,5,42.7,21.3C363.1,363,362,365.8,359.6,369.8z M116.6,249.2h-1
		c0.7-3.2-0.1-4.7-2.4-4.7c-2.1,0-3.2,3.9-3.3,11.8c0,5,0,9.8,0,14.4h-0.8c0-2.1-1.2-5-3.4-8.7c-2.3-3.7-4.7-5.5-7.2-5.5
		c0,3.2-1.8,4.7-5.3,4.7c-3.9,0-5.9-2.2-5.9-6.5c0-4.2,2.4-6.3,7.1-6.3c6.7,0,11.2,3.7,13.4,11.2c0.4-5,0.6-9.8,0.6-14.6
		c0.5-6,2.6-9.1,6.3-9.1c3.3,0,4.9,1.8,4.9,5.5C119.5,243.4,118.5,245.9,116.6,249.2z M122.1,187.6c-22.7,0-34.1-9.7-34.1-29.1
		c0-3.7,1.8-8.4,5.5-14.3c3.7-5.8,7-9.8,10-11.9l1,1c-7.4,8.8-11,15.9-11,21.3c0,6.6,3.7,11.6,11,15c6.3,2.8,13.7,4.1,22.1,4.1
		c10.6,0,22.3-2.3,35.1-6.9l1,12C147,184.6,133.5,187.6,122.1,187.6z M104.9,220.5c-3.4,5.5-6.8,9-10,10.5l-0.4-0.8
		c6.6-6.6,9.8-12.1,9.8-16.5c0-3-1-4.5-3-4.5c1.4,0,0.5,0.4-2.8,1.2l-0.2-0.4c2.2-6.6,4.5-9.8,6.9-9.8c3.2,0,4.7,1.9,4.7,5.7
		C110.1,210.2,108.3,215.1,104.9,220.5z M140.2,320.3c0.1-0.9,0.2-2.2,0.2-3.9c0-2.1-1.4-4.4-4.1-6.9c-3.2,7.7-6.1,12.9-8.9,15.6
		c-8,8-18.4,14.2-31.1,18.7l-0.4-0.8c9.3-5.5,18.3-12.5,27-20.9c7.9-7,11.8-11.4,11.8-13.4c0-0.5-1.2-1.6-3.5-3.2
		c-2.4-1.6-3.5-3.2-3.5-4.7s0.6-3.9,1.9-7c1.2-3.1,2.5-4.6,3.6-4.6c2,0,3.3,2.2,4.1,6.7c0.5,3.3,0.8,5.7,0.8,7.3
		c3.2,2.5,4.7,5.1,4.7,7.9C142.8,315.1,141.9,318.2,140.2,320.3z M116.4,317.7l-11.8-8.7l7.1-8.5l11.2,8.9L116.4,317.7z
		 M118.5,152.1c0,3,0.9,4.5,2.6,4.5c-1.1,0,0-0.4,3.2-1.2l0.2,0.4c-2.4,6.8-4.7,10.2-7.1,10.2c-3.3,0-4.9-2-4.9-6.1
		c0-4.3,1.7-9.2,5.2-14.7c3.5-5.4,6.8-9,9.9-10.5l0.6,0.8C121.7,142.3,118.5,147.8,118.5,152.1z M148.3,118.2
		c-1.1,0.8-3.8,2.1-8.4,4c-4.5,1.9-7.9,2.9-10.1,2.9c-1.1,0-2.4-0.3-3.9-0.8c8.9-2.8,15-5.6,18.1-8.7c-3.2-1.2-6.6-1.8-10.2-1.8
		c-0.5,0-1.2,0.1-1.9,0.4c-0.7,0.3-1.3,0.4-1.9,0.4c0-8.5,3.9-12.2,11.8-11c4.3,0.4,8.9,1.8,13.8,4.3
		C154.8,110.4,152.3,113.8,148.3,118.2z M144.9,339.4c-1.6,0-3.1-0.8-4.5-2.4c-0.8,2.5-2.4,3.7-4.7,3.7c-2.4,0-3.7-1.3-4.1-3.9
		c0-2.6,0-5,0-7.1c-0.5,0.7-1.1,1.7-1.8,3.2v-2.2c0.5-1.4,2.2-3.6,4.9-6.5c-1.1,7.4-0.3,11,2.2,11c1.6,0,2.4-1.2,2.4-3.5
		c0-1.3-0.3-3.5-0.8-6.7l1.8-3.2c0.9,1.6,1.4,4.2,1.6,7.9c0.5,2.2,1.6,3.3,3.2,3.3c1.2,0,1.8-0.8,1.8-2.4l-1.8-6.5l1.8-3.9
		c1.6,4.7,2.4,8.8,2.4,12.2C149.1,337.1,147.7,339.4,144.9,339.4z M132.5,295.3c-0.8,0-1.6,0.4-2.6,1.2c0,0.1,1.8,1.7,5.3,4.7
		C135.3,297.3,134.3,295.3,132.5,295.3z M150.3,151.5c-3.5,5.5-6.8,9-9.9,10.4l-0.2-0.8c6.2-6.7,9.3-12.1,9.3-16.3
		c0-3.2-0.9-4.7-2.8-4.7c1.4,0,0.5,0.3-2.8,1l-0.4-0.2c2.4-6.8,4.7-10.2,7.1-10.2c3.3,0,4.9,2.1,4.9,6.3
		C155.6,141.1,153.8,146,150.3,151.5z M152.2,205.9l-11.4-8.9l6.7-8.5l11.6,9.3L152.2,205.9z M148.3,375.1c0,3.2,1,4.7,3,4.7
		c-1.4,0-0.6-0.3,2.6-1l0.6,0.2c-2.5,6.7-4.9,10-7.3,10c-3,0-4.5-2-4.5-5.9c0-4.3,1.7-9.2,5.1-14.6c3.4-5.4,6.6-8.9,9.7-10.4
		l0.6,0.8C151.5,365.5,148.3,370.9,148.3,375.1z M203.2,233.3c-17.9,0-29.2-10.8-34.1-32.3c0,10.6-3.9,19.6-11.8,27
		c-0.9-2.9-2.3-6.6-4.1-11c9.2-8.4,13.5-18.4,12.8-29.9l-6.9-88.2c0.7-8.8,2.4-14.1,5.3-16h0.8l5.9,83.3c0.9,16,3.5,27.9,7.7,35.6
		c5.8,12.1,15.6,18.1,29.3,18.1c11.7,0,22.8-3.3,33.3-10l4.9,8.7C234.9,228.3,220.5,233.3,203.2,233.3z M233.9,396.1
		c-23.9,4.6-46.4,16-67.6,34.3c-1.7-2.1-1.5-4.5,0.6-7.1c5.6-7.4,15.4-14.6,29.2-21.7c13.9-7.1,27.3-11.3,40.5-12.6L233.9,396.1z
		 M210.1,257.7c-21.5,6-36,14.8-43.3,26.2c-0.9-1.6-0.9-3.4,0-5.5c1.6-4.1,6.9-8.8,15.9-14.1c9-5.3,18.7-9.4,29.2-12.1L210.1,257.7z
		 M177,80.5c-3.4,5.5-6.8,9-10,10.5l-0.2-0.6c6.4-6.8,9.7-12.3,9.7-16.3c0-3.3-1-4.9-3-4.9c1.3,0,0.5,0.4-2.6,1.2l-0.8-0.4
		c2.6-6.6,5.1-9.8,7.3-9.8c3.2,0,4.7,1.9,4.7,5.7C182.1,70.2,180.4,75.1,177,80.5z M185.1,255.3l-15.2,7.3v-3.5l4.7-3.2
		c-3.2-1.6-4.7-3.6-4.5-6.1c0-2.1,1.4-4.7,4.3-7.9c2.9-3.2,5.4-4.7,7.7-4.7c3.2,0,4.7,1.4,4.5,4.3c0,0.4-0.5,1.9-1.6,4.5h-1.2
		c-0.8-1.4-1.6-2.2-2.6-2.2c-3.3,0-5.7,1.1-7.3,3.2c0.7,1.8,2.6,2.8,5.7,3c3.9,0,7.2-0.9,9.7-2.6h2.4
		C190.2,251.5,188,254.1,185.1,255.3z M181.7,363.8c-3.4,5.4-6.7,8.9-9.8,10.4l-0.4-0.8c6.4-6.6,9.7-11.9,9.7-16
		c0-3.3-1.1-4.9-3.2-4.9c1.4,0,0.6,0.3-2.6,1l-0.4-0.2c2.5-6.7,4.9-10,7.1-10c3.2,0,4.7,2,4.7,6.1
		C186.9,353.7,185.2,358.5,181.7,363.8z M205,179.7c-10,5.9-15.8,9.9-17.5,12l-1.8-3.2c2.2-2.9,6.6-6.3,13-10.2
		c5.8-3.4,8.7-5.6,8.7-6.5c0-3.4-2.6-5.1-7.7-5.1c-5,0-13.5,2.4-25.4,7.3l-0.8-11.6c12.7-5.1,22.8-7.7,30.1-7.7
		c8.3,0,12.4,3.5,12.4,10.6C216,170.8,212.3,175.6,205,179.7z M178,145.6l-0.2-1.2c13.8-7.5,25.3-14.4,34.7-20.9l0.4,5.7
		C198.4,137.8,186.8,143.2,178,145.6z M185.7,91.1c0,3.3,0.9,4.9,2.8,4.9c-1.2,0-0.3-0.5,2.8-1.6l0.6,0.8c-2.4,6.7-4.8,10-7.3,10
		c-3.2,0-4.7-2-4.7-6.1c0-4.2,1.7-9.1,5.1-14.6c3.4-5.5,6.8-9,10-10.4l0.4,0.6C188.9,81.5,185.7,87,185.7,91.1z M210.4,203
		c-3.5,5.5-6.8,9-9.9,10.5v-0.8c6.4-6.7,9.7-12.1,9.7-16.2c0-3.3-1.2-4.9-3.5-4.9c1.4,0,0.7,0.4-2.4,1.2l-0.6-0.4
		c2.5-6.6,4.9-9.8,7.1-9.8c3.3,0,4.9,2,4.9,5.9C215.6,192.7,213.9,197.6,210.4,203z M214.9,433c-4.1,6.7-8.2,10.9-12.1,12.6v-1
		c7.6-8,11.4-14.6,11.4-19.9c0-3.8-1.2-5.7-3.7-5.7c1.6,0,0.6,0.5-3,1.6l-1-0.6c3.2-8,6.2-12,9.1-12c3.7,0,5.5,2.4,5.5,7.1
		C221.1,420.3,219.1,426.3,214.9,433z M211.9,282.5c0,3.7,1.2,5.5,3.7,5.5c-1.7,0-0.7-0.5,3-1.6l0.8,0.8c-2.8,7.7-5.6,11.6-8.7,11.6
		c-3.7,0-5.5-2.4-5.5-7.3c0-5.1,2.1-10.8,6.3-17.1c4.2-6.3,8.1-10.4,11.8-12.4v0.8C215.7,270.9,211.9,277.5,211.9,282.5z
		 M224.5,214.5l-12-117c-0.8-4.6-2-10.6-3.7-17.9c-0.3-1.8,0.4-4.8,2-8.9c0.8-2.1,1.8-4.3,3-6.5h1c0.4,3.3,2.3,8.7,5.7,16.2
		c3.4,7.6,5.4,13.5,5.9,17.8l-0.6,0.8c-1.2-1.7-3.1-3.8-5.7-6.3l-0.8,1c-0.4,1.8,3.6,41.4,12,118.6
		C229.3,213.3,227.1,214,224.5,214.5z M255,104.6c0.3-1,0.4-2.8,0.4-5.1c0-2.8-1.8-5.7-5.3-8.9c-4.7,11.2-13.2,21.5-25.4,31.1
		l-0.8-7.1c14.3-12.1,22.2-20.4,23.6-25c-5.8-3.2-8.7-6.4-8.7-9.7c0-2.5,0.8-5.7,2.4-9.7c1.6-3.9,3.1-5.9,4.5-5.9
		c2.8,0,4.7,2.9,5.7,8.7c0.7,4.3,0.9,7.6,0.8,9.7c4.2,3.4,6.3,6.8,6.3,10C258.6,98.1,257.4,102,255,104.6z M262.9,261.8
		c-6.6,0-14.1,5-22.5,15c-7.4,8.7-11.9,16.3-13.6,22.8c5-2.9,16.1-7,33.3-12.4c12.2-3.9,19.4-8.5,21.5-13.6
		C279.2,265.7,273,261.8,262.9,261.8z M323,428c-6.6,0-11.2-3.3-13.8-9.8c0-0.3-1.4-6.4-4.1-18.3c0.7,4.2-0.3,9.1-3,14.8
		c-3.2,6.2-11.2,13.9-24.1,23.2c-12.9,9.3-23,14-30.2,14c-11.2,0-16.7-8-16.7-24c0-5.3,1.3-12.3,3.9-21.3c2.2-7.5,3.9-11.8,4.9-12.8
		l1.6,1c-5.3,13.1-7.9,23.2-7.9,30.1c0,8.9,4.5,13.4,13.4,13.4c8.4,0,19.8-5.4,34.2-16.1c14.4-10.7,21.6-19.7,21.6-27.1
		c0-3.5-0.7-8.3-2-14.4l6.3-1c1.4,10.9,2.8,18.2,4.1,21.9c2.9,8.7,7.4,13,13.4,13c6,0,9.7-2,11-6.1c0-4.6-2.2-8.7-6.7-12.4
		c0.4-3,1.2-8.1,2.4-15.4c5.6,5.1,8.5,13.2,8.5,24.2C339.7,420.4,334.1,428,323,428z M248.1,154.5l-11.4-9.3l6.3-8.1l-9.7-7.9
		l6.5-8.9l11.6,9.5l-6.9,8.1l10.4,7.9L248.1,154.5z M263.5,226.8c-5.4,0-10.7-3.6-15.9-10.8c-5.2-7.2-7.8-14.6-7.8-22.1
		c0-6.4,1.2-12.4,3.5-17.8c2.4-5.4,5.6-8.2,9.8-8.2c2.8,0,5.2,2.8,7.3,8.5c1.8,4.5,2.8,8.2,2.8,11.2c0,7-2,13.5-6.1,19.7l-5.3-5.1
		c2.1-1.7,4.7-3.7,7.7-5.9c-2.2-9.6-5.1-14.4-8.7-14.4c-4.9,0-7.3,2.4-7.3,7.3c0,5,2.5,10.3,7.6,16.1c5.1,5.7,10.3,8.6,15.9,8.6
		c5.3,0,9.1-0.7,11.6-2.2c1,2,2.8,3.2,5.1,3.7C279.2,222.9,272.4,226.8,263.5,226.8z M245.4,72.3c-1.2,0-2.3,0.4-3.3,1.2
		c0.1,0.7,2.3,2.8,6.5,6.5C248.5,74.9,247.5,72.3,245.4,72.3z M249.1,411.3c0,3.2,0.9,4.7,2.8,4.7c-1.3,0-0.4-0.3,2.8-1l0.4,0.2
		c-2.4,6.8-4.8,10.2-7.3,10.2c-3.2,0-4.7-2.1-4.7-6.3c0-4.2,1.7-9,5.1-14.4c3.4-5.4,6.7-8.9,9.8-10.4l0.6,0.8
		C252.3,401.7,249.1,407.1,249.1,411.3z M309.4,314.6c1.2-1.3,2.2-3,3-5.1c0.7-2.2,0.5-3.3-0.4-3.3c-11.7,0-24.9,4.2-39.8,12.6
		c-13.5,7.6-20.3,13.7-20.3,18.3c0,2.4,1.8,4.2,5.5,5.6c3.7,1.4,7,1.9,10,1.5l18.7-1.2l3.9,11.6l-21.9,2
		c-13.7,1.2-20.5-4.3-20.5-16.3c0-10.1,7.6-20.3,22.9-30.6c15.3-10.3,29.5-15.5,42.6-15.5c4.6,0,6.9,2.4,6.9,7.1
		c0,5-3.3,9.6-10,13.8L309.4,314.6z M265.1,150.3c0.4-3.4,0.6-7.3,0.6-11.6c0-7.6-3-13.7-9.1-18.3l1.2-8.1c7.4,4.5,11,11.3,11,20.5
		C268.8,138.2,267.6,144,265.1,150.3z M279.4,338.4l-11.2-8.7l6.7-8.7l11.4,9.1L279.4,338.4z M288.5,199.4c-1.1-0.3-2.9-1.2-5.5-2.8
		L272.5,95.2c-0.9-4.6-2.2-10.6-3.7-17.9c-0.3-1.8,0.4-4.9,2-9.1c0.9-2,1.9-4.1,3-6.3h1.2c0.3,3.3,2.1,8.7,5.4,16.3
		c3.3,7.6,5.3,13.5,6,17.7l-0.6,0.6c-1.2-1.6-3-3.6-5.5-6.1l-1,0.8c-0.4,2.1,2.8,33.4,9.5,93.9C289.2,189.9,289.2,194.6,288.5,199.4
		z M334.6,212.4c-15.1,0-22.2-9.3-21.3-27.8c0-1.8,0.5-5.4,1.6-10.6c1-5.3,1.6-9.1,1.6-11.6c-6.3,4.7-11.7,14.9-16.2,30.5
		c-3.9,13.3-8,19.9-12.2,19.9c-5.1,0-9.3-3.4-12.5-10.2c-3.2-6.8-4.8-13.9-4.8-21.3c0-7.5,0.5-13.6,1.4-18.3l1.6,0.2
		c-0.8,6.4,0,14.1,2.4,22.8c2.9,10.5,6.9,15.8,12,15.8c2.5,0,5.3-4.2,8.3-12.6c5-13.8,8.3-22.3,9.8-25.4
		c5.4-10.4,11.7-17.1,18.9-20.3l-0.6,12.4c-3.3,14.8-4.9,23.6-4.9,26.2c0,11.2,5.3,16.8,15.8,16.9l1.8,13.4
		C336.1,212.4,335.2,212.4,334.6,212.4z M283.3,408c-3.5,5.4-6.9,8.9-10.1,10.4l-0.2-0.6c6.4-6.6,9.7-11.9,9.7-16.2
		c0-3.3-1.1-4.9-3.2-4.9c1.4,0,0.6,0.3-2.6,1l-0.6-0.2c2.6-6.7,5.1-10,7.5-10c3.2,0,4.7,2.1,4.7,6.3
		C288.5,397.8,286.8,402.6,283.3,408z M304.5,239l-10-7.9l-6.5,8.5l-11.8-9.3l6.9-8.1l10.4,7.9l6.1-8.7l11.6,9.5L304.5,239z
		 M296.4,364.6c-3.2-9.5-5.9-17.1-8.3-22.8c-0.1-0.7,0.6-3.6,2.1-8.9c1.5-5.3,2.3-8.3,2.3-9.1c5.5,9.6,9.7,22.8,12.6,39.8
		L296.4,364.6z M298.3,154.5c-5.3,0-7.9-3.7-7.9-11.2c0-1.6,2.8-4.2,8.3-7.8c5.5-3.6,8.5-6.3,8.9-8.2c-3.7-1-5.8-2.6-6.3-4.5
		c-0.4-1.6,0-3.7,1.3-6.4c1.2-2.7,2.5-4.3,3.6-4.8l-1.8-3l0.6-1.2c1.7,0,4,0.8,6.9,2.4v1c2.5,1.6,5.5,4.7,9.1,9.5
		c0.8,5-0.4,7.9-3.5,8.9c-1.8,0.1-4.3-0.2-7.3-1c-0.1,4.3-2,7.7-5.7,10.2c-3.3,1.7-7.2,4.4-11.8,8.1c1.2,1.1,3.7,1.6,7.7,1.6
		c9.2,0,17.3-6.3,24.2-18.9l1.2,0.8C318.5,146.3,309.4,154.5,298.3,154.5z M301.5,88.3c0,3.2,1,4.7,3,4.7c-1.4,0-0.6-0.4,2.6-1.2
		l0.6,0.4c-2.5,6.6-4.9,9.8-7.3,9.8c-3,0-4.5-2-4.5-5.9c0-4.2,1.7-9,5.1-14.5c3.4-5.4,6.6-8.9,9.7-10.3l0.6,0.8
		C304.7,78.7,301.5,84.1,301.5,88.3z M308.8,444.6l-11.6-8.9l6.7-8.5l11.6,9.3L308.8,444.6z M308.4,116.3c-2,0.3-3.5,1.3-4.5,3.2
		c1.6,1.6,3.4,2.4,5.5,2.4c1.2-1.8,1.6-3.2,1.2-3.9C310.3,116.5,309.6,116,308.4,116.3z M312.5,117.8l-0.2,4.7
		c1.3,0.8,2.8,1.1,4.3,1c0.5-0.5,1.2-0.9,2-1C317.3,121.8,315.3,120.2,312.5,117.8z M385,386.1l-1.2-0.8c0-15.9-8.3-35.6-24.8-59.3
		c-11.6-14.7-24.5-31.8-38.8-51.4c-1.4-1.6-3-4-4.5-7.3l2.2-10.8c1.7,1.1,4.9,4.1,9.7,9.3c2.8,3.2,5.7,6.1,8.9,8.9l-0.2,1.2
		l-7.3-1.8c3.2,5,15.6,21.2,37.2,48.6c14.4,18.5,21.7,33.9,21.7,46.1C387.8,376,386.8,381.8,385,386.1z M326.4,239
		c-3.5,5.4-6.7,8.9-9.7,10.4v-0.8c6.2-6.6,9.3-11.9,9.3-16.2c0-3.2-1-4.7-3-4.7c1.4,0,0.6,0.3-2.6,1l-0.6-0.2c2.4-6.7,4.7-10,7.1-10
		c3.2,0,4.7,2,4.7,5.9C331.6,228.7,329.9,233.6,326.4,239z M333.3,322.7c-3.5,5.4-6.8,8.9-9.9,10.4l-0.4-0.6
		c6.3-6.6,9.5-11.9,9.5-16.2c0-3.2-0.9-4.7-2.6-4.7c1.2,0,0.2,0.3-3,1l-0.2-0.4c2.2-6.7,4.5-10,6.9-10c3.3,0,4.9,2.1,4.9,6.3
		C338.5,312.6,336.8,317.3,333.3,322.7z M347.8,295.3l-19.3-185.9c-0.7-4.3-1.8-10.4-3.3-18.1c-0.4-1.7,0.2-4.5,1.8-8.5
		c1-2.1,2-4.4,3-6.9h1c0.5,3.4,2.5,8.9,5.8,16.5c3.3,7.6,5.3,13.5,6,17.7l-1,0.8c-1.1-1.6-2.9-3.7-5.5-6.3l-0.8,1.4
		c0,2.1,6.6,66.4,19.9,193c0.4,2.1,0.6,4.2,0.6,6.3L347.8,295.3z M442.4,304.2c-5.1,20.6-11.5,37.8-19.2,51.6l-1.6,0.8
		c14-31.1,21.1-63.9,21.1-98.5c0-47-17.1-84.2-51.4-111.7c9.6,19.4,14.4,33.5,14.4,42.1c0,4.1-1.6,8-4.7,11.8
		c-4.1,5.1-9.3,7.7-15.6,7.7c-11.7,0-20-6.6-24.8-19.7c-2.2,8.4-6.4,14.8-12.4,19.3L347,197c6-2.8,9.8-7.7,11.2-15
		c0-5.3-2.2-17-6.5-35.3l2.6-14.4c3.2,4.2,4.9,7,5.3,8.5c1.3,2.4,2.1,5.1,2.4,8.1c0.5,7.2,2.4,17.4,5.5,30.5
		c4.1,10.1,10.8,15.2,20.1,15.2c6.3,0,10.8-1.8,13.4-5.3c-11-20.2-17.1-35.3-18.3-45.1L385,130c20.1,10.9,35.9,27.1,47.6,48.5
		c11.6,21.5,17.4,44.5,17.4,69C450,264.7,447.5,283.5,442.4,304.2z M349.4,340.6l-1.6-0.4c0.5-3.4,1-10.9,1.6-22.5l5.5,7.3
		C353.8,330.4,352,335.6,349.4,340.6z M396.2,385.1c-7.2,16.4-21.2,25.7-42,27.8v-1.6c9.5-3.7,18.2-9.9,26.2-18.7
		c10-10.2,14.4-20,13.2-29.3l-8.7-84.9c-0.8-4.5-2-10.4-3.5-17.9c-0.1-1.8,0.5-4.7,2-8.7c0.8-2.1,1.6-4.3,2.6-6.7h1.6
		c0.1,3.3,1.9,8.7,5.2,16.3c3.3,7.6,5.3,13.6,6,17.9l-0.8,0.8c-1.1-1.3-2.9-3.5-5.5-6.5l-0.6,1.4l6.9,73.1
		C400.5,364.6,399.6,377,396.2,385.1z M365,235.8c-3.5,5.4-6.7,8.9-9.7,10.4l-0.4-0.8c6.4-6.6,9.7-12,9.7-16.3c0-3.2-1-4.7-3-4.7
		c1.4,0,0.6,0.4-2.6,1.2l-0.6-0.2c2.4-6.7,4.8-10,7.3-10c3,0,4.5,2,4.5,5.9C370.2,225.6,368.5,230.4,365,235.8z M373.6,121.4
		c-1.6,0-3.3-0.9-5.1-2.8c-1.1,3.3-3,4.9-5.7,4.9c-2.5,0-4-1.8-4.5-5.3c0-2.8,0-5.4,0-8.1c-0.9,1.1-1.7,2.4-2.4,3.9v-2.4
		c0.7-2.1,2.6-4.8,5.7-8.1c-1.2,8.7-0.4,13,2.4,13c2.1,0,3.2-1.4,3.2-4.1c0-1.6-0.3-4.2-1-7.9l1.8-3.5c1.4,1.8,2.2,4.9,2.4,9.1
		c0.4,3,1.5,4.5,3.3,4.5c1.4,0,2.2-1,2.2-3c0-0.1-0.6-2.8-1.8-8.1l1.8-4.5c2.1,5.5,3.2,10.3,3.2,14.4
		C378.9,118.8,377.1,121.4,373.6,121.4z M370.3,273.1c-3.5,5.5-6.7,9-9.7,10.5l-0.8-0.6c6.4-6.8,9.7-12.3,9.7-16.3
		c0-3.3-0.9-4.9-2.6-4.9c1.3,0,0.3,0.3-3,1l-0.2-0.2c2.2-6.7,4.6-10,7.1-10c3.2,0,4.7,2,4.7,6.1
		C375.6,262.9,373.8,267.7,370.3,273.1z M370.7,388.9c-3.3,5.4-6.7,9-9.9,10.5l-0.2-0.8c6.3-6.7,9.5-12.2,9.5-16.5
		c0-3.2-1-4.7-3-4.7c1.4,0,0.6,0.5-2.6,1.4l-0.6-0.4c2.4-6.6,4.8-9.8,7.3-9.8c3,0,4.5,1.9,4.5,5.7
		C375.7,378.6,374.1,383.5,370.7,388.9z M373,302c0,3.2,0.9,4.7,2.8,4.7c-1.2,0-0.1-0.4,3.2-1.2l0.2,0.6c-2.4,6.6-4.8,9.8-7.3,9.8
		c-3.2,0-4.7-2-4.7-6.1c0-4.2,1.7-9,5.1-14.5c3.4-5.4,6.8-9,10-10.5l0.4,0.8C376.2,292.3,373,297.8,373,302z M390.9,230.1l-15.2,7.1
		v-3.7l4.7-3.2c-3.2-1.6-4.5-3.5-3.9-5.9c0-2.1,1.3-4.8,4-8c2.7-3.2,5.2-4.8,7.6-4.8c3.3,0,4.7,1.4,4.3,4.3c0,0.7-0.5,2.2-1.6,4.5
		h-1c-1.1-1.3-1.8-2-2.4-2c-3.5,0-6.1,1-7.7,3c0.9,2,2.9,3.1,5.9,3.3c4.1,0,7.3-0.9,9.7-2.6h2.4C396.2,226,393.9,228.7,390.9,230.1z
		 M418.3,335.9c0,14.4-3.5,27.5-10.4,39.2l-1.6-0.4c4.5-17.9,6-32.2,4.7-43.1l-9.7-95.1c-0.8-4.6-2-10.6-3.5-17.9
		c-0.3-1.8,0.5-4.7,2.2-8.7c0.7-2.1,1.5-4.5,2.6-7.1h1.4c0.1,3.5,1.9,9.1,5.2,16.7c3.3,7.6,5.4,13.5,6.2,17.7l-1,1
		c-0.9-1.7-2.8-3.9-5.5-6.5l-0.8,1.2c-0.1,2.1,3.1,33.7,9.7,94.7C418.1,330.4,418.3,333.1,418.3,335.9z M429.6,239.3
		c-3.5,5.5-6.8,9-9.9,10.5l-0.4-0.6c6.3-6.8,9.5-12.3,9.5-16.3c0-3.3-0.9-4.9-2.6-4.9c1.3,0,0.3,0.4-3,1.2l-0.2-0.4
		c2.2-6.6,4.5-9.8,6.9-9.8c3.3,0,4.9,2,4.9,5.9C434.8,229,433.1,233.8,429.6,239.3z M426.2,289.8c0,3,0.9,4.5,2.6,4.5
		c-1.2,0-0.2-0.3,3-1l0.2,0.2c-2.2,6.7-4.6,10-7.1,10c-3.3,0-4.9-2-4.9-5.9c0-4.3,1.7-9.2,5.2-14.6c3.5-5.4,6.8-8.9,9.9-10.6
		l0.4,0.8C429.3,279.9,426.2,285.4,426.2,289.8z"/>
</g>
<circle class="st2" cx="256" cy="256" r="236"/>
</svg>
