<svg version="1.2" xmlns="http://www.w3.org/2000/svg" viewBox="0 0 2000 1615" width="2000" height="1615">
	<title>MMICLogo_2024</title>
	<style>
		.s0 { fill: #ffffff } 
	</style>
	<g id="MMIC Logo copy">
		<path id="&lt;Compound Path&gt;" fill-rule="evenodd" class="s0" d="m1992 1170.1v17.6h-1986.8l1.5-17.6h560v-127.3h-16v-47.2h15c-248.1-242.6 127-386 291-558.7v-17.9c0-13.4 8.2-25.4 20.4-31.8-6.5-3.7-10.2-9-10.2-14.7 0-6.9 5.5-13.2 14.2-16.9l3.4-46.2c-4.9-2.5-7.9-6.2-7.9-10.4 0-4.8 3.7-9 9.4-11.2l2-27.4 10.7-139.9 10.4 139.9 2 27.4c5.8 2.2 9.7 6.4 9.7 11.2 0 4.2-3.2 7.9-7.9 10.4l3.2 44.7c10.7 3.5 18.2 10.5 18.2 18.4 0 6.2-4.8 11.9-12.2 15.7 11.2 6.7 18.6 17.9 18.6 30.8v20.4c121.3 126 353.2 236.8 370.1 382.2v33.1c-4.7 43.5-29.3 90-81.5 140.9h14.9v47.2h-22.6v127.3h182.1v-274.7h-24.3v-54.6h24.3v-311h-24.3v-54.6h24.3v-138h-10.6v-26.1h0.2c-69.6-76 20.9-121.3 65.4-174.2-1-2-1.8-4-1.8-6.5v-11.4c0-5.2 3.3-10.2 8-12.7-2.5-1.5-4-3.4-4-5.9 0-2.8 2.2-5.3 5.5-6.7l1.5-18.7c-2-1-3.3-2.5-3.3-4 0-1.9 1.5-3.4 3.8-4.4l1-11 3.9-56.1 4 56.1 1 11c2.2 1 3.7 2.5 3.7 4.4 0 1.5-1.2 3-3.2 4l1.2 18.2c4.3 1.2 7.3 3.9 7.3 7.2 0 2.7-2 4.9-4.8 6.4 4.2 2.8 7.2 7.2 7.2 12.2v11.4c0 2.5-0.7 4.5-1.7 6.5 43.5 51.7 131.2 102.2 65.4 174.2h0.2v26.1h-10.7v138h17.7v54.6h-17.7v311h17.7v54.6h-17.7v274.7zm-1265.5-78.8c1.2-18.1-37.1-30.8-49-46.7-11.9 15.9-50.2 28.6-49 46.7v75.6h98zm144.4 0h-0.3c1.2-18.2-36.8-30.9-48.7-46.8-11.9 15.9-50.2 28.6-49 46.8v75.5h98zm144.1 0c1.3-18.1-37-30.8-49-46.7-11.9 15.9-50.2 28.6-48.9 46.7v75.6h97.9zm144.4 0c1-18.2-37-30.9-48.9-46.8-12 15.9-50.3 28.6-49 46.8h-0.3v75.5h98.2zm345.2-318.1c1-14.9-23.8-25.4-31.5-38.5-7.7 13.1-32.3 23.6-31.6 38.5v67.6h63.1zm0-365.6c1-14.9-23.8-25.4-31.5-38.5-7.7 13.1-32.3 23.6-31.6 38.5v67.6h63.1z"/>
		<g id="&lt;Group&gt;">
			<path id="&lt;Compound Path&gt;" fill-rule="evenodd" class="s0" d="m423.6 1549.1h-10.2l-6-7.2c-4.5 5-9.4 8.7-18.9 8.7-16.1 0-18.9-11.9-18.9-16.9 0-9 2.5-13.7 14.5-20.4-4.5-5.7-6.8-8.7-6.8-14.4 0-7.5 5.5-14.2 15.2-14.2 10.2 0 14.7 6.7 14.7 13.2 0 9.2-7 13.7-11.7 16.9l11.7 14.2c1.5-4 2-5.5 2.7-10.2h7.5c-0.3 4.5-2 10.4-5.3 16.4zm-35-30.3c-7 4.2-11.2 7.2-11.2 14.1 0 8.2 8.2 10.7 11.7 10.7 5.7 0 10.7-2.5 13.9-7.2zm10.9-20.1c0-5.7-4.2-7-6.9-7-6.7 0-7.5 4.7-7.5 7 0 4.2 4 8.7 6.5 11.2 3.2-2.3 7.9-5.8 7.9-11.2z"/>
			<path id="&lt;Compound Path&gt;" class="s0" d="m516 1484.7h8.7v64.4h-8.7z"/>
			<path id="&lt;Compound Path&gt;" class="s0" d="m607.2 1503.6c-0.5-10.2-8.7-13.1-16.1-13.1-5.5 0-14.7 1.4-14.7 11.1 0 5.5 4 7.5 7.7 8.2l18.4 4.3c8.5 1.9 14.7 6.9 14.7 17.4 0 15.1-14.2 19.3-25.4 19.3-11.9 0-16.6-3.4-19.4-6.2-5.4-4.9-6.7-10.2-6.7-16.4h8.2c0 11.7 9.7 15.2 17.9 15.2 6.2 0 16.9-1.5 16.9-10.9 0-6.8-3.2-8.7-13.6-11.5l-13.5-3c-3.9-1-13.6-3.9-13.6-15.1 0-10.2 6.7-19.9 22.1-19.9 22.6 0 24.8 13.4 25.3 20.6z"/>
			<path id="&lt;Compound Path&gt;" class="s0" d="m665.6 1541.4h32.6v7.7h-41.3v-64.4h8.7z"/>
			<path id="&lt;Compound Path&gt;" fill-rule="evenodd" class="s0" d="m745.7 1530.5l-6.7 18.6h-9.2l24.3-64.4h10l23.3 64.4h-9.4l-6.5-18.6zm22.6-7.7l-9.4-28.6h-0.3l-10.1 28.6z"/>
			<path id="&lt;Compound Path&gt;" class="s0" d="m877.1 1549.1v-38c0-2 0.3-10.2 0.3-16.2h-0.3l-18.1 54.2h-8.7l-18.1-53.9h-0.3c0 5.7 0.3 13.9 0.3 15.9v38h-8.5v-64.4h12.4l18.7 54.5 18.4-54.5h12.4v64.4z"/>
			<path id="&lt;Compound Path&gt;" class="s0" d="m928.9 1484.7h8.7v64.4h-8.7z"/>
			<path id="&lt;Compound Path&gt;" class="s0" d="m1026.5 1504.1c-2.5-11.4-11.9-13.4-18.1-13.4-11.7 0-21.1 8.4-21.1 25.6 0 15.2 5.4 26.8 21.3 26.8 5.7 0 15.4-2.7 18.4-17.6h8.5c-3.5 24.4-23.4 25.3-28.1 25.3-14.7 0-29.1-9.4-29.1-34.3 0-19.8 11.4-33.5 30.1-33.5 16.6 0 25.3 10.2 26.6 21.1z"/>
			<path id="&lt;Compound Path&gt;" class="s0" d="m1173.7 1504.1c-2.5-11.4-12-13.4-18.2-13.4-11.7 0-21.1 8.4-21.1 25.6 0 15.2 5.4 26.8 21.4 26.8 5.7 0 15.6-2.7 18.6-17.6h8.2c-3.5 24.4-23.4 25.3-28.1 25.3-14.7 0-29.1-9.4-29.1-34.3 0-19.8 11.5-33.5 30.1-33.5 16.7 0 25.4 10.2 26.6 21.1z"/>
			<path id="&lt;Compound Path&gt;" class="s0" d="m1270.3 1549.1h-47.4v-64.4h46.9v7.7h-38.5v19.7h35.6v7.7h-35.6v21.6h39z"/>
			<path id="&lt;Compound Path&gt;" class="s0" d="m1353.4 1484.7h8.1v64.4h-9.6l-32.8-51.9h-0.3v51.9h-8.4v-64.4h10.4l32.3 52h0.3z"/>
			<path id="&lt;Compound Path&gt;" class="s0" d="m1398.3 1484.7h52.5v7.7h-21.9v56.7h-8.7v-56.7h-21.9z"/>
			<path id="&lt;Compound Path&gt;" fill-rule="evenodd" class="s0" d="m1497.3 1549.1h-8.7v-64.4h29.8c10.7 0 21.4 3.5 21.4 17.2 0 9.7-5 13.2-9.2 15.6 3.7 1.5 7.4 3 7.9 12l0.5 11.9c0 3.5 0.5 4.7 3.2 6.5v1.2h-10.6c-1.3-3.7-1.8-13.7-1.8-16.1 0-5.3-1-11.5-11.4-11.5h-21.1zm0-35.3h20.3c6.3 0 13-1.5 13-10.9 0-10.2-7.2-10.9-11.5-10.9h-21.8z"/>
			<path id="&lt;Compound Path&gt;" class="s0" d="m1629.5 1549.1h-47.5v-64.4h47v7.7h-38.3v19.7h35.3v7.7h-35.3v21.6h38.8z"/>
		</g>
		<path id="MADINA MOSQUE" class="s0" aria-label="MADINA MOSQUE"  d="m60.7 1371.4c-0.9 6.5-2.5 14-7.8 15.1-2.9 0.6-4.3 0.6-5.8 0.6-1.9 0-3.1 0.4-3.1 1.4 0 1.7 1.6 2.1 3.5 2.1 6.1 0 15.4-0.6 19-0.6 3.5 0 12.1 0.6 20.2 0.6 2.8 0 4.6-0.4 4.6-2.1 0-1-1.4-1.4-2.9-1.4-1.9 0-4.6-0.2-8.1-0.9-3.2-0.8-5.7-2.5-5.7-6.2 0-3.1 0.2-5.6 0.5-9l10-76.4h0.8c6.7 14.4 18.2 38.6 20 42.6 2.3 5.4 17.4 34.8 22 43.6 3.1 5.7 5 9.6 6.8 9.6 1.7 0 2.6-1.7 7.1-10.8l41.8-87.1h0.8l11.5 84.4c0.8 5.4 0.2 7.9-1 8.3-1.3 0.6-2.1 1.2-2.1 2.1 0 1.2 1.2 1.7 5.6 2.1 7.7 0.6 34.2 1.2 39 1.2 2.7 0 5-0.6 5-2.1 0-1.2-1.4-1.4-3.1-1.4-2.5 0-6.3-0.2-11.9-1.9-5.8-1.7-7.7-7.3-9.4-19.4l-17.5-118.6c-0.6-4.1-1.7-6-3.4-6-1.8 0-2.7 1.5-4.3 4.6l-52.2 109.6-52.4-108.2c-2.5-5-3.7-6-5.2-6-1.5 0-2.7 1.7-3.3 5zm264.6-30.9c1 0 1.6 0.4 1.9 1.3l15.4 40.7c1 2.3-0.4 4.1-1.7 4.4-2 0.2-2.7 0.6-2.7 1.8 0 1.3 2.3 1.3 5.7 1.5 15.4 0.4 29.4 0.4 36.3 0.4 7.1 0 8.9-0.4 8.9-1.9 0-1.4-1-1.6-2.5-1.6-2.3 0-5.2-0.2-8.1-0.7-4-1-9.6-3.7-16.9-21-12.3-29.1-43-107.5-47.6-118-1.9-4.4-3.1-6.2-4.8-6.2-1.9 0-3.1 2.1-5.4 7.7l-48.2 120.6c-3.8 9.6-7.5 16.1-16.3 17.3-1.5 0.1-4.2 0.3-6 0.3-1.5 0-2.3 0.4-2.3 1.6 0 1.5 1.2 1.9 3.7 1.9 10 0 20.5-0.6 22.6-0.6 6 0 14.3 0.6 20.4 0.6 2.1 0 3.3-0.4 3.3-1.9 0-1.2-0.6-1.6-2.9-1.6h-2.9c-5.9 0-7.7-2.5-7.7-5.9 0-2.3 1-6.9 2.9-11.7l10.4-27.5c0.4-1.1 0.7-1.5 1.7-1.5zm-39-9.6c-0.7 0-0.9-0.6-0.7-1.4l17.6-47.2c0.2-0.8 0.6-1.7 1.2-1.7 0.5 0 0.7 0.9 0.9 1.7l17.3 47.4c0.2 0.6 0 1.2-0.9 1.2zm122.8 4c0 17.7 0 32.8-0.9 40.9-0.8 5.6-1.8 9.8-5.6 10.6-1.7 0.4-4 0.7-6.9 0.7-2.3 0-3.1 0.6-3.1 1.6 0 1.3 1.4 1.9 3.9 1.9 3.8 0 8.8-0.4 13.2-0.4 4.6-0.2 8.8-0.2 10.9-0.2 4.8 0 11.6 0.6 18.9 1.2 7.3 0.5 15.1 1.1 22 1.1 35.6 0 55.5-13.6 64.4-22.6 10.7-11 20.9-29.4 20.9-53.6 0-22.8-9-38.8-18.6-48.8-21-21.9-53-21.9-77-21.9-11.5 0-23.6 0.6-29.6 0.6-5.4 0-17.5-0.6-27.6-0.6-2.9 0-4.3 0.4-4.3 1.8 0 1.3 1.2 1.7 3.3 1.7 2.7 0 6 0.2 7.5 0.6 6.3 1.3 7.9 4.4 8.2 10.9 0.4 6.2 0.4 11.5 0.4 40.7zm24-36.8c0-15.2 0-31.9 0.2-38.4 0-2.1 0.6-3.1 2.3-3.9 1.6-0.7 8.7-1.3 12.5-1.3 15 0 36.9 2.3 54.5 19.2 8.3 7.9 18.5 23.6 18.5 48 0 19.8-3.9 37.2-16.2 47.8-11.5 10-24.5 13.8-44.1 13.8-15.2 0-22.7-4-25.2-7.7-1.5-2.1-1.9-9.8-2.1-14.6-0.2-3.6-0.4-18.4-0.4-38.7zm153.8 36.8c0 18.6 0 33.8-0.9 41.9-0.6 5.5-1.8 8.8-5.6 9.6-1.7 0.4-4 0.7-6.9 0.7-2.3 0-3.1 0.6-3.1 1.6 0 1.3 1.3 1.9 3.8 1.9 7.7 0 19.8-0.6 24.2-0.6 5.2 0 17.3 0.6 30 0.6 2.1 0 3.6-0.6 3.6-1.9 0-1-0.9-1.6-3-1.6-2.9 0-7.1-0.3-9.8-0.7-5.8-0.8-7.1-4.3-7.7-9.4-0.8-8.3-0.8-23.5-0.8-42.1v-33.8c0-29.2 0-34.5 0.4-40.7 0.4-6.7 1.9-10 7.1-10.9 2.3-0.4 3.8-0.6 5.8-0.6 1.9 0 3-0.4 3-1.9 0-1.2-1.5-1.6-4-1.6-7.3 0-18.6 0.6-23.4 0.6-5.6 0-17.7-0.6-25-0.6-3 0-4.6 0.4-4.6 1.6 0 1.5 1.2 1.9 3.1 1.9 2.3 0 4.8 0.2 6.9 0.8 4.2 0.9 6.1 4.2 6.5 10.7 0.4 6.2 0.4 11.5 0.4 40.7zm95.4-51h0.6c3.5 3.6 24.8 27.6 45.7 48.3 20 19.8 44.5 45 56.6 56.5 2.2 2.1 4.5 4.2 6.6 4.2 1.7 0 2.5-1.7 2.5-5.9l2.1-121.2c0.2-10.7 1.7-14.8 7.1-16.3 2.3-0.6 3.8-0.6 5.7-0.6 2.3 0 3.5-0.6 3.5-1.7 0-1.5-1.9-1.7-4.4-1.7-9.4 0-16.7 0.5-18.8 0.5-4.1 0-13.3-0.5-23.3-0.5-2.8 0-5 0.2-5 1.7 0 1.1 0.8 1.7 3.1 1.7 2.7 0 7.3 0 10.2 1.2 4.6 1.9 6.3 5.5 6.5 17.2l1.9 86.3h-0.9c-3.3-3.1-29.2-30.8-42.3-43.8-28-27.9-57.2-59.2-59.5-61.7-3.2-3.4-5-5.9-7.1-5.9-1.9 0-2.5 2.7-2.5 6.5l-1.7 113.7c-0.2 16.7-1 22.3-6 23.8-2.6 0.8-6.1 1-8.6 1-1.9 0-3.1 0.3-3.1 1.5 0 1.7 1.8 1.9 4.3 1.9 9.9 0 19-0.6 20.7-0.6 3.6 0 11.3 0.6 23.8 0.6 2.7 0 4.4-0.4 4.4-1.9 0-1.2-1.1-1.5-3.3-1.5-3 0-6.7-0.2-9.9-1.4-3.9-1.3-6.4-6.3-6.8-21.3zm223.7 56.6c1 0 1.6 0.4 1.9 1.4l15.4 40.7c1 2.3-0.4 4-1.7 4.4-1.9 0.2-2.7 0.6-2.7 1.7 0 1.4 2.3 1.4 5.7 1.6 15.4 0.3 29.4 0.3 36.3 0.3 7.1 0 8.9-0.3 8.9-1.9 0-1.3-1-1.5-2.5-1.5-2.3 0-5.2-0.2-8.1-0.8-4-0.9-9.6-3.6-16.9-20.9-12.3-29.2-43-107.5-47.6-118.1-1.9-4.4-3.1-6.1-4.8-6.1-1.9 0-3.1 2.1-5.4 7.7l-48.2 120.5c-3.8 9.6-7.5 16.2-16.3 17.3-1.5 0.2-4.2 0.4-5.9 0.4-1.6 0-2.4 0.4-2.4 1.5 0 1.6 1.2 1.9 3.7 1.9 10 0 20.5-0.5 22.7-0.5 5.9 0 14.2 0.5 20.3 0.5 2.1 0 3.3-0.3 3.3-1.9 0-1.1-0.6-1.5-2.9-1.5h-2.9c-5.9 0-7.7-2.5-7.7-6 0-2.3 1-6.9 2.9-11.7l10.4-27.4c0.4-1.2 0.7-1.6 1.7-1.6zm-39-9.6c-0.7 0-0.9-0.5-0.7-1.3l17.6-47.2c0.2-0.8 0.6-1.8 1.2-1.8 0.6 0 0.7 1 0.9 1.8l17.3 47.4c0.2 0.6 0 1.1-0.9 1.1zm168.5 40.5c-0.9 6.6-2.5 14.1-7.8 15.2-2.9 0.6-4.3 0.6-5.8 0.6-1.9 0-3.1 0.4-3.1 1.3 0 1.8 1.6 2.1 3.5 2.1 6.1 0 15.3-0.5 19-0.5 3.4 0 12.1 0.5 20.1 0.5 2.9 0 4.7-0.3 4.7-2.1 0-0.9-1.4-1.3-2.9-1.3-1.9 0-4.6-0.2-8.1-1-3.3-0.7-5.8-2.5-5.8-6.1 0-3.1 0.2-5.6 0.6-9l10-76.5h0.8c6.7 14.4 18.2 38.6 19.9 42.7 2.3 5.3 17.5 34.7 22.1 43.6 3.1 5.7 5 9.6 6.7 9.6 1.8 0 2.7-1.8 7.1-10.8l41.9-87.2h0.8l11.5 84.5c0.8 5.4 0.2 7.9-1 8.3-1.3 0.5-2.1 1.1-2.1 2.1 0 1.1 1.2 1.7 5.6 2.1 7.7 0.6 34.2 1.1 39 1.1 2.6 0 5-0.5 5-2.1 0-1.1-1.4-1.3-3.1-1.3-2.5 0-6.4-0.2-11.9-1.9-5.8-1.8-7.7-7.3-9.4-19.4l-17.5-118.7c-0.6-4-1.7-5.9-3.5-5.9-1.7 0-2.6 1.5-4.2 4.6l-52.2 109.6-52.4-108.3c-2.5-5-3.7-5.9-5.2-5.9-1.5 0-2.7 1.7-3.3 5zm267.7 21.9c48.7 0 79.5-34.8 79.5-78.8 0-43.9-29.8-71.8-77.6-71.8-57.6 0-79.3 42.5-79.3 75.3 0 34 22.3 75.3 77.4 75.3zm8-9.6c-36.8 0-58.9-31.7-58.9-71.7 0-47.8 25.1-60.1 47.2-60.1 31.5 0 56.3 26.7 56.3 69.7 0 55.5-31.1 62.1-44.6 62.1zm131 9.6c10.2 0 20.9-1.8 30.5-7.9 13.8-9 18-22.3 18-33.4 0-18.3-8.2-31.5-31.4-49l-5.4-4c-15.9-12.1-20.4-18.8-20.4-27.7 0-11.5 8.7-19.7 22.9-19.7 12.5 0 18 5.7 20.9 9.4 4 5 5 10.9 5 12.6 0 2.3 0.6 3.5 1.9 3.5 1.6 0 2.1-1.5 2.1-5.8 0-14.9 0.8-20.5 0.8-23 0-1.3-1-1.9-2.7-2.3-5-1.4-13-3.3-25.5-3.3-26.7 0-44.4 15.2-44.4 36.3 0 15.6 7.3 29 28.4 45.5l8.9 6.9c15.9 12.5 18.8 21.3 18.8 30.7 0 10.2-8.5 21.9-25.7 21.9-11.9 0-23.3-5.1-27.5-19.4-1-3.2-1.7-7.3-1.7-9.7 0-1.6-0.2-3.3-1.9-3.3-1.6 0-2.2 2.1-2.3 5-0.2 3.1-1 14.6-1 25.1 0 4.3 0.6 5.2 3.6 6.6 8.3 3.6 16.9 5 28.1 5zm211.7 12.6c31.7 18.6 52.3 26.1 81.3 26.1 27.6 0 49.3-8.8 60.8-14.4 1.4-0.5 2.3-1.1 2.3-2.3 0-0.9-0.7-1.7-1.7-1.7-0.8 0-1.7 0.6-2.9 1-13.2 5.1-27.4 6.7-37.4 6.7-13.1 0-38.6-2.1-79.1-22.9l-38.6-19.7c12.1-8.1 33.4-29.4 33.4-63.2 0-44.9-31.9-72.8-77.8-72.8-56.2 0-78.7 43-78.7 74.3 0 34.6 21.9 76.3 78.2 76.3 10.1 0 22.4-2.2 30.1-5zm-53.2-22.3c-30.9 0-58.5-25.4-58.5-71 0-44.6 22.4-60.7 47.6-60.7 26.5 0 55.3 22.3 55.3 68.7 0 56.3-29 63-44.4 63zm106-54.5c0 27.8 7.3 42 17.1 50.8 14 12.7 32.4 13.3 42.6 13.3 12.5 0 26.3-2.1 39.9-13.8 16.2-13.9 18.3-36.5 18.3-57.8v-20.6c0-29.2 0-34.5 0.4-40.7 0.4-6.7 1.9-10 7.1-10.9 2.3-0.4 3.4-0.6 5.5-0.6 2.3 0 3.5-0.4 3.5-1.7 0-1.4-1.3-1.7-4-1.7-7.5 0-19.6 0.5-21.9 0.5-0.2 0-12.3-0.5-22.1-0.5-2.7 0-4 0.3-4 1.7 0 1.3 1.1 1.7 3.2 1.7 2.1 0 5.4 0.2 6.9 0.6 6.4 1.3 7.9 4.4 8.3 10.9 0.4 6.2 0.4 11.5 0.4 40.7v24c0 19.8-0.6 37.1-11.2 47.6-7.6 7.7-18 10.4-26.5 10.4-6.5 0-15.3-0.8-24-7.9-9.4-7.6-14.9-19.4-14.9-47.2v-26.9c0-29.2 0-34.5 0.4-40.7 0.3-6.7 1.9-10 7.1-10.9 2.3-0.4 3.4-0.6 5.5-0.6 1.9 0 3.1-0.4 3.1-1.7 0-1.4-1.3-1.7-4.2-1.7-6.9 0-19 0.5-23.6 0.5-5.8 0-17.9-0.5-28.1-0.5-2.8 0-4.2 0.3-4.2 1.7 0 1.3 1.2 1.7 3.3 1.7 2.7 0 5.9 0.2 7.5 0.6 6.3 1.3 7.8 4.4 8.2 10.9 0.4 6.2 0.4 11.5 0.4 40.7zm171.8 5.8c0 17.7 0 32.8-0.9 40.9-0.8 5.6-1.8 9.8-5.6 10.5-1.7 0.4-4 0.8-6.9 0.8-2.3 0-3.1 0.6-3.1 1.5 0 1.4 1.4 2 3.9 2 3.8 0 8.8-0.4 13.2-0.4 4.6-0.2 8.8-0.2 11-0.2 5.7 0 11.7 0.2 19.9 0.6 8.3 0.2 18.8 0.5 33.2 0.5 7.3 0 9.1 0 10.4-4.9 1-3.9 2.5-16.9 2.5-21.4 0-1.9 0-3.4-1.5-3.4-1.4 0-1.8 0.8-2.1 2.9-1.4 7.8-3.7 11.9-8.7 14.2-5 2.3-13 2.3-18 2.3-19.6 0-22.7-2.9-23.1-16.2-0.2-5.5 0-23.2 0-29.7v-15.2c0-1.1 0.2-1.9 1.2-1.9 4.6 0 23.6 0.2 27.2 0.6 7.1 0.7 9.8 3.6 10.8 7.5 0.6 2.5 0.6 5 0.8 6.9 0 0.9 0.3 1.7 1.7 1.7 1.7 0 1.7-2.1 1.7-3.6 0-1.4 0.6-9.1 0.8-12.9 0.8-9.8 1.5-12.9 1.5-14 0-1.2-0.6-1.6-1.3-1.6-1 0-1.8 1-3.1 2.5-1.7 2-4.6 2.5-9.2 2.9-4.4 0.4-26.5 0.4-30.7 0.4-1.2 0-1.4-0.8-1.4-2.1v-48.6c0-1.3 0.4-1.9 1.4-1.9 3.8 0 24 0.4 27.2 0.8 9.6 1.1 11.6 3.4 12.9 6.9 1 2.3 1.1 5.5 1.1 6.9 0 1.7 0.4 2.7 1.8 2.7 1.3 0 1.7-1.2 1.9-2.1 0.4-2.3 0.8-10.8 1-12.7 0.5-8.8 1.5-11.1 1.5-12.5 0-0.9-0.2-1.7-1.2-1.7-0.9 0-2.1 0.6-3 0.8-1.6 0.3-4.6 0.7-8.3 1.1-3.6 0.2-41.8 0.2-48 0.2-2.7 0-7.1-0.2-12.1-0.4-4.8 0-10.4-0.2-15.5-0.2-2.9 0-4.3 0.4-4.3 1.8 0 1.3 1.2 1.7 3.3 1.7 2.7 0 6 0.2 7.5 0.6 6.3 1.3 7.9 4.4 8.2 10.9 0.4 6.1 0.4 11.5 0.4 40.7z"/>
		<path id="&lt;Path&gt;" class="s0" d="m0 1597.3h2000v17.7h-2000z"/>
	</g>
</svg>