<svg version="1.2" xmlns="http://www.w3.org/2000/svg" viewBox="0 0 563 457" width="563" height="457"><style></style><path fill-rule="evenodd" d="m69.3 387.7c0.3 2.6 2.4 4.1 4.7 4.1h1.1v0.6h-14.3v-0.6h1c1.4 0 2.7-1.4 2.6-2.8l-3-33-13.8 30.7c0 0-1.8 3.9-2.2 6.7h-0.6l-16.8-36.4-2.9 32c-0.1 1.4 1.2 2.8 2.6 2.8h1v0.6h-12.7v-0.6h1c2.4 0 4.5-1.5 4.8-4.1l4.9-42.1h0.7l18.3 39.6 17.9-39.6h0.6zm30.3-42.1h-0.6c0 1.5-2.4 6.8-2.4 6.8l-14.9 35.3c-1.3 2.9-3.7 4.1-5.7 4.1h-0.6v0.7h13.2v-0.7h-0.6c-1.7 0-3.4-1.5-2.5-4l4.4-11.3h17.7l4.2 11.2c0.9 2.6-0.8 4.1-2.5 4.1h-0.6v0.7h14.8v-0.7h-0.6c-2 0-4.4-1.2-5.7-4.1zm-8.9 29l8.3-21 7.9 21zm36.1-28v0.7h0.9c2.1 0 4.1 1.6 4.1 3.7v36.8c0 2.2-1.9 4.1-4.2 4.1h-0.8v0.6h22.2c14 0 23.6-9.1 23.6-22.9 0-13.8-9.6-23-23.6-23zm9.3 2h12.9c11.2 0 18.7 8.4 18.7 21 0 12.6-7.4 20.9-18.7 20.9h-12.9zm56.7 43.2h-0.8c-2.3 0-4.2-1.8-4.2-4.1v-36.4c0-2.3 1.9-4.1 4.2-4.1h0.8v-0.7h-14.3v0.7h0.8c2.3 0 4.2 1.8 4.2 4.1v36.4c0 2.3-1.9 4.1-4.2 4.1h-0.8v0.7h14.3zm42.6-45.2v0.6h1.2c2.2 0 4 1.8 4.1 4v32.5l-35.8-38.1h-0.6c0 0 0.6 3.7 0.6 8.2v34.1c0 2.2-1.8 4-4 4h-1.3v0.6h13.5v-0.6h-1.2c-2.2 0-3.9-1.8-4-4v-32.6l35.8 38.1h0.6c0 0-0.6-4.1-0.6-8.3v-33.9c0-2.2 1.8-4 4-4h1.2v-0.6zm39-0.9h-0.6c0 1.4-2.4 6.7-2.4 6.7l-14.9 35.3c-1.3 2.9-3.7 4.2-5.7 4.2h-0.6v0.6h13.2v-0.6h-0.6c-1.7 0-3.4-1.5-2.5-4.1l4.4-11.2h17.7l4.2 11.1c0.9 2.7-0.8 4.2-2.5 4.2h-0.6v0.6h14.8v-0.6h-0.6c-2 0-4.4-1.3-5.7-4.2zm-8.9 28.8l8.3-21 7.9 21zm97.8-28.9h-0.6l-17.9 39.6-18.4-39.6h-0.6l-4.9 42.1c-0.3 2.6-2.4 4.1-4.8 4.1h-1v0.7h12.7v-0.7h-1c-1.5 0-2.7-1.3-2.6-2.8l2.9-32 16.8 36.4h0.6c0.4-2.7 2.2-6.7 2.2-6.7l13.8-30.7 3 33c0.1 1.5-1.2 2.8-2.6 2.8h-1v0.7h14.3v-0.7h-1.1c-2.3 0-4.4-1.5-4.8-4.1zm35.4 0.1h-0.6c0 1.4-2.5 6.7-2.5 6.7l-14.8 35.3c-1.4 2.9-3.8 4.1-5.8 4.1h-0.6v0.7h13.2v-0.7h-0.6c-1.6 0-3.4-1.4-2.5-4l4.4-11.2h17.7l4.2 11.1c1 2.7-0.8 4.1-2.5 4.1h-0.6v0.7h14.8v-0.7h-0.5c-2.1 0-4.5-1.2-5.8-4.1zm-9 28.8l8.2-21 7.9 21zm43.2-13.3c-2-1.9-2.6-4.4-2.6-6.1 0-4 3.2-7.5 8.1-7.5 4 0 7.3 2.5 7.3 6.7h0.7v-8h-2.6c-1.8-0.4-3.9-0.7-5.7-0.7-7.4 0-11.5 5.6-11.5 11.1 0 2.5 0.9 5.7 3.6 8.1l12.5 11.7c1.7 1.5 2.6 3.5 2.6 6.1 0 5.3-4 8.5-8.8 8.8-5.8 0.3-10.1-4-9.4-10.8h-0.6c-1 3-1.3 7.2-0.8 9.2 2.6 2.7 7.9 3.6 11.1 3.6 7.6 0 12.3-5 12.3-12.3 0-2.6-0.7-5.6-3.3-8zm23.9-14.7v0.6h0.8c2.3 0 4.2 1.9 4.2 4.2v40.9c0 5.7-3.3 11.2-7.6 12.8v0.5c6.7 0 11.9-5.7 11.9-13.1v-41.1c0.1-2.3 1.9-4.2 4.2-4.2h0.9v-0.6zm35.6 45.3h-0.8c-2.3 0-4.2-1.9-4.2-4.1v-36.5c0.1-2.2 1.9-4 4.2-4h0.8v-0.7h-14.3v0.7h0.8c2.3 0 4.2 1.8 4.2 4.1v36.4c0 2.2-1.9 4.1-4.2 4.1h-0.8v0.6h14.3zm7.9-45.3v0.6h0.8c2.2 0 4.2 1.6 4.2 3.8v36.7c-0.1 2.3-1.9 4.1-4.2 4.1h-0.8l-0.1 0.7h22.3c14 0 23.5-9.2 23.5-23 0-13.8-9.5-22.9-23.5-22.9zm9.3 1.9h12.9c11.2 0 18.6 8.4 18.6 21 0 12.6-7.4 21-18.6 21h-12.9zm-77.9-18.9v-76.2h5v-15.1h-5v-86.2h5v-15.2h-5v-38.2h3v-7.2c18.2-20-6.1-34-18.1-48.3q0.4-0.8 0.4-1.8v-3.2c0-1.4-0.8-2.6-2-3.4 0.8-0.4 1.3-1 1.3-1.7 0-0.9-0.8-1.7-1.9-2.1l-0.4-5c0.5-0.2 0.9-0.7 0.9-1.1 0-0.5-0.4-1-1.1-1.3l-0.2-3-1.1-15.5-1.1 15.5-0.3 3c-0.6 0.3-1 0.8-1 1.3 0 0.4 0.3 0.9 0.9 1.1l-0.4 5.2c-0.9 0.4-1.5 1.1-1.5 1.9 0 0.6 0.4 1.2 1 1.6-1.3 0.7-2.2 2-2.2 3.5v3.2q0.1 1 0.5 1.8c-12.3 14.6-37.4 27.1-18.1 48.3h-0.1v7.2h3v38.2h-6.8v15.2h6.8v86.2h-6.8v15.1h6.8v76.2h-50.5v-35.3h6.3v-13.1h-4.1c14.4-14.1 21.2-27 22.5-39.1v-9.1c-4.7-40.4-69-71.1-102.6-106v-5.7c0-3.5-2-6.6-5.1-8.5 2-1 3.3-2.6 3.3-4.3 0-2.2-2-4.2-5-5.1l-0.9-12.4c1.4-0.7 2.2-1.8 2.2-2.9 0-1.3-1-2.5-2.6-3.1l-0.6-7.6-2.9-38.8-2.9 38.8-0.6 7.6c-1.6 0.6-2.7 1.8-2.7 3.1 0 1.1 0.9 2.2 2.3 2.8l-1 12.9c-2.4 1-3.9 2.7-3.9 4.7 0 1.5 1 3 2.8 4-3.4 1.8-5.6 5.1-5.6 8.8v5.1c-45.5 47.8-149.5 87.6-80.7 154.8h-4.2v13.1h4.4v35.3h-155.1l-0.5 4.8h550.8v-4.8zm-10.4-91.3h-17.5v-18.8c-0.2-4.1 6.6-7 8.7-10.7 2.2 3.7 9 6.6 8.8 10.7zm-95.7 90.3h-27.2v-21c-0.3-5 10.3-8.5 13.6-12.9 3.3 4.4 13.9 7.9 13.6 12.9zm-40-0.1h-27.2v-20.9c-0.3-5 10.3-8.6 13.6-13 3.3 4.4 13.9 8 13.6 13zm-40 0.1h-27.2v-21c-0.3-5 10.3-8.5 13.6-12.9 3.3 4.4 13.9 7.9 13.6 12.9zm-40-0.1h-27.2v-20.9c-0.3-5 10.3-8.6 13.6-13 3.3 4.4 13.9 8 13.6 13zm215.7-191.6h-17.5v-18.8c-0.2-4.1 6.6-7 8.7-10.7 2.2 3.7 9 6.6 8.8 10.7zm-306 293.8c1-1.7 1.4-3.4 1.5-4.6h-2.1c-0.2 1.3-0.3 1.7-0.7 2.8l-3.3-3.9c1.4-0.9 3.2-2.2 3.2-4.7 0-1.8-1.2-3.7-4-3.7-2.7 0-4.2 2-4.2 4 0 1.6 0.6 2.4 1.9 4-3.3 1.9-4 3.2-4 5.6 0 1.4 0.7 4.7 5.2 4.7 2.6 0 4-1 5.2-2.4l1.7 2h2.8zm-2.4 0.3c-1 1.3-2.3 1.9-3.9 1.9-1 0-3.2-0.7-3.2-2.9 0-1.9 1.1-2.8 3-4zm-3.1-7.5c-1.1 0-2-1.2-2-2.6 0-1.4 0.9-2.5 2-2.5 1.1 0 2 1.1 2 2.5 0 1.4-0.9 2.6-2 2.6zm34.3 10.9h2.4v-17.9h-2.4zm27.5-12.7c-0.1-1.9-0.7-5.7-7-5.7-4.3 0-6.1 2.8-6.1 5.6 0 3.1 2.6 3.9 3.8 4.2l3.7 0.8c2.9 0.7 3.8 1.3 3.8 3.2 0 2.6-3 3-4.7 3-2.3 0-4.9-0.9-4.9-4.2h-2.3c0 1.7 0.3 3.2 1.8 4.6 0.8 0.7 2.1 1.7 5.4 1.7 3.1 0 7-1.2 7-5.4 0-2.9-1.7-4.3-4-4.8l-5.1-1.2c-1.1-0.2-2.2-0.7-2.2-2.3 0-2.7 2.6-3.1 4.1-3.1 2 0 4.3 0.9 4.5 3.6zm14-5.2h-2.4v17.9h11.5v-2.1h-9.1zm29.4 12.7l1.8 5.3h2.6l-6.5-17.9h-2.7l-6.8 17.9h2.5l1.9-5.3zm-6.5-2.1l2.9-7.9h0.1l2.6 7.9zm38.1 7.4v-17.9h-3.4l-5.1 15.1-5.1-15.1h-3.5v17.9h2.3c0-0.5 0-13.4 0-15.1l5.1 15.1h2.4l5-15.1c0 1.7 0 14.6 0 15.1zm12.1 0h2.4v-17.9h-2.4zm29.4-12.6c-0.4-3-2.8-5.8-7.4-5.8-5.2 0-8.3 3.8-8.3 9.3 0 6.9 3.9 9.5 8 9.5 1.4 0 6.9-0.3 7.8-7h-2.3c-0.8 4.1-3.5 4.9-5.1 4.9-4.5 0-5.9-3.3-5.9-7.5 0-4.7 2.6-7.1 5.8-7.1 1.7 0 4.4 0.6 5 3.7zm40.7 0c-0.3-3-2.7-5.8-7.4-5.8-5.2 0-8.3 3.8-8.3 9.3 0 6.9 4 9.5 8.1 9.5 1.3 0 6.8-0.3 7.8-7h-2.4c-0.8 4.1-3.5 4.9-5.1 4.9-4.4 0-5.9-3.3-5.9-7.5 0-4.7 2.6-7.1 5.8-7.1 1.8 0 4.4 0.6 5.1 3.7zm24.5 10.4h-10.8v-6h9.8v-2.1h-9.8v-5.5h10.7v-2.1h-13.1v17.9h13.2zm23-1.2h-0.1l-8.9-14.5h-2.9v17.9h2.4v-14.4l9.1 14.4h2.7v-17.9h-2.3zm12.5-12.4h6.1v15.8h2.4v-15.8h6v-2.1h-14.5zm27.4 8.1h5.9c2.9 0 3.2 1.8 3.2 3.2 0 0.7 0 3.4 0.4 4.5h3v-0.4c-0.8-0.4-0.9-0.8-0.9-1.8l-0.2-3.2c-0.1-2.5-1.1-3-2.1-3.4 1.1-0.7 2.5-1.6 2.5-4.3 0-3.8-3-4.8-5.9-4.8h-8.3v17.9h2.4zm0-8.1h6.1c1.1 0 3.2 0.2 3.2 3 0 2.6-1.9 3.1-3.7 3.1h-5.6zm36.7 13.7h-10.8v-6h9.8v-2.1h-9.8v-5.5h10.6v-2.1h-13v17.8h13.2zm-448.7 20.3h554.4v-4.8h-554.4zm2110.6 645.3h469.8v-283h-469.8z"/></svg>