<svg version="1.2" xmlns="http://www.w3.org/2000/svg" viewBox="0 0 1920 535" width="1920" height="535">
	<title>eid-banner</title>
	<defs>
		<filter x="-50%" y="-50%" width="200%" height="200%" id="f1" ><feDropShadow dx="0" dy="0" stdDeviation="22.083333333333336" flood-color="#000000" flood-opacity=".3"/></filter>
		<filter x="-50%" y="-50%" width="200%" height="200%" id="f2" ><feDropShadow dx="0" dy="0" stdDeviation="0.4166666666666667" flood-color="#00b9ff" flood-opacity="2"/></filter>
	</defs>
	<style>
		.s0 { fill: #001b44 } 
		.s1 { fill: #0a244b } 
		.s2 { filter: url(#f1);fill: #ffffff } 
		.s3 { fill: #ffffff } 
		.s4 { filter: url(#f2);fill: #ffffff } 
	</style>
	<path id="Layer" class="s0" d="m0 150c0-82.8 67.2-150 150-150h1620c82.8 0 150 67.2 150 150v385h-1920z"/>
	<g id="Folder 1">
		<g id="bg">
			<path id="bg" fill-rule="evenodd" class="s1" d="m1920 932.5v37.5c-34.8-29.1-63.3-63.7-86.9-102.3-20.6-33.6-36.3-69.2-41.3-108.6-5.3-41.4 2.5-79.6 28.9-112.9 1.2-1.6 2.2-3.4 4-6.2-54.3-0.6-96.1-24.4-129.8-64.9-2.1 2.6-3.7 4.5-5.1 6.5-13.9 19.3-25.4 40-35.1 61.7-12.5 28.4-22.5 57.5-27.9 88.1-0.8 4.5-0.4 7.6 3.4 10.6 30.1 24.3 55 53.5 76.8 85.3 23.8 34.8 42.7 72 50.8 113.8 6.7 34.3 4.9 67.7-10.3 99.8-2.6 5.3-5.9 9.5-11.5 11.6-8.5 3.1-16.8 6.9-25.5 9.3-31 8.5-62 6.2-92.4-2.9-71.8-21.7-129.6-64.5-178.6-120.1-5-5.7-9.4-8.5-16.6-6.2-1.2 0.4-2.4 0.5-3.6 0.8-42.3 8.8-81.9 24.5-119.1 46.1-10.4 6-20.2 13.2-31.1 20.4 20.5 16.7 36.4 35.3 48.1 57.4 11.8 22.5 17 46.6 17.5 72.9 3.3-2.2 5.4-3.5 7.3-5 25.6-19.8 54.8-29.3 87-29.6 26-0.2 50.8 5.2 75 14.2 50.8 19.1 94.4 49.4 133.4 86.6 9.9 9.4 18.5 20.2 27.8 30.3h-39.4c-1.3-2-2.2-4.3-3.8-5.9-32.1-31.3-67.8-57.5-108.6-76.5-2.7-1.2-5.5-2.1-8.5-3.2-0.5 1.6-0.9 2.5-1 3.4-5 28.7-15.7 54.9-33.5 78.1-0.9 1.2-1.3 2.7-2 4.1h-39.3c1.5-2.1 2.8-4.6 4.7-6.4 23.4-21.3 36.1-48.2 41.8-78.8 0.6-3.3 0.6-6.7 0.9-10.5-11.7-3.7-23-5.6-34.5-6.6-31.4-2.5-60 4.8-84.8 25.1-17.7 14.5-30.7 32.8-40.8 53.1-2.1 4-4.4 7.3-8.5 9.5-5.6 3.2-9 8.1-10 14.6h-15c1.5-5 3.1-10.1 4.4-15.2 0.6-2.3 1.4-4.9 0.9-7.2-1.3-5.8 0.5-10.7 2.9-16 23.1-51.1 19.9-99.3-16.2-143.6-7.9-9.6-16.7-18.4-27.9-25.1-14 13.4-25.2 28.1-33.4 45.1-11.9 24.5-14.5 50-8.2 76.5 4.5 19.1 13 36.3 23.2 52.8 2.1 3.3 3.3 7.3 4.6 11 1.2 3.8 1.7 7.7 2.9 11.4 1 3.5 2.4 6.9 3.7 10.3h-16.9c-0.5-4.1-2.9-6.6-6.9-7.6-5-1.2-8-4.6-10.7-8.6-2.3-3.3-4.7-6.6-7.2-9.7-36.2-44.7-82.3-60.7-138.2-47-8.1 1.9-15.8 5.2-24 8 4.8 21 12.8 39 24.5 55.5 2 2.9 3.4 6.3 5.1 9.4h-33.7c-8-14.5-15.4-29.2-20.2-45.1-0.8-2.8-2-4.7-5.1-6-15.3-6-30.4-12.4-45.5-18.7-14.7 6.1-29.8 12.7-45.1 18.6-4 1.6-4.7 4.5-6 7.6q-6.8 16.4-13.7 32.7c-1.6 3.6-3.3 7.3-4.9 10.9h-35.6c1.4-2.3 2.7-4.9 4.3-7.1 11.6-15.4 19.5-32.6 24.7-51.1 0.5-2 0.6-4.1 0.8-6-39.7-19.7-98.8-21.5-142.2 18.2-9.6 8.7-17.6 19.3-26 29.3-3.3 3.9-6.3 7.4-11.2 9.4-3.1 1.2-5.3 4.8-7.8 7.3h-16.9c3.2-8.3 8.8-15.7 8.2-25.4-0.1-2.1 2.1-4.4 3.3-6.5 4.1-7.4 8.7-14.5 12.4-22 10.3-21.1 16.3-43.2 14.5-66.9-2.7-34.2-19.5-61.2-43.2-84.7-0.6-0.6-1.6-0.7-2.8-1.2-19.6 14.2-34.9 31.9-45.3 53.7-18 38-14.9 75.7 1.9 113.1 2.8 6.1 5.2 11.8 3.3 18.7-0.5 1.8 0.5 4.2 1.2 6.3 1.6 5 3.5 9.9 5.3 14.9h-15c-2.6-6.4-5.8-12.1-12.4-15.7-2.7-1.5-4.8-4.7-6.3-7.6-7.3-13.9-15.6-27-25.9-38.8-24.6-28-55.6-41.6-92.8-40.6-14.2 0.4-28.4 2.3-41.8 7.1-0.2 1.6-0.5 2.5-0.4 3.4 4.4 32.5 16.8 61.1 40.9 84 2.7 2.6 5 5.5 7.5 8.2h-41.2c-0.9-2.1-1.5-4.6-2.9-6.5-16-21.7-26.1-46-31-72.5-0.4-2.1-1.1-4.1-1.8-6.7-3.7 1.5-6.8 2.6-9.9 4-40.1 19.1-75.5 44.9-107.2 76-1.7 1.7-3.1 3.8-4.6 5.7h-37.5c2.3-3.3 4.2-6.9 6.9-9.9 27.1-30.1 58.1-55.6 92.6-76.9 35.9-22.2 74-39 116.6-43.4 38.8-4 74.4 4.4 105.8 28.4 2.1 1.7 4.3 3.1 7.7 5.5 0.3-54.7 24.5-96.5 64.9-130.3-2.5-2-4-3.1-5.4-4.2-24.7-17.9-51.5-31.8-79.7-43-23.3-9.2-47.1-16.6-71.8-20.9-4.6-0.8-7.5 0.4-10.4 4-29 35.4-64 63.9-102.7 87.8-29.2 18-60.1 32-93.8 39-30.9 6.3-61.3 5.3-91.4-5.3-14.3-5-22.4-13.8-27.4-27.8-12.1-33.7-11.9-67.6-2.5-101.4 20.6-73.7 64.1-132.6 120.4-182.7 6.5-5.7 8.7-10.5 7-19-9-42.9-24.8-83.1-46.5-120.9-6-10.5-13.3-20.2-19.7-29.8-12.9 11.7-24.7 23.2-37.5 33.5-13.2 10.6-28.6 17.7-44.7 23.1-15.6 5.3-31.9 6.5-49 8 1.6 2.2 2.2 3.3 3 4.2 12.9 16 22.1 33.9 27.1 53.9 8.4 32.9 5.2 65.3-5.1 97-21.8 67.4-62.6 122.3-114.4 169.6-1.6 1.5-3.9 2.3-6 3.5-0.7-1.4-1.2-2-1.2-2.5-0.1-7.5 0.2-15.1-0.3-22.5-0.6-7.2 2.1-12.1 7.1-17.2 30.1-30.8 55.2-65.2 74-104.1 1.8-3.9 3.3-7.8 5.1-12.3-3-0.7-4.8-1.1-6.6-1.5-26.7-5-51.3-15.2-73.3-31.5-4.5-3.2-6.6-6.8-6.3-12.4 0.4-7.8 0-15.6 0.1-23.4 0.1-2 0.6-4 1.3-8 25.7 29.6 57 44.8 94.1 48.9 0.8-1.9 1.5-3 1.8-4.1 1.4-6.4 3-12.8 4-19.3 5.3-36.2-0.9-69.6-25.3-98.3-13-15.2-28.8-26.8-46.2-36.2-6.6-3.5-13.4-6.4-16.7-14-1-2.2-4.3-3.5-6.6-5-7.4-5.1-7.8-6.5-4.7-16.7 1.1 0.3 2.4 0.3 3.5 0.7 7.7 2.5 15.2 5.4 23.7 4 2.7-0.4 5.9 1.4 8.7 2.6 51.3 23.6 99.9 20.8 144.7-15.7 9.6-7.8 18.3-16.7 25.1-27.8-11.7-12.5-24.6-22.5-39.2-30.5-25.7-14.1-52.8-18.2-81.5-11.5-19.4 4.6-36.9 13.1-53.7 23.6-3.4 2-7.3 3.3-11.1 4.5-4 1.3-8.3 2-12.3 3.3-2.8 0.9-5.4 2.4-8.9 3.9-1-8.2-2.3-15 4.6-19.9 0.9-0.7 1.9-1.9 2.1-3 1.2-6.9 6.5-10.3 11.6-14 14.1-9.9 26.7-21.6 36.4-36 27.6-40.4 28.6-83.2 11.1-127.6-0.5-1.1-1.4-2-2.4-3.6-11.5 1.9-22.2 6-32.4 11.3-10.4 5.3-20.2 11.7-31.7 18.4 0-9.6 0.3-17.9-0.1-26.2-0.3-5.9 2-9.4 7.2-11.6 12.3-5.3 24.6-10.6 36.8-16.1 2.6-1.2 6-2.8 7-5.1 6.8-15.4 13-31 19.2-46.2-5.8-13.7-12.1-27.6-17.5-41.9-2-5.3-4.9-7.6-10-9.6-12.4-4.9-24.6-10.6-36.7-16.3-2.3-1-5.2-3.6-5.4-5.7-0.9-10-0.8-20.2-0.1-32.5 20.4 15.8 40.9 26.3 64.3 31.2 11.7-25.8 15.8-51.7 11.9-78.5-5.1-36-24.5-63.5-52.7-85.4-6.8-5.3-15.3-9-17.2-18.8-0.1-0.8-1.1-1.5-1.8-2.1-6.6-5.1-5.6-11.5-3.5-19.1 3.9 1.7 7.2 3.3 10.6 4.6 2.6 0.9 5.3 1.4 7.9 2.2 4.1 1.2 8.4 2 12.2 4 7.8 3.9 15 8.9 22.9 12.7 22.9 11 46.8 17 72.5 13.5 29.7-4.1 53.7-19 75.1-39.1 1.7-1.7 3.1-3.7 4.8-5.6-14.4-20.2-32.2-35.7-54.1-46-38.9-18.4-77.5-14.7-115.7 3-3 1.4-6.6 3.2-9.6 2.7-7.6-1.4-14.1 1.2-20.9 3.4-1.9 0.6-4 0.7-7.6 1.4 0.9-5.3 0.1-11.2 2.5-13.1 6.3-5.1 12.6-10 17-17 1-1.5 3.7-2 5.7-3 19.2-10 36.9-22.2 51.1-38.9 24.6-28.9 30.8-62.6 25.2-99.2-1.2-7.5-1.8-15.4-6-22.5-33.6 4-62.8 16.5-86.3 41-2.2 2.2-3.8 5.7-8.7 5.8 0-9.7 0.4-19-0.2-28.3-0.3-6.4 2.1-10.3 7.1-14 21.8-15.9 46.1-25.9 72.6-31 1.9-0.4 3.9-1.1 6.7-1.9-2.1-4.7-3.8-8.7-5.6-12.5-17.4-36.1-40-68.6-67.9-97.1-9.6-9.7-14.7-19.4-12.8-32.8 0.7-5 0.4-10.2 0.6-15.7 2.2 0.6 3.2 0.6 3.8 1.1q3.1 2.2 5.9 4.7c34.2 31.2 62.8 66.9 85.5 107.2 18.3 32.7 31.8 67.1 35.1 104.9 3.3 37.9-5.3 72.5-28.6 103-1.7 2.2-3.1 4.4-5.5 7.7 26.2 0.6 50.1 5.7 72.3 17.2 22.5 11.7 41.2 27.9 57.6 47.7 1.8-2.1 3.2-3.7 4.5-5.4 19.6-26.9 34.3-56.5 46-87.6 7.5-19.9 13.5-40.2 17.4-61.1 1-4.9 1.4-9.2-3.6-13.3-35-28.4-63.2-62.9-86.8-101.1-22.3-35.9-38.9-74.1-43.1-116.7-2.8-28 1.1-54.8 13.1-80.3 2.7-5.7 6.3-10 12.3-12.1 10.9-3.7 21.6-8.4 32.8-10.8 30.6-6.8 61-3.2 90.5 6.5 67.9 22.2 123.5 63 170.5 116.1 7.1 8 13 9.8 23 7.6 41.8-9.2 81.1-24.7 118.1-46 10.4-6 20.1-13.2 31.2-20.6-20.7-16.8-36.8-35.6-48.4-58.1-11.7-22.3-16.7-46.4-17.3-72.5-4.4 3.3-7.4 5.6-10.4 7.8-15.5 11.4-32.7 19.2-51.6 23.5-32.6 7.3-64.7 3.7-95.9-6.8-66.3-22.1-120.3-62.4-167-113.4-1.3-1.4-1.9-3.4-3.4-6.2 10.1 0 18.8 0.2 27.5-0.1 6-0.3 10.4 1.7 14.8 6 28.1 27.5 59.2 50.8 94.1 68.9 6.9 3.5 14 6.7 20.8 9.9 0.9-1.2 1.5-1.6 1.6-2.1 0.5-2.2 1-4.3 1.4-6.4 5.1-25.5 14.7-49 30.3-69.9 1.7-2.4 4.3-5.6 6.7-5.8 11.6-1 23.3-0.7 35.3 0.5-27.5 25.6-42.2 56.7-46.3 94.7 12.8 2 24.4 4.6 36.1 5.6 31.1 2.4 59.4-5.2 83.9-25.3 16.1-13.3 28.3-29.8 38.1-48.1 3.4-6.4 6.1-13 13.5-15.9 1.8-0.7 2.9-3.2 4.1-5 5.6-8 6.1-8.2 17.5-5.7-0.3 1.5-0.3 3-0.8 4.4-2.4 6.8-4.8 13.3-3.3 20.8 0.6 3-1.4 6.6-2.8 9.6-23.3 51-20.9 99.3 15.1 144.1 8 9.9 17.1 18.8 28.5 26 14.3-13.9 25.9-29.1 34.2-46.8 8.8-18.8 12.3-38.5 10.1-59.3-2.3-22.2-10.5-42.2-21.6-61.3-4.2-7.1-10.4-13.5-8.9-23 0.2-1.5-1.3-3.4-2.1-5.1-1.3-3.1-2.7-6.2-4.3-9.9 7.7-1 14.7-2.9 20.2 4.1 0.8 1 2.9 1 4.1 1.9 3.2 2.3 6.6 4.6 9.3 7.5 2.9 3.1 5.1 7 7.8 10.4 34.6 44.4 85.2 61.5 139.3 47 7.7-2.1 15.1-5.2 23.1-8-5.5-23.6-15.4-43.8-30.8-63.7 10.9 0 19.5 0.2 28-0.1 5.5-0.3 8.9 1.8 11 6.7 5.1 12.1 10.3 24.1 15.5 36.1 1.2 2.7 1.5 5.7 5.1 7.2 15.7 6.1 31.1 12.7 46 18.8 14.9-6.2 29.7-12.6 44.8-18.4 3.9-1.5 4.9-4.2 6.2-7.4 5.2-12.3 10.7-24.5 15.9-36.9 2-4.7 5.3-6.3 10.3-6.1 6.9 0.3 13.7 0 20.6 0.1 1.9 0.1 3.9 0.7 6.7 1.3-14.7 19.1-24.6 39.2-29.5 62.2 26.9 11.8 53.9 16.1 82 11.3 33.7-5.9 59.7-24.3 80.6-50.6 5.9-7.5 10-16.9 20.7-19.1 5.3-7.2 12.4-5.3 20.5-4.3-1.8 3.9-3.4 7.2-4.9 10.6-0.7 1.6-2.3 3.6-2 5.1 1.6 7.7-3 13-6.4 18.9-3.5 5.9-7 11.9-10 18-12.6 26-18.3 53.1-12 81.8 5.6 25.8 19.5 47.1 37.4 65.9 1.7 1.8 3.7 3.1 5.8 4.9 20.4-14.6 35.9-32.6 46.2-54.8 18.1-38.8 14.1-77.1-3.3-114.9-1.7-3.8-2.2-8.3-2.9-12.5-0.6-3.8-0.5-7.9-1.2-11.7-0.7-3.6-2.2-7.1-3.7-11.8 5.8 0.4 11.5-2.9 15.3 2.5 3.8 5.5 7.8 10.3 13.7 13.7 1.9 1.1 2.9 3.9 4 6 7.4 14.6 16.2 28.1 27.2 40.3 25.6 28.2 57.6 40.8 95.4 38.7 12.7-0.7 25.3-2.4 38.2-7.2-3.7-37.1-19.1-68-46.3-93.5 10.3-0.8 20-0.5 29.6-1 6-0.3 9.8 2 13.2 6.8 14.3 20.2 24 42.3 29.1 66.5 0.8 3.8 1.7 7.5 2.6 11.8 4.9-2.1 9-3.7 12.9-5.6 35.1-17 67-38.9 94.9-66 10.6-10.3 21.2-15.3 35.5-13.4 4.7 0.6 9.5 0.4 16 0.6-3.3 4-5.1 6.4-7.1 8.7-27.4 30.3-58.8 56-93.5 77.3-35.2 21.6-72.5 38-114 42.5-39.5 4.3-75.7-3.9-107.6-28.5-1.9-1.5-4-2.8-7.4-5.1-0.3 54.6-24.5 96.4-64.9 130.2 21.8 16.5 44.2 29.3 67.9 39.8 28.7 12.8 58.1 22.9 89 28.2 4.7 0.8 7.5-0.3 10.4-3.9 25-30.8 55-56.1 87.8-78.3 28.8-19.5 59.6-35.3 93.3-44.7 31.8-8.9 64.1-12 96-1.8 32.7 10.5 30.8 8.9 41.2 40.9 10.1 31.6 7.9 63.7-1.4 95.1-21.6 72.9-65 131.5-121.6 181-4.8 4.2-6.5 7.7-5.3 14.2 8.9 45.2 25.5 87.4 48.9 126.9 5.5 9.3 12 18.1 17.7 26.7 12.9-11.6 24.7-23.1 37.5-33.4 13.2-10.6 28.3-18.6 44.7-22.9 15.7-4.1 31.9-6.4 48.2-9.5-1.3-1.8-2.6-3.5-3.9-5.2-19.7-25.3-29.3-54-29.8-86-0.4-26.6 4.8-52.2 14.4-76.9 24.6-63.3 64.2-115.9 115.3-160.2v37.5q-5.4 5.8-10.8 11.6c-27.5 29.6-51 62-68.5 98.6-1.8 3.9-3.4 7.8-5.4 12.4 31.9 5.5 60.3 16.5 84.7 36.7v39.3c-0.5-0.3-1.2-0.4-1.5-0.9-19.9-24.2-45.8-38-75.9-44.7-5.4-1.2-10.9-1.8-17.5-2.8-2 10.6-4.4 20.3-5.5 30.1-3.7 33.3 3.2 63.9 25 90.3 14.6 17.6 32.9 30.3 53 40.8 3 1.5 6.3 3.5 7.8 6.2 3.4 6.1 8.6 9.5 14.6 12.2v15c-8.7-3.1-17.1-7.3-27-5.5-2.7 0.4-6-1.3-8.7-2.5-51.3-23.7-99.7-21-144.5 15.2-9.9 8-18.8 17-25.3 27.9 9.9 11.5 23.6 22.4 38.4 30.5 25.9 14.3 53.2 18.5 82.2 11.7 19.3-4.5 36.8-13.1 53.6-23.5 3.1-1.9 6.7-4.5 10.1-4.3 8.5 0.3 14.7-4.1 21.2-8.3v16.9c-2.2 3.3-4.4 6.6-6.7 9.8-2 2.7-3.9 5.6-6.3 7.8-3.5 3.1-7.6 5.5-11.2 8.4-48.3 37.5-64.7 95.9-42.9 153 1.2 3.1 2.8 6 4.3 9.4 23.8-5.8 44.8-15.4 62.8-31v35.6c-10.6 5.2-20.8 11.9-32 15.2-12.4 3.6-18.9 10.1-22.4 22.5-3.4 11.5-9.8 22.1-14.3 31.8 6.5 15.8 12.9 30.7 18.8 45.8 1.5 3.9 4.1 5.1 7.4 6.1 15 4.5 28.9 11.4 42.5 19.2v35.6c-18.4-15.6-39.3-25.6-63.5-31-19.1 48.1-18.6 93 12.3 135.1 9.8 13.5 22.3 24.3 35.8 34.1 3.4 2.5 6 6.1 8.6 9.4 2.5 3.1 4.6 6.5 6.8 9.8v16.9c-5.2-2.7-10.4-7.4-15.7-7.6-7.8-0.3-13.6-3.7-19.7-7.3-6-3.4-11.9-6.9-18-9.9-35.9-17.2-72.2-20.5-108.8-2.1-16.6 8.3-31 19.4-43.8 33.1 16.6 22.8 36.9 39.8 62.5 49.8 36.5 14.3 72.1 9.7 107-6.2 3.1-1.4 6.6-3.5 9.5-3 9.9 1.6 18.3-2.3 27-5.6v15c-5.9 2.8-11.2 6.1-14.6 12.3-1.5 2.7-4.8 4.7-7.7 6.2-15.6 8.1-30.1 17.7-43 29.8-35.7 33.6-44.4 83.2-28.6 130.3 10.6 0.4 25.7-3.1 40.7-9 21-8.3 38.4-21.6 53.2-38.4v39.3c-24.4 20.5-53.2 31.2-84.7 36.9 2.1 4.9 3.7 8.6 5.4 12.2 9.7 20.6 21.2 40.4 35.3 58.3 14 17.8 29.3 34.6 44 51.9zm-875.6 78.6c10.6 18.1 17.1 35.8 20.2 54.8 3 19.1 1.6 38.2-0.8 57.8 20.3-3.5 39.2-4.1 58.2-1.1 18.8 3.1 36.3 10 53.6 19.7 0-2.5 0.2-3.4 0-4.3-6.2-37.9 2-72.5 22.9-104.4 18.7-28.5 43.6-50.5 71.8-68.9 39.8-26 83.1-44.3 129.1-56 10.2-2.6 20.7-4.4 31.3-6.6 17.5-45.5 23.8-92.9 24.7-141.6 49.2-0.4 96.4-7.2 141.6-24.5 1.4-7.2 2.4-13.7 3.8-20.1 11.2-50.8 31-98.1 59.4-141.7 14.3-22 31.3-42 52-58.6 34.6-27.9 73.4-41.9 118.3-35 1.6 0.2 3.3-0.1 6.3-0.3-20.8-35.2-25.4-72.2-18.6-111.8-39.9 7.4-76.7 1.8-112.2-18.4 0.5 4.7 0.6 7.8 1 10.8 2.2 15.3 1.4 30.5-1.7 45.6-7.3 34.6-26.1 62.5-50.9 86.8-17.9 17.5-38 32.2-59.9 44.6-41.7 23.9-85.9 41.4-133.4 49.9-7.1 1.3-11.2 3.9-13.6 11.3-13 39.1-19.8 79.3-20.6 120.4-0.1 4-0.2 7.9-0.3 12-2.6 0.2-4.1 0.4-5.7 0.5-21.7 1.8-43.5 3-65.2 5.7-22.3 2.9-44 8.7-65.2 16.4-4.4 1.6-6.6 3.9-7.2 8.5-0.9 6.2-2.1 12.3-3.5 18.4-11.3 48.8-30.6 94.3-57.8 136.4-14.1 21.8-30.9 41.5-51.1 58.2-31.5 26-67.1 40.5-108.7 37.4-5.2-0.4-10.4-1.1-17.8-1.9zm-959.6-530c4.5-0.4 7-0.6 9.4-0.9 16.3-2.2 32.4-1.8 48.4 1.7 31.5 6.9 57.6 23.4 80.5 45.4 23.9 22.9 42.5 49.8 57.8 79 19.8 37.8 34.8 77.4 42.2 119.6 1.3 7.4 3.9 11.3 11.2 13.7 39.1 12.9 79.2 19.7 120.4 20.6 3.9 0.1 7.9 0 12.7 0 0 5.5 0 9.8 0.1 14.1 0.7 39.3 7.1 77.7 19.2 115.1 4.3 13 4.4 12.9 18.4 15.4 1.2 0.2 2.4 0.5 3.6 0.8 49.6 10.5 95.9 29.4 138.9 56.3 26.1 16.4 49.5 36 68.2 60.7 25.2 33.2 37.5 70.1 31.3 112.2-0.3 1.9-0.1 4-0.1 7.4 35.3-20.9 72.3-25.3 111.8-18.6-7.2-40-1.8-77 18.7-112.4-4.1 0.4-6.5 0.9-8.9 0.9-13.1 0.1-26.3 1.2-39.2-0.3-29.4-3.4-54.6-16.9-77.2-35.5-32.9-27.1-56.3-61.5-75.1-99.3-18.2-36.4-31.8-74.6-38.4-114.9-0.7-4.5-2.7-6.6-6.7-7.8-3.5-1.1-7-2.6-10.6-3.7-37.1-11.8-75.2-17.7-114.1-18.6-3.7 0-7.3 0-11.8 0 0-4.6 0-7.9-0.1-11.3-1-39.5-6.8-78.3-18.9-116-4.8-14.7-4.9-14.7-19.9-17.4-1.2-0.2-2.4-0.5-3.7-0.8-51.8-11.1-99.9-31.2-144.2-60.2-21.8-14.2-41.4-31.1-57.9-51.4-26.4-32.7-40.4-69.3-35.9-111.9 0.4-3.9 0.8-7.8 1.4-13.1-35.4 20.5-72.3 26-112.3 18.7 6.4 39.5 2.3 76.7-19.2 112.5zm1101.5 435.6c1.4-0.9 2.1-1.1 2.4-1.6 1.3-1.7 2.6-3.5 3.8-5.3 23.8-33.4 40.6-70.2 52.6-109.2 3.9-12.8 6.5-26 9.7-39 1.2-5 0-8.6-4.3-12.2-44.7-37.4-79.5-82.7-105.1-134.9-13-26.6-21.9-54.4-24.5-84.1-2.5-27.3 1.5-53.5 13.1-78.5 2.8-6 6.7-10.3 12.9-12.6 8.3-2.9 16.2-6.7 24.6-8.9 30.8-8.1 61.5-6.1 91.5 2.9 72.5 21.7 130.8 65 180.1 121.2 4.2 4.7 7.6 6.8 14.2 5.5 54.9-11.1 105.4-32.3 151-64.9 1.2-0.8 2-2.1 3.2-3.5-19.7-16.2-35.6-34.8-47.2-57-11.7-22.4-16.7-46.4-17.5-71.5-1.5 0.3-1.9 0.2-2.1 0.4-1.8 1.2-3.6 2.5-5.3 3.8-24.8 19.2-53 28.6-84.3 29.3-26.6 0.7-52.2-4.5-76.9-13.9-61.3-23.4-112.4-61.6-156.3-109.9-1.8-2-3.2-4.4-4.7-6.7 1.2-1.7 2.1-3 3-4.2 1.4-1.7 2.8-3.4 4.3-5 29.2-32.2 62.6-59.1 99.9-81.2 33.1-19.5 68.1-34.2 106.6-38.6 40.5-4.6 77.6 3.9 110.1 29.5 1.6 1.3 3.4 2.2 5.9 3.8 0.5-54.3 24.4-96 65-129.9-3.3-2.4-5.7-4.3-8.1-6.1-20.9-15-43.5-27-67.1-37-26.2-11.1-53.1-20.1-81.2-24.9-4.4-0.8-7.5-0.4-10.6 3.4-24.3 30.1-53.5 55-85.3 76.8-34.3 23.4-70.9 42-111.9 50.4-34.5 7.1-68.3 5.6-100.8-9.6-6.3-3-10.4-7.2-13.3-13.5-13.7-29.7-16.3-60.6-11-92.5 5.7-34 18.8-65.3 36.2-94.8 24.6-41.8 54.7-79 92.1-110 3.3-2.7 5-5.4 4.1-9.6-0.5-2.1-0.7-4.3-1.2-6.4-11.1-52.6-31.3-101.3-62.4-145.2-1.4-2-3-3.7-4.9-5.9-33.8 40.6-75.6 64.2-130.2 64.7 2.1 3 3.1 4.4 4.3 5.8 21.3 26.7 31 57.4 30.8 91.3-0.1 24.6-5.3 48.4-13.9 71.3-20.8 55.4-54.4 102.3-96 143.7-6.4 6.3-13.3 12.1-19.8 18.1-2-1.3-3.2-1.8-4.1-2.6q-3-2.3-5.8-4.8c-28.4-25.6-52.8-54.8-73.4-87.1-22.8-35.5-40.5-73.2-46.1-115.6-5.6-41.6 2.1-80.2 28.7-113.8 1.3-1.6 2.3-3.5 4.1-6.3-54.3-0.6-96.1-24.3-129.9-65-2.4 3.2-4.2 5.6-6 8.1-13.6 18.8-24.7 39-34.1 60.2-12.6 28.3-22.4 57.5-28 88.1-0.8 4.4-0.5 7.5 3.4 10.6 27 21.6 49.6 47.4 69.8 75.3 24.2 33.4 43.9 69.1 54.5 109.2 9.4 35.1 10.2 70.1-2.7 104.9-4.7 12.7-11.9 21.6-25.1 25.3-5.7 1.6-11.2 3.9-16.9 5.4-30.8 8-61.5 5.9-91.5-3.2-72.1-21.7-130.2-64.7-179.3-120.7-4.5-5.1-8.4-7.8-15-5.7-1.7 0.6-3.6 0.7-5.5 1.1-41.9 8.8-81.1 24.5-118.1 45.8-10.4 6.1-20.2 13.3-31.1 20.5 41.1 34.2 65 75.9 65.4 130.5 3.5-2.5 5.8-3.9 7.9-5.6 24.9-19.1 53.1-28.4 84.4-29.1 26.6-0.6 52.1 4.8 76.8 14.1 50.5 18.9 93.9 49 132.9 85.8 9.9 9.4 19 19.6 28.4 29.4-1.5 2.4-2.3 3.8-3.2 5q-2.3 2.9-4.9 5.7c-27.4 30.3-58.7 55.9-93.5 77.2-34.7 21.3-71.3 37.5-112.2 42.3-40 4.6-77-3.4-109.4-28.5-1.8-1.5-3.9-2.7-7.2-5-0.3 54.7-24.6 96.5-64.9 130.2 21.2 16.2 43.1 28.8 66.2 39.1 29.1 13.1 59.1 23.5 90.7 29 4.7 0.8 7.4-0.4 10.4-3.9 35-42.1 77.3-75.3 125.6-100.7 31.4-16.6 64.6-28.1 100.6-29.9 25.4-1.3 49.7 3 72.7 14 5 2.4 9.1 5.5 11 10.8 3.5 9.3 7.7 18.5 10.1 28.1 8 32.2 5.1 64-4.9 95.1-22.7 70-64.8 126.8-119.8 174.7-4.8 4.2-6.6 7.7-5.3 14.2 7.6 38.9 21.2 75.6 39.6 110.6 8 15.3 17.3 29.6 28.2 44.2 16.4-20 35.1-36.2 57.5-47.9 22.4-11.7 46.5-16.6 72.8-17.5-2.6-3.5-4-5.5-5.5-7.4-18.1-23.5-27.7-50-29.1-79.6-1.4-27.9 3.6-54.8 13.4-80.7 23.3-61.8 61.8-113.1 110.2-157.2 2-1.9 4.5-3.2 6.9-4.8 3.3 2.7 6.3 5 9.1 7.5 28 25.2 51.9 53.9 72.3 85.5 22 34.2 39.3 70.4 46 110.8 7.4 44.7-0.3 85.8-29.3 121.7-0.8 1-1.2 2.4-2.2 4.5 53.9 0.6 95.4 24.2 128.9 64.3zm-141.4-1396.1c2.2 0.5 2.8 0.7 3.4 0.7 1.5-0.2 3.1-0.4 4.6-0.6 16.9-2.3 33.6-1.9 50.2 1.8 30.8 6.9 56.4 23.1 79 44.5 27.4 26.2 47.8 57.5 64.3 91.4 16.8 34.4 29.8 70.1 36.2 107.9 1.3 7.4 4.1 11.3 11.3 13.7 39.4 13 79.9 19.7 121.4 20.6 3.6 0.1 7.2 0 11.7 0 0 5.7-0.1 10 0 14.3 0.7 39.3 7 77.7 19.4 115 5.2 15.4 1.9 12.3 17.5 15.2 1.5 0.2 3 0.5 4.6 0.8 52.1 11.2 100.5 31.4 145.1 60.5 21 13.8 40 30 56 49.4 29.1 35 43.9 74.4 36.9 120.5-0.3 1.6 0.1 3.3 0.3 6.1 35.2-20.6 72.1-25.3 111.7-18.4-7.6-40.1-1.8-76.9 18.2-112-3 0-4.5-0.2-6 0-39.1 6.1-74.2-3.7-106.4-25.8-26.2-18-46.9-41.3-64-67.6-30.4-46.8-51.5-97.6-61.3-152.7-1.3-7.3-4.4-10.6-11.1-12.8-39.4-13.1-79.9-19.8-121.3-20.7-3.7 0-7.3 0-11.6 0 0-4.7 0.1-8.1 0-11.5-1.1-40.5-7.4-80.1-19.8-118.7-3-9.3-7.3-14.7-17.4-14.3-1.5 0.1-3.1-0.5-4.6-0.8-49.6-10.6-95.9-29.5-138.8-56.5-26.1-16.4-49.4-36-68.2-60.7-26.2-34.4-37.8-72.8-30.5-116 0.1-0.8-0.4-1.6-0.8-3.2-34.6 20.2-71.5 25.4-111.5 18.2 6.7 39.8 2.3 76.8-18.5 111.7zm210.4 551.8c0.3-2.1 0.7-3 0.6-3.9-2.9-23.3-10.4-44.9-23.9-64.2-2.6-3.8-6.2-7.1-9.9-9.7-16.5-11.3-34.7-18.3-54.3-21.8-3.9-0.6-7.8-1-12.2-1.6-1.2 4.7-2.4 8.5-3.2 12.5-5.3 26.1-5.6 52 4.1 77.4 2 5.1 5 8 10.1 9.9 21 8.1 42.6 9 64.5 6.1 8.2-1 16.3-3.1 24.2-4.7zm-396.6-662.9c-10.8 0.9-20.1 2.4-29.4 2.4-9.7 0.1-19.4-0.5-28.9-2-9.2-1.5-18.3-4-27.1-7.1-8.9-3.1-17.3-7.4-26.9-11.6 0.5 4.8 0.8 8.2 1.3 11.5 2 14.7 1.1 29.3-1.9 43.8-7.2 34.6-25.9 62.5-50.6 86.8-18.6 18.3-39.5 33.5-62.2 46.2-41.4 23.3-85 40.5-131.9 48.8-6.9 1.2-10.7 3.7-13 10.7-13.2 39.5-20 79.9-20.7 121.4-0.1 3.7 0 7.3 0 11.4-2.8 0.3-4.6 0.5-6.4 0.6-17.8 1.2-35.6 1.8-53.2 3.9-25.5 2.9-50.3 8.9-74.6 17.2-6.1 2.1-9.4 5-9.8 11.7-0.3 5.3-1.8 10.5-3 15.6-11.3 48.8-30.4 94.4-57.6 136.4-15.7 24.3-34.5 46-57.6 63.6-30.1 23-63.6 35.3-101.9 32.6-5.6-0.3-11.1-1.1-18.4-1.9 21.3 35.5 25.5 72.9 19.1 112.6 40.2-7.3 77-1.7 112.3 18.7-0.3-3.2-0.5-5-0.7-6.8-4.3-30.3 0.2-59.1 14.3-86.3 11.6-22.6 27.6-41.5 46.3-58.3 24.2-21.6 51.6-38.4 80.7-52.2 33.7-16 68.5-28.6 105.5-34.6 6.7-1.1 9.9-4.1 12.1-10.5 10.8-31.9 17.1-64.6 19.7-98 0.8-11.5 1.2-22.9 1.8-34.8 2.2-0.3 4-0.5 5.8-0.7 21.7-1.8 43.6-3 65.2-5.7 22-2.9 43.4-8.6 64.3-16.2 4.7-1.7 7.2-4 7.5-9.2 0.4-4.6 1.6-9.2 2.6-13.8 11.3-50.8 31.1-98.1 59.5-141.6 14.2-21.7 31.1-41.4 51.4-57.9 34.9-28.2 73.9-42.2 119.2-35.1 1.4 0.2 2.9 0 5.8 0-20.5-35.2-25.6-72.2-18.6-111.6zm296.9 1152.1c24.7-2.7 46.7-10 66.3-23.5 4.3-2.9 8.1-6.9 11.1-11.1 12-17.6 19.1-37.1 22.2-58.1 0.3-2.6 0.4-5.3 0.6-7.8-2-0.8-3.2-1.3-4.4-1.6-3-0.8-6-1.5-9.1-2.1-25.5-4.9-50.8-5.2-75.5 4.2-5.1 1.9-8.3 4.7-10.2 9.9-11.3 29.6-9.3 59.2-1 90.1zm-610.7-379.9c-4.9 31.3-16.8 59.7-36.6 84.7 20.3 25.3 31.5 53.6 36.9 85.4 47-20.4 86.7-49.5 122.1-85.1-27.4-31.6-91.4-76-122.4-85zm869 84.6c-20.2-25.1-31.6-53.5-36.9-85.5-47.1 20.5-86.7 49.7-122 85 23 29 97.2 80.4 122.3 84.5 5-30.7 16.5-58.7 36.6-84zm-452.8 452.9c25.3-20.2 53.6-31.5 84.5-36.7-10.2-33.5-55.5-97.7-84.6-121.6-28.8 22.8-81.4 99.3-83.7 121.8 30.7 5 58.7 16.6 83.8 36.5zm83.9-868.4c-53.4-13.7-51.3-16.1-83.9-36.5-41.2 27.4-51.1 28.3-85.3 36.5 20.2 46.6 49.4 86.3 84.9 121.7 31.7-27.7 76.6-91.7 84.3-121.7zm-83.9 1269.2c19.3 15.5 39.9 25.8 62.9 30.8 1.1-1.4 1.8-2 2.1-2.9 16.4-40.3 17.2-80.1-4.5-118.9-10.8-19.1-26.1-34-43.9-46.5-4.4-3.1-8.3-6.2-10-11.9-0.9-2.8-3.9-5.1-6.8-8.6-2.7 3.7-5.3 6.1-6.4 9-1.9 4.6-4.8 7.9-8.8 10.6q-4.6 3.2-9 6.7c-39.7 31.7-58.3 72.2-51 123.2 1.9 13.6 5.1 26.8 12.1 39.4 23.7-5.3 44.3-15.7 63.3-30.9zm0.5-1549c2.8-4.3 4.6-7.1 6.5-9.8 2.3-3.2 4.5-6.6 7.3-9.3 3.2-3 7.1-5.1 10.5-7.8 36.6-29.3 55.4-66.7 51.6-114.2-1.3-16.5-5.2-32.5-12.9-48.2-23.9 5.2-44.7 15.8-63.5 30.8-19.3-15.1-39.9-26-64.1-30.6-16.8 40.6-18.7 80.1 2 119 10.7 20.2 26.6 36 45.2 49.1 4.7 3.2 8.7 6.7 10.5 12.6 0.9 2.6 3.7 4.6 6.9 8.4zm883.2 631.8c-0.9-0.6-1.8-1.4-2.9-1.9-42.9-17.1-84.6-16.7-124.5 8.8-16.2 10.4-29.2 24.2-40.2 40-3.1 4.4-6.3 8.2-11.8 10.1-2.9 1-5.2 3.8-9.1 6.8 4.2 2.8 7.2 4.7 10 6.8 3.2 2.3 6.6 4.6 9.3 7.5 2.9 3.1 5.1 7 7.8 10.4 30.9 38.4 70.3 56.9 119.9 50.9 14.5-1.8 28.7-5.4 42.3-12.4-5.4-23.9-15.8-44.8-30.6-63.1 19.6-29.3 28.4-48.3 29.8-63.9zm-1579 63.2c-4.2-2.9-7-4.6-9.6-6.6-3.4-2.6-7.1-4.9-9.9-8.1-5.2-5.8-9.4-12.4-14.6-18.2-42-47.1-100.2-53.5-151.2-32.2-1.4 0.5-2.5 1.6-4 2.5 5.6 23.5 15.8 44.3 31 63-15.4 18.9-25.7 39.8-31 63.9 34.5 14.5 68.7 18.1 103.7 5.2 27.3-10 47.9-28.7 64.5-52.1 3.3-4.7 6.6-8.9 12.5-10.6 2.7-0.8 4.7-3.6 8.6-6.8zm71.5 0.3c3.5 6.7 6.9 12.4 13.6 15.7 2.2 1.1 3.6 4.1 5 6.4 7.7 11.7 14.3 24.3 22.9 35.2 20.2 25.7 46.7 40.9 79.6 44.2 19.8 1.9 39.1-0.8 58.9-6.5-4.1-38.5-19.9-70.1-49.2-95 29.8-25.2 45-56.8 49.3-95.7-11.6-2-22.2-4.5-33-5.6-32.1-3.1-61.3 4.1-86.7 24.8-18 14.7-30.8 33.4-41.5 53.8-1.3 2.6-3 5.9-5.5 7.1-6.7 3.3-9.8 9.2-13.4 15.6zm623.8 493.1c-25.4-29.8-56.9-45.2-95.5-49.3-1.9 10-4.2 19.1-5.3 28.2-4.3 34.8 2.9 66.5 26 93.6 14.4 16.9 32.3 29.2 51.9 39.3 2.9 1.5 6.3 3.5 7.7 6.2 3.6 6.6 9.3 9.7 15.5 12.6 6.2-3.5 12-6.7 15.4-13.4 1.2-2.4 4.5-4.1 7.1-5.4 23.3-12.1 44.2-27.1 59.4-49 19-27.5 22.8-58.1 17.6-90.4-1.1-7.2-3.1-14.3-4.8-21.7-38.6 4.4-69.9 19.7-95 49.3zm95-936.8c1.1-4.2 2.2-7.5 2.7-10.8 1.5-9.9 3.5-19.7 4-29.7 1.4-28.4-5.8-54.3-23.5-77-14.9-19.1-34.2-32.6-55.5-43.7-2.9-1.5-6.2-3.5-7.6-6.2-3.5-6.7-9.4-9.6-15.3-12.6-6.1 3.5-11.8 6.3-15.1 12.7-1.3 2.7-4.8 4.7-7.7 6.2-15.6 8.1-30.1 17.8-42.9 29.8-35.9 33.7-44.3 83.4-28.4 131.1 37.8-3.8 69.3-19.9 94.4-49 25.1 29.5 56.5 44.8 94.9 49.2zm397.7 444c-29.5 25-44.7 56.7-49.1 95.4 11.1 2 21.3 4.4 31.8 5.5 32.3 3.5 61.9-3.6 87.6-24.4 18.1-14.6 30.9-33.3 41.6-53.6 1.5-2.9 3.4-6.4 6.1-7.8 6.6-3.4 9.7-9.3 12.9-15.2-5.1-9.7-5.2-9.5-13-15.5-2.4-1.8-4-4.5-5.7-7.1-7.8-11.9-14.6-24.7-23.5-35.9-20.2-25.2-46.5-40-79-43.1-19.9-1.9-39.1 0.9-57.8 6.2-0.9 29.4 16 62.8 48.1 95.5zm-699-673.2c14.4 20.1 32.1 35.6 54 45.9 38.9 18.4 77.5 14.7 115.6-2.9 3.3-1.6 7.3-3.3 10.6-2.7 7 1.2 13-0.7 19-3.3 5-2.1 9.5-1.9 14.4 0.1 6 2.5 12.1 4.3 19 3.1 3.1-0.5 6.7 1 9.7 2.4 51.3 23.8 99.8 21.2 144.7-15.1 9.9-7.9 18.8-17 25.6-28.2-13-13.8-27.3-24.7-43.6-32.8-21.9-10.9-44.9-14.8-69.1-10.7-22.3 3.7-42.2 13-61.1 24.8-2.9 1.8-6.2 4.5-9.1 4.4-9-0.4-16 4.5-22.5 7.6-7-2.7-12.9-6-19.1-6.9-5.2-0.7-9.5-2.2-13.9-4.7-10.3-5.7-20.5-11.9-31.4-16.5-51.5-21.7-102.4-8.5-142.8 35.5zm413 1346.4c-14.9-20.8-32.8-36.3-55-46.7-38.7-18.1-77-14.3-114.8 3.1-3.3 1.5-7.3 3.3-10.5 2.8-7-1.1-13.1 0.6-19.1 3.2-5.2 2.3-10.1 2-15.2-0.3-5.8-2.4-11.6-3.8-18.2-2.9-3.6 0.4-7.8-1.6-11.3-3.2-43.9-19.6-86.9-21-128.8 5.3-15.9 10-29.4 22.7-40.3 38.6 11.5 12.5 24.2 22.4 38.5 30.3 26.2 14.6 53.9 18.8 83.2 11.7 19-4.6 36.3-13.1 52.8-23.3 3.6-2.2 7.9-3.3 12-4.6 3.1-1 6.5-1.4 9.6-2.5 3.8-1.4 7.3-3.3 10.6-4.9 4.1 2.1 7.6 4.3 11.5 5.5 3.7 1.2 7.8 1.3 11.6 2.2 2.4 0.6 4.7 1.8 6.8 3 3.8 2.1 7.4 4.7 11.1 6.9 20.3 11.5 41.8 19.8 65.4 20.9 40.4 1.7 71.8-16.9 100.1-45.1zm-879.5-467.1c20.3-14.7 35.8-32.7 46.2-54.9 17.9-38.4 14.1-76.3-2.9-113.9-1.7-3.9-3.9-8.5-3.2-12.3 0.9-5.7 0-10.5-2.2-15.3-3-6.7-2.9-13-0.1-19.8 1.6-3.9 2.8-8.4 2.3-12.5-0.6-5.6 0.7-10.2 3-15.1 23.5-51.5 20.1-100-16.6-144.5-7.7-9.3-16.3-17.8-27-24.3-9.6 8.1-16.8 17.4-23.5 27.1-16 23.5-24 49.3-21.3 77.8 2.2 22.5 10.4 42.9 21.9 62.2 4.2 7.1 10.3 13.5 8.7 23-0.3 1.3 1.1 2.8 1.7 4.2 1.9 4 3.8 7.9 5.8 11.9-3.5 7.9-8.7 15.1-8.2 24.5 0.1 2.4-2.3 4.9-3.6 7.4-5.4 10.2-11.5 20-16.1 30.6-21.9 50.8-10 102.6 35.1 143.9zm1346.3 0.1c13.7-13 24.8-27.6 33-44.2 10.1-20.4 14.1-41.9 11.1-64.6-2.6-20.1-10.1-38.5-19.9-56-4.6-8.3-11.9-15.5-10.6-26.3 0.2-1.6-1.4-3.4-2.2-5.1-1.7-3.6-3.4-7.2-4.8-10 2.7-6.3 6.7-11.6 7-17.1 0.3-7.1 3.1-12.5 6.4-18.1 3.7-6.2 7.4-12.4 10.5-18.8 13.1-27.2 18.8-55.5 11.2-85.4-6.1-23.9-19.3-43.8-35.9-61.6-1.9-2-4.1-3.7-6.4-5.8-25.6 19.1-44.3 42.7-53.2 73.2-9.7 33.5-4.2 65.5 10.1 96.5 1.5 3.3 3.5 7.3 2.9 10.5-1.4 6.9 0.4 13 3.1 19 2.4 5.3 1.8 10.1-0.3 15.2-2.3 5.8-4.1 11.5-2.9 18.1 0.7 3.2-1.1 7.3-2.6 10.5-23.6 51.4-20.8 99.9 15.6 144.7 7.9 9.7 16.8 18.4 27.9 25.3zm-235.9 230.4c3.4-43.1 10.6-85 26.3-125-21.2-34.6-113.2-103.6-141.2-105.9q-0.6 2.6-1.2 5.4c-4.9 25.4-14.1 49.1-29.6 70.1-2.9 4-6.5 7.6-10.5 10.5-20.7 15.2-44 24.5-69.2 29.4-2.3 0.4-4.6 1.2-7.7 2.1 1.6 3.8 2.7 7.1 4.3 10 9.6 16.8 18.5 34.1 29.1 50.2 18.1 27.4 39.9 51.9 64.5 73.8 5.8 5.2 10.5 6.1 18.2 3.6 19.2-6.2 38.8-11.6 58.6-15.7 18.9-3.9 38.3-5.7 58.4-8.5zm-933.3-1084.6c-21-34.5-111.8-102.8-141.1-106.1-0.9 4.2-1.8 8.5-2.7 12.7-5.1 22.5-13.9 43.4-27.5 62.1-3.2 4.4-7.3 8.5-11.7 11.8-18.4 13.4-38.9 22.2-61.1 27.3-4.7 1.1-9.5 2.1-14.8 3.3 0.5 2.1 0.7 3.7 1.3 5 23.8 51.4 57.2 95.5 100.1 132.6 3.6 3.2 6.8 3 10.9 1.5 33.5-12.7 68.3-19.5 103.8-22.8 5.5-0.5 11-1.3 16.6-2 3.3-43.6 10.6-85.5 26.2-125.4zm1250.3 1283.8c-0.5-1.7-0.8-2.9-1.3-4-23.5-51.6-57.2-95.7-99.9-132.9-4-3.6-7.4-3-11.8-1.4-32.7 12.4-66.6 19-101.2 22.4-6.1 0.6-12.2 1.4-18.5 2.1-0.5 5.8-1 10.7-1.5 15.7-3.3 34.9-9.7 69.2-22.2 102.2-2.4 6.4-1.6 10.6 2.9 15.8 35.9 40.4 78 72.6 126.9 95.8 2.5 1.1 5.1 1.9 8.2 3.1 2.1-8.5 3.8-16.3 6-24.1 10.8-38.7 30.9-69.4 71.2-82.7 2.4-0.8 4.7-1.8 7.1-2.5 11-3.1 22.1-6.2 34.1-9.5zm-1192.1-198.5c5.9 0.6 11.4 1.2 17 1.7 34.3 3.3 68 9.6 100.3 21.9 7.5 2.8 12 1.4 17.3-3.4 40-35.9 72.1-77.7 95-126.4 1.2-2.4 2-5 3.1-8.1-3-0.8-5.3-1.5-7.7-1.9-22.9-4.5-44.2-13-63.9-25.6-8-5.2-14.4-11.7-19.6-19.7-12.1-18.9-20.4-39.3-24.9-61.3-0.6-3.2-1.4-6.4-2.2-9.9-2.2 0.6-3.4 0.8-4.5 1.3-51.6 23.6-95.7 57.2-132.9 100-3 3.6-3.2 6.7-1.5 11.1 11.1 29.3 17.6 59.8 21.4 90.9 1.1 9.5 2 19.1 3.1 29.4zm960-960.2c0.9 0.3 1.5 0.7 2 0.8q8 0.8 15.9 1.6c34.3 3.4 67.9 9.9 100.2 22.1 5.7 2.2 9.6 1.9 14.2-2.2 41.4-36.4 74-79.2 97.4-129.1 1-2.1 1.5-4.5 2.4-7.2-2.9-0.6-4.9-1.2-7-1.6-24.2-4.7-46.9-13.3-67-27.7-5.4-3.9-10.5-8.9-14.4-14.3-14.1-19.5-22.8-41.5-27.6-65-0.6-3-1.4-6-2-8.8-1.3-0.1-2-0.3-2.5-0.2q-2.2 0.7-4.3 1.7c-50.3 23.4-93.4 56.3-129.8 98-3.4 4-4.5 7.3-2.4 12.6 8.3 20.9 13.8 42.7 17.4 65 2.9 17.8 5 35.8 7.5 54.3zm-318.2 199.4c8.9 2.1 16.5 3.6 24 5.7 39 10.8 70 30.9 83.3 71.7 0.9 2.7 2 5.3 2.8 8 3 10.7 6 21.4 9.3 33.5 55.4-24.7 101.7-60.5 140.6-106.4-16.1-41.1-23.3-83.3-26.7-126-1.3-0.5-1.8-0.9-2.4-1q-7.9-0.9-15.8-1.7c-34-3.3-67.4-9.7-99.4-21.7-6.9-2.6-11.3-1.9-16.6 2.9-38.3 33.9-69 73.7-92.1 119.4-2.3 4.7-4.3 9.6-7 15.6zm-641.9-114.2c-0.5 4.5-0.9 8.6-1.2 12.6-3.3 36.5-10 72.3-23 106.7-2.1 5.6-1.1 9.2 2.6 13.4 36.3 41.4 79.2 74.1 129.1 97.5 2 0.9 4.4 1.4 7 2.2 0.9-3.8 1.6-6.8 2.2-9.8 5-24.2 14.2-46.6 28.8-66.5 2.9-4 6.6-7.6 10.5-10.5 18.3-13.6 38.8-22.5 61-27.7 5-1.2 10.1-2.3 16.1-3.6-1.6-3.9-2.7-7-4.2-10-11.6-25-26.3-48.2-43.2-70-16-20.5-33.3-39.6-53.2-56.4-3.5-2.9-6.4-4.8-11.6-2.8-28.7 11.1-58.5 17.5-89 21.3-10.5 1.3-21 2.4-31.9 3.6zm-84.3 959.6c-7.2-0.8-13.4-1.4-19.6-2.1-33.6-3.3-66.6-9.7-98.3-21.7-7-2.7-11.3-1.5-16.5 3.2-40.1 35.7-72 77.5-95.1 126-1.3 2.7-2.2 5.6-3.4 8.9 8.4 2 16 3.6 23.4 5.6 39.4 10.8 70.4 31.4 83.7 72.4 0.8 2.4 1.9 4.7 2.5 7.1 3 10.7 6 21.5 8.9 32.3 30.3-4.4 121.4-73.1 140.6-106.3-15.7-39.9-22.9-81.8-26.2-125.4zm-143.1 243.4c0-2.6 0.1-4.2-0.1-5.6-2.8-22-10-42.5-22.5-60.9-3.1-4.5-7.3-8.6-11.8-11.7-16.4-11.2-34.8-18-54.4-21.4-3.6-0.6-7.2-1-11.2-1.5-1.1 4.5-2.2 8-3 11.6-5.5 25.8-5.8 51.3 3.1 76.6 2.3 6.6 6.2 10.1 12.6 12.4 21.1 7.5 42.7 8.3 64.6 5.1 7.6-1.1 15.1-3 22.7-4.6zm0.6-1530.9c-31.4-8.2-61.7-10-91.7 1.8-4.2 1.6-6.3 4.6-7.8 8.6-11.2 29.2-9.9 58.7-1.6 88.2 0.2 0.8 1.2 1.3 2 2.2 24.2-2.8 46.7-10.5 66.8-24.6 2.5-1.7 4.9-3.9 6.7-6.4 14.6-20.5 22.8-43.4 25.6-69.8zm1429.5 100.9c1.4-5.9 2.8-10.9 3.8-16.1 4.7-25 4.4-49.6-4.7-73.7-1.9-5.1-4.9-8.1-10.1-10.1-21.3-8.2-43.2-9-65.4-6-7.9 1-15.7 3.1-23.6 4.7-0.2 2.2-0.5 3.5-0.3 4.6 3.1 23.6 10.8 45.5 24.8 64.9 2.2 3.2 5.5 5.9 8.8 8.2 16.5 11.2 34.7 18.2 54.3 21.8 3.9 0.7 7.8 1 12.4 1.7zm-100.6 1429.6c4.9 1.2 8.7 2.4 12.7 3.2 25.8 5.2 51.3 5.5 76.5-3.9 5.4-2 8.6-5.1 10.6-10.6 7.5-20.1 9-40.7 6.3-61.8-1.1-9.1-3.4-18.1-5.2-27.5-16.9 1.3-31.6 6-46.2 11.7-20.6 8.1-34.8 22.2-43 42.9-5.7 14.5-10.3 29.3-11.7 46zm-959-571.2c0 3.1-0.3 5.3 0.1 7.4 3.3 21.5 10.3 41.8 22.8 59.8 2.8 4 6.4 7.7 10.4 10.4 16.4 11.4 34.6 18.4 54.2 21.9 3.9 0.7 7.9 1.1 11.6 1.7 0.9-1.6 1.6-2.3 1.8-3.2 1.1-4.5 2.2-9.1 3.1-13.7 4.5-24.7 4.1-49-4.8-72.8-1.9-5.1-4.9-8.1-10-10.1-21-8.1-42.6-9-64.5-6.2-8.2 1.1-16.3 3.1-24.7 4.8zm99.7-489.7c-9.3 2-18.2 3-26.7 5.8-44.5 14.5-53.8 24.3-68.5 68.5-2.8 8.5-5 17.3-4.5 27.5 8.3 1.6 16.4 3.7 24.7 4.8 21.9 2.8 43.5 1.9 64.5-6.3 5.1-2 8.5-4.8 9.9-10.1 2.3-9 5.3-17.9 6.6-27.1 2.9-21 0.4-41.6-6-63.1z"/>
		</g>
	</g>
	<g id="calligraphy">
		<path id="Shape 1" class="s2" d="m1391.4 480c-117.8 0-213-95.2-213-213 0-117.8 95.2-213 213-213 117.8 0 213 95.2 213 213 0 117.8-95.2 213-213 213z"/>
		<g id="Layer copy 47">
			<g id="salih amal">
				<path id="Layer" fill-rule="evenodd" class="s0" d="m1326 410.7q-0.3-0.2-0.3-1.2 0-1-1.4-4.7-1.4-3.6-2.1-3.6-0.4 0-0.5 0.3-0.1 0.3-0.7 0.3-0.6 0-1.7-1-1.1-1.1-1.1-1.5 0-0.3 0.9-1.8 0.9-1.5 1.1-1.5 2.2 0 3.9 2.6 1.7 2.6 2.4 6.6v0.5l0.1 0.1v-0.1q0.2 0 0.2-0.5l1.7-7.3q1.6-3.5 3.3-3.5 0.8 0 1.6 1.1 0.9 1.1 0.9 1.7 0 0.5-0.3 1.5-0.3 1-0.8 1-0.2 0-0.8-0.8-0.6-0.9-1.4-0.9-1.6 0-2.8 7.2-1.1 5.5-2.2 5.5z"/>
				<path id="Layer" fill-rule="evenodd" class="s0" d="m1287 385.4q-0.1 0-0.1-1.1 0-1-1.5-4.7-1.5-3.6-2.1-3.6-0.5 0-0.6 0.3 0 0.3-0.7 0.3-0.6 0-1.7-1-1.1-1-1.1-1.5 0-0.3 1-1.8 0.9-1.5 1.1-1.5 2.1 0 3.9 2.6 1.7 2.6 2.3 6.6l0.2 0.5 0.3-0.5q1.4-10.8 4.8-10.8 1 0 1.7 1.1 0.8 1.1 0.8 1.8 0 0.4-0.3 1.4-0.3 0.9-0.8 0.9-0.1 0-0.7-0.8-0.7-0.8-1.5-0.8-1.5 0-2.8 7.2-0.9 5.4-2.2 5.4z"/>
				<path id="Layer" fill-rule="evenodd" class="s0" d="m1392.3 383.3q-0.3 0-0.3-0.8 0-0.7-1.2-4.6-1.3-3.8-1.8-3.8-0.3 0-0.3 0.2-0.1 0.3-0.6 0.3-0.5 0-1.3-0.8-0.9-0.8-0.9-1.3 0-0.1 0.7-1.2 0.7-1.1 0.9-1.1 1.5 0 3 2.8 1.5 2.8 2.1 6.3v0.3h0.2v-0.3q1.6-10.4 4.1-10.4 0.7 0 1.4 0.9 0.6 0.8 0.6 1.3 0 0.3-0.2 1.1-0.3 0.8-0.7 0.8-0.2 0-0.7-0.6-0.4-0.7-0.9-0.7-1.1 0-2.5 7.6-0.8 4-1.6 4z"/>
				<path id="Layer" fill-rule="evenodd" class="s0" d="m1412.5 413q-0.3-0.1-0.3-1.1 0-1-1.5-4.7-1.5-3.7-2.1-3.7-0.5 0-0.5 0.3-0.1 0.3-0.8 0.3-0.6 0-1.6-1-1-1-1-1.5 0-0.3 0.9-1.8 0.8-1.5 1-1.5 2.2 0 3.9 2.6 1.7 2.6 2.3 6.7l0.2 0.6q0.1 0 0.1-0.2l1.9-7.8q1.4-3.4 3.1-3.4 1 0 1.8 1.1 0.7 1.1 0.7 1.7 0 2.5-1 2.5-0.2 0-0.8-0.9-0.7-0.8-1.4-0.8-1.4 0-2.9 7.2-0.4 3.1-1.1 4.3-0.6 1.1-0.9 1.1z"/>
				<path id="Layer" fill-rule="evenodd" class="s0" d="m1336.3 352.2q-0.1 0-0.1-1.7 0-3.2-1-7.5-0.9-4.3-0.9-4.9 0-2.2 1.2-3.1 0.7-0.5 2.2-1-0.6-0.6-1.2-0.6-0.3 0-0.8 0.6l-0.6 0.7v-0.5q0.3-3.4 1.8-3.4 0.8 0 2.3 1 1.5 1.1 1.7 2.1 0 0.1-0.4 1-0.4 0.9-0.7 0.9-0.4 0.1-2.5 0.7-1.6 0.5-2.2 1.3 1.7 5.5 1.7 10.8 0 1.4-0.3 3.1z"/>
				<path id="Layer" fill-rule="evenodd" class="s0" d="m1329.3 366.1q0.3-1.1 0.9-2.5l15.8-5.8 0.3 0.2-0.1 0.3q-0.5 1.2-0.8 1.4-6.9 2.5-16.1 6.4z"/>
				<path id="Layer" fill-rule="evenodd" class="s0" d="m1367.9 406.2q-1.2 0-2-0.7-0.8-0.7-0.8-1.7 0-2.8 2.4-5.8-2.1-0.6-2.1-2.2 0-1.2 1.7-3.1 1.6-1.9 2.5-1.9 0.4 0 0.6 0.5 0.2 0.5 0.2 0.9 0 0.2-0.4 0.9-0.5 0.7-0.7 0.7-0.3-0.8-0.9-0.8-0.5 0-0.9 0.6-0.5 0.7-0.5 1.1 0.6 1.1 2.2 1.1 0.6 0 2.6-2 0.2-0.3 0.5-0.3 0.2 0 0.2 0.5 0 1.1-1 2.3-3.4 2.4-5.1 5.5-0.4 0.6-0.4 1.1 0 1.2 2.9 1.2 2.6 0 5.6-0.9l0.9-0.2q0 0.2-0.6 0.8-2.7 2.4-6.9 2.4z"/>
				<path id="Layer" fill-rule="evenodd" class="s0" d="m1354.9 344.7q0.2-0.2 1-0.8 0.8-0.6 4.4-2.5 3.6-1.9 4.2-2.5 0.1 0 0.1-0.2 0-0.7-6.4-0.8h-2.9q-0.7 0.1-0.7-0.1l1.9-3.1q0.6-1.1 2.3-1.4 0.7-0.2 3-0.2 7.4 0 7.4 1.7 0 0.6-1.9 3.2-1.9 2.6-3.6 3.9-1.2 0.7-7.5 2.5z"/>
				<path id="Layer" fill-rule="evenodd" class="s0" d="m1403.6 333.3q0.2-1.5 0.1-1.6 0-0.2 1.6-1.4-1.9-0.6-1.9-1.7 0-1.1 1.1-2.4 1.9-2.3 3.2-2.3 1.2 0 1.2 1.2 0 0.8-0.6 1.9l-0.3-0.2q-0.5-0.7-1-0.7-0.4 0-1.1 0.4-0.7 0.5-0.7 0.8 0 0.5 0.8 0.9 0.9 0.4 1.3 0.4 0.4 0 1.3-0.6 0.9-0.5 1.6-0.9 0.6-0.4 0.7-0.4h0.3q0.1 0 0.1 0.1 0 0.8-0.8 1.9-1.4 0.8-6.4 4.2-0.2 0-0.5 0.4z"/>
				<path id="Layer" fill-rule="evenodd" class="s0" d="m1281.6 402.6q-7.1 0-10-5.4-2.2-3.6-2.2-8.6 0-6.1 2-10 0.6-1.4 1.1-1.4l-0.3 1.7q-1.6 4.3-1.6 7.7 0 3.3 1.9 6.3 2.8 4.5 9.4 4.5 5.9 0 14.4-5.2 6.1-3.6 10.3-7.8 0.8-0.5 0.8-2.3 0-3.2-1.3-21-1.4-17.8-1.4-20.3 0-2.5-0.8-4.1 0-0.9 1.6-4.4 0.2-0.5 0.3-0.5 0.2 0 0.4 0.8 0.2 0.7 1.9 4.8 1.6 4.1 1.9 5 0.2 0.9 0.2 1.2 0 0.3-0.2 0.3-0.6 0-2.2-1.7l-0.1-0.2v0.5l1.1 13.6q0.9 13.8 0.9 16.4 0 7.4-1.1 11.3-0.9 2.8-2.6 5.2-2.7 2.9-8.6 7.1-9.1 6.5-15.8 6.5z"/>
				<path id="path4" fill-rule="evenodd" class="s0" d="m1349.1 377.4q2.1 2 4.3 3.1 1.1 0.5 3.6 1.4 2-3.9 5.8-7.7-4.3-1.2-7.1-4.2-3.4-3.6-3.4-8.6 0-4.4 3-7.2 2.3-2 6.8-2.8l6.6-0.9q0.5-0.2 1.1-0.2 4.1-0.8 5.6-2.8 1.1-1.3 1.8-1.3 0.3 0 0.3 0.5 0 0.3-0.2 0.8-0.8 2.2-3 4.1-2 1.8-4.3 2.8-2.1 0.8-9 1.7-5.1 0.8-6.8 2.7 0.4 3.1 3.4 6.4 3.9 4.2 9.5 4.2 2.4 0 6.8-2.4 4-2.5 8.3-4.8 0.4-0.3 0.7-0.3 0.4 0 0.4 0.3 0 0.3-0.4 0.8l-1.7 3.1q-0.3 0.6-1.1 1.1-4.7 3-12.8 8-5 3.3-7.8 7.2 4.4 0.6 14.1 0.6 9.5 0 12.5 1.4 2.2 1 3.6 3 1.5 2.5 1.5 5.6 0 8.5-7.2 15.4-7 6.7-15.5 6.7-15.3-0.2-15.3-17.1 0-6.2 1.9-11.7-0.8-0.3-1.7-0.6-3.2-1.3-5.2-3-0.1 2.2-1.1 3.7-0.9 1.5-2.2 1.5-3.4 0-9.2-5.7-1.6 2.4-2.5 3.3-2.5 2.4-5.5 2.4-2.8 0-4.4-1.1-2.2-1.8-3.1-6.3-0.5-2.8-0.8-16.4-0.4-14.9-0.9-18.2-0.5-5.4-2-10.3 0-1.2 1-3.8 0.4-0.6 0.5-0.6 0.2 0 0.3 0.5 1.8 3.3 2.5 11.1 0.7 4.9 1 19.4 0.4 13.8 0.6 15 0.6 3.6 2.5 4.7 0.9 0.6 2.8 0.6 3.8 0 6.1-1.7 0.6-0.5 2.5-2.8 0.6-0.6 1.1-0.6 0.2 0 0.3 0.1 3.2-3.9 6-3.9 1.4 0 3.3 1.6zm20.1 32.4q4.9 0 9.7-2.5 4.7-2.5 7.8-5.9 3-3.4 3-5.9 0-2-1.5-4-1.6-2.1-4.6-2.9-3.1-0.9-16.1-0.9-4.7 0-10.3-1.1-2.4 5.3-2.4 10.3 0 12.9 14.4 12.9zm-24.2-27.4q0.1 0 0.1-0.5 0-1.4-0.8-2.6-0.9-1.1-1.8-1.1-0.6 0-1.7 0.5-1 0.6-1 0.7 0.7 0.6 2.6 1.8 2 1.2 2.6 1.2z"/>
				<path id="Layer" fill-rule="evenodd" class="s0" d="m1394.8 394.3q-0.7 0-0.7-0.2-0.1-0.3 0.6-0.8 20-10.5 20-17.3 0-5.2-1.8-20.1-1.8-14.8-1.8-16.9 0-1.1-0.5-2.5-0.6-1.4-0.6-1.5 0-0.2 0.6-2.1 0.5-1.8 0.7-2.1 0.1-0.4 0.3-0.4 0.3 0 2.7 5 2.4 5.1 2.4 6.3 0 0.3-0.1 0.3-0.6 0-2.2-1.7l-0.2-0.2v0.5q0 2.2 1.4 14 1.4 11.8 1.4 16 0 8.8-4 14.4-3.1 4.4-7.2 6.3-3.1 1.6-11 3z"/>
				<path id="Layer" fill-rule="evenodd" class="s0" d="m1411.3 381q-0.4 0-0.8-3.9-1.1-6.5-9.7-14.7l-7.4-7.1q-6.4-6.2-9.2-10.8-0.9-1.7-1.7-3-0.8-1.2-1.4-1.5-0.7-0.3-0.7-1v-3.6q0-0.9 0.5-0.9 0.2 0 7.5 5.6 0.8 0.7 0.8 1 0 0.1-0.6 0.1-0.8 0-2.7-0.4 1.3 2.5 7.4 8.7l9.4 9.3q9.3 9.3 9.3 16.2v1.3q-0.6 4.7-0.7 4.7z"/>
				<path id="Layer" fill-rule="evenodd" class="s0" d="m1423.3 390.2v-2.2q0.3-2 0.3-4.8 0-2.5-1.3-20.8-1.3-18.3-1.3-20.7 0-2.3-0.8-4.1 0-0.9 1.4-4.3 0.3-0.4 0.5-0.4l2.1 5.4q2.2 5.3 2.2 6.2 0 0.5-0.3 0.5-0.4 0-2-1.9v-0.1q-0.2 0-0.2 0.6 0 0.1 1.2 16.1 1.2 16 1.2 18 0 6.1-1.9 10.8-0.9 1.7-1.1 1.7z"/>
				<path id="path5" fill-rule="evenodd" class="s0" d="m1447.2 363.3q0 1-1.2-11.9-0.5-3.9-1.1-11.7v-1.1q-0.2-0.7 2-5.8 0.2-0.6 0.8-0.3 5.5 2.5 8.8 5.6 4 4.1 5.9 10 1.9 6.3 2.4 17.4v3.4h1.2q1.4-0.1 1.4 0.3 0 0.2-0.1 0.7l-1.3 3.4q-0.1 0.6-0.8 0.8h-0.3q0.2 2.2 0.2 4.4 0.8 5.6 5.3 5.6 3.3 0 6.7-2.8l3.8-3.8q0.3-0.3 0.6-0.3 0.3 0 0.3 1.6 0 3.1 4.7 5.1 0.8-1.1 1.6-2.3 1.2-2.2 2.6-4.4 2.8-4.2 5.4-6.4 3.2-3 6.7-3 4 0 7.3 3.5 2.7 2.8 2.7 5 0 0.6-0.8 3-0.9 2.6-1.7 3.5-1.7 2.1-6 4.3-6.1 3.3-12.5 3.3-2.8 0-5.8-1-1.1 3-1.5 3-0.2 0-0.2-0.5 0-0.9 0.6-3.1-4.5-2-4.8-5.6-4.7 6.2-9.7 6.2-3 0-4.5-1.2-2.2-1.6-3-6.1-0.3-2.1-0.6-7.2-3 0.8-4.3 1.2-3.9 1.3-7.6 3.2-6.1 2.9-9.7 7.3 4.7 0.6 15.5 0.9 7.8 0.4 10 1.3 2.2 0.9 3.6 3.1 1.5 2.4 1.5 5.7 0 8.4-7.2 15.1-7 6.8-15.4 6.8-15.4 0-15.4-17.1 0-7.7 3.9-15-1.2-0.8-1.2-1.1 0-0.3 0.6-0.3 0.5 0 1.4 0.3 4.9-7.7 13.6-12.1-4.5 0-9.1-0.1-4.3-0.3-8.1-0.3-1.9 0-1.9-0.3 0-0.2 0.2-0.7 0.6-1.8 1.6-4.2 0.1-0.3 4-1.4 4.9-1.2 8.2-2.7 0.7-0.3 0.7-1.2zm2.2 50.8q4.7 0 9.5-2.4 4.8-2.4 7.9-5.8 3.1-3.3 3.1-5.8 0-2.2-1.6-4.2-1.7-1.9-4.3-2.7-2.7-0.8-8.6-1-6-0.1-8.2-0.6-4-0.9-8.1-3.3-1.2 2.1-2.5 4.9-1.6 4.2-1.6 8.1 0 12.8 14.4 12.8zm43.7-28.6q7.6 0 15.2-4.7 2.5-1.6 2.5-2 0-1.1-2.7-3.3-3.3-2.8-6.7-2.8-6.3 0-13.3 12 2 0.8 5 0.8zm-31.6-16.4h0.6l-0.3-6.6q-0.6-7.8-2.4-12.3-3.1-7.4-10.6-11.3h-0.1q-0.2-0.2-0.4-0.2-0.3 0-0.1 1 0.3 2.8 1.1 11.7 0.3 3.3 0.3 6.7 0 4.6-1.9 8-0.8 1.4-1.7 2.5 3.4 0 7.7 0.2 5.7 0.3 7.8 0.3z"/>
				<path id="path13" fill-rule="evenodd" class="s0" d="m1415.2 332.6q-0.2 0-0.2-0.4 0-1.3 1.1-2.3 1.1-1 1.7-1 0.2 0 0.7 0.2 0.4 0.2 1.2 0.2 1.7 0 1.7-0.6l-0.8-2.6q0-0.2 0.4-0.8 0.4-0.7 0.6-0.6l0.8 2q0.6 1.2 1.7 1.5 3.4-3.9 5-3.9 1.6 0 1.6 1.8 0 2-1.8 3.2-1.8 1.3-5 1.3-0.6 1.2-0.9 1.2l0.1-1.4q-0.6-0.3-0.9-0.9-0.8 2.3-2.8 2.3-0.8 0-1.1-0.3-0.3-0.3-0.8-0.3-0.9 0-2.2 1.3zm10.4-4.3q1.2 0 2.5-0.5 1.4-0.5 1.4-0.9 0-0.6-1.1-0.6-1.3 0-3.3 2z"/>
				<path id="Layer" fill-rule="evenodd" class="s0" d="m1386.4 332.9q0.3-1.1 0.9-2.3l11.4-4.2 0.4 0.3-0.2 0.3q-0.5 1.1-0.8 1.2-5.1 1.9-11.7 4.7z"/>
				<path id="Layer" fill-rule="evenodd" class="s0" d="m1476.8 351.4q-0.1 0-0.1-0.8 0-0.8-1.3-3.7-1.2-3-1.7-3-0.3 0-0.4 0.2-0.1 0.1-0.6 0.1-0.4 0-1.3-0.8-0.8-0.8-0.8-1.2 0-0.2 0.7-1.4 0.7-1.1 0.8-1.1 1.7 0 3.1 2 1.5 2 1.9 5.3l0.2 0.5 0.1-0.5q1.3-8.7 4.1-8.7 0.6 0 1.3 0.9 0.7 0.9 0.7 1.4 0 0.5-0.2 1.3-0.2 0.7-0.7 0.7-0.2 0-0.6-0.7-0.5-0.7-1.1-0.7-1.3 0-2.4 6-0.7 4.2-1.7 4.2z"/>
				<path id="Layer" fill-rule="evenodd" class="s0" d="m1434.7 359.7q-1.2 0-2.1-0.7-0.8-0.7-0.8-1.8 0-2 2.5-4.5l2-2.2 0.1-0.3q0-0.7-2.6-0.7-0.8 0-1.6 0.3h-0.3v-0.1q0.6-1.3 1.2-1.7 0.5-0.5 2.4-0.5 2.7 0 2.7 1.4 0 1.1-2.1 3.3l-2.8 2.8q-0.6 0.8-0.6 1.4 0 1.3 3 1.3 2.5 0 5.6-1l0.8-0.1q0 0.1-0.6 0.6-2.7 2.5-6.8 2.5z"/>
				<path id="Layer" fill-rule="evenodd" class="s0" d="m1429.1 341.2q0.3-1.1 0.9-2.3 10.8-4.1 11.6-4.1v0.5q-0.5 1.1-0.8 1.4-5.1 1.7-11.7 4.5z"/>
				<path id="Layer" fill-rule="evenodd" class="s0" d="m1442.7 406.9q0.3-1.1 0.9-2.3l16-5.8v0.5q-0.5 1.2-0.8 1.4-6.9 2.5-16.1 6.2z"/>
				<path id="Layer" fill-rule="evenodd" class="s0" d="m1472.1 364.5q0.3-1.1 1-2.5l27.5-10.1-0.2 0.4q-0.4 1.3-0.6 1.5-0.2 0.1-13.1 5-13 4.8-14.6 5.7z"/>
				<path id="Layer" fill-rule="evenodd" class="s0" d="m1280.5 355.9q0.1-0.1 0.9-0.7 0.8-0.7 4.4-2.5 3.6-1.9 4.2-2.5 0.2 0 0.2-0.2 0-0.8-6.4-0.8h-3q-0.6 0-0.6-0.1l1.8-3.2q0.7-1.1 2.4-1.4 0.6-0.1 3-0.1 7.2 0 7.1 1.7 0 0.6-1.7 3.2-1.8 2.6-3.7 3.8-1.1 1-7.5 2.5z"/>
			</g>
			<g id="minna wa minkum">
				<path id="Layer" fill-rule="evenodd" class="s0" d="m1233.6 278.3q0.3-0.3 1.7-1.4 1.4-1.1 7.9-4.5 6.5-3.4 7.6-4.5 0.3 0 0.3-0.3 0-1.4-11.6-1.4h-5.3q-1.2 0-1.2-0.3l3.4-5.6q1.2-2 4.3-2.6 1.1-0.2 5.3-0.2 13 0 13 3.1 0 1.1-3.3 5.7-3.2 4.7-6.6 6.9-2 1.7-13.5 4.5z"/>
				<path id="path14" fill-rule="evenodd" class="s0" d="m1240.7 295.8q-0.1-0.3 1.9-1.2 24-9.2 29-16.3 2.6-5.6 3.4-5.6l0.6 0.3q1.7-3.7 3.9-3.7 1.2 0 2.4 1.7 1.3 1.7 1.3 5.6-0.9 3.7-2.5 3.7-1.4 0-3.6-1.4-2.1-1.4-2.9-2.6-1.4 4-3.4 6.5-3.7 4-9.6 7.3-4.8 2.6-6.2 2.6zm40.9-19.2v-0.8q-0.3-0.6-1.2-1.6-0.8-1-1.4-1-1.1 0-1.9 1.2 1.1 1.1 3.6 2.2z"/>
				<path id="Layer" fill-rule="evenodd" class="s0" d="m1399.5 245.1q-0.2 0-0.2-3.4 0-5.4-1.6-13.1-1.5-7.8-1.5-8.9 0-3.9 1.9-5.6 1.2-0.9 4-1.7-1.2-1.4-2.3-1.4-0.5 0-1.4 1.1l-1.1 1.4v-1.1q0.6-5.9 3.6-5.9 1.5 0 4 1.9 2.5 2 2.8 3.4 0 0.6-0.7 2.1-0.7 1.6-1 1.6-0.3 0-4.8 1.4-2.8 0.8-3.9 2.2 3.1 9.6 3.1 19.2 0 2.8-0.6 5.6z"/>
				<path id="Layer" fill-rule="evenodd" class="s0" d="m1330.8 258.9h-0.3q-12.1-2.9-16.5-5.4-4.3-2.5-4.3-7v-1.4q2.2 3.9 14.9 8.1 6.8 2.6 8.5 2.9v-0.6q0-2-4.3-4.5-12.9-4.2-12.9-7.6 0-1.4 2.5-3.1 5.9-3.7 12.4-3.7 5.6 0 5.6 2.5 0 0.6-1.1 1.7-1.1 1.2-1.7 1.2-0.3 0-0.3-0.3 0-0.3-1.4-1.7-0.5-0.3-2.5-0.3-5.4 0-9 1.1-0.9 0.3-0.9 0.9 0 0.8 2.4 2.2 2.4 1.4 5.8 2.6 8.2 2.8 8.2 6.7 0 2-2.1 3.8-2.2 1.9-3 1.9z"/>
				<path id="Layer" fill-rule="evenodd" class="s0" d="m1533.1 259.7v-3.4q0-5.3-1.7-13.1-1.7-7.7-1.7-8.8 0-4 2.2-5.7 1.2-1.1 4-1.9-1.1-1.2-2.3-1.2-0.5 0-1.4 1.2l-1.1 1.4q-0.3 0-0.3-1.2 0.9-5.9 3.7-5.9 1.4 0 4.1 2 2.6 2 2.6 3.4v0.3q0 0.2-0.5 1.8-0.6 1.5-1 1.7-0.4 0.1-1 0.1-6.2 1.7-7.6 3.1 3.1 9.9 3.1 19.5 0 2.8-0.6 5.6-0.2 1.1-0.5 1.1z"/>
				<path id="Layer" fill-rule="evenodd" class="s0" d="m1434.5 225.1q-0.3 0-0.3-1.3 0-1.3-1.8-5.8-1.9-4.5-2.7-4.5-0.6 0-0.7 0.3-0.2 0.3-0.7 0.3-0.9 0-2.1-1.2-1.3-1.1-1.3-1.9 0-0.3 1-2.1 1-1.9 1.2-1.9 2.9 0 5 3.1 2.1 3.1 2.9 8.2 0 0.6 0.2 0.7 0.1 0.1 0.1 0 0-0.1 0.3-0.7 1.7-13.2 5.9-13.2 1.1 0 2.1 1.4 1 1.4 1 2.2 0 0.6-0.4 1.7-0.4 1.1-1 1.1l-0.8-1.1q-0.9-0.8-1.7-0.8-2 0-3.7 9-1.1 6.5-2.5 6.5z"/>
				<path id="path15" fill-rule="evenodd" class="s0" d="m1263.5 239.4q0-0.5 12.6-7.9 6.8-4.2 9.9-7.6-4.2-2.2-4.2-4.8 0-3.1 2.5-5.3 2.6-2.3 4-2.3 2.5 0 2.5 3.7 0 2.5-1.1 5.6 2.2 1.2 2.8 2.3 0 1.1-2 3.9-0.5-0.8-2.8-2.2-2.3 3.4-6.3 6.5-4.1 3.1-7.8 4.5-0.8 0.5-8.4 3.3zm24.5-19.4l0.3-1.4q-0.1-2.8-1.5-2.8-0.5 0-1.5 0.4-1 0.4-1 1 0 1.1 3.7 2.8z"/>
				<path id="path16" fill-rule="evenodd" class="s0" d="m1376.2 243.7q-2.6 0-2.6-2.9 0-1.6 2.1-5.3 2.2-3.7 3.6-3.7 1.4 0 2.4 1.2 0.9 1.1 0.9 2.8 0 2.8-1.8 5.3-1.8 2.6-4.6 2.6zm1.4-3.7q3.6 0 3.6-2.3 0-2.2-3.6-2.2-0.3 0-1.4 1.5-1.2 1.6-1.2 2.1 0.3 0.9 2.6 0.9z"/>
				<path id="Layer" fill-rule="evenodd" class="s0" d="m1388.3 305.4q0.5-2 1.7-4.3l8.7-3.4q9.3-3 19.2-6.7l0.8-0.3v0.8q-0.9 2-1.4 2.6-12.4 4.5-29 11.3z"/>
				<path id="Layer" fill-rule="evenodd" class="s0" d="m1425.2 248.2l1.4-4.3 9.3-3.3q18.9-7.1 19.7-7.1v0.9q-0.8 1.9-1.4 2.5-12.4 4.5-29 11.3z"/>
				<path id="Layer" fill-rule="evenodd" class="s0" d="m1501.5 246.8q-1.4 0-2.4-1.5-1-1.4-1-3.6v-4q0-0.5-0.5-0.7-0.6-0.1-0.6-0.9 0-1.5 1-2.6 1-1.1 1.6-1.1 0.5 0 0.5 2.5l-0.3 4q0 1.4 0.6 2.6 0.6 1.3 1.7 1.3 1.1 0 2.2-1.1 1.2-1.1 1.2-2.6 0-1.1-0.6-3.2-0.6-2.1-0.6-2.7l1.2-2.5q0.5 0 1.2 3 0.7 2.9 0.7 4.3 0 4 3.1 4 1.2 0 1.7-1.4-2.8-4.8-2.8-7.1 0-1.4 0.6-2.4 0.5-1 0.8-1 0.3 0 0.4 1.2 0.2 1.1 0.3 1.5 0.2 0.4 1.3 3.8 0.8 1.7 0.8 2.8 0 2-0.9 4.3-1 2.2-2.7 2.2-2.6 0-3.7-3.9-1.4 4.8-4.8 4.8z"/>
				<path id="Layer" fill-rule="evenodd" class="s0" d="m1485.5 228.4q0.2-1.9 1.4-4.2l12.7-4.8 16.3-5.6v0.8q-0.9 2-1.4 2.6-12.4 4.5-29 11.2z"/>
				<path id="Layer" fill-rule="evenodd" class="s0" d="m1527.4 316.3q0.3-1.9 1.4-4.2l29.1-10.4-1.4 3.4q-12.7 4.5-29.1 11.2z"/>
				<path id="Layer" fill-rule="evenodd" class="s0" d="m1369.1 262h-0.3q-3.3-2.9-7.3-5.1v-0.6q3.4-6.7 3.7-6.7 0.5 0 4.2 2.4 3.7 2.4 3.7 2.9 0 1.4-3.4 6.8z"/>
				<path id="Layer" fill-rule="evenodd" class="s0" d="m1505.2 267.6q-3.7-2.8-7.3-5.1v-0.2l1.4-3.4q1.7-3.7 1.9-3.7 0.6 0 4.3 2.4 3.6 2.4 3.6 3 0 1.7-3.4 6.7z"/>
				<path id="path8" fill-rule="evenodd" class="s0" d="m1371.1 277.2q0 5.9 7.3 5.9 4.2 0 8.5-2 5-2 7-5.9 0.6-0.8 3.1-6.5 1.1-2.5 2-2.8 1.7-2.8 4.2-5.3 3.9-4 7.3-4 4.5 0 6.8 5.4 1.7 3.9 1.7 9 0 4.8-1.4 8.4-1.7 3.4-3.4 3.4-8.7 0-17.5-6.7-2.5 7-7.6 11.5-5.1 5.1-10.7 5.1v-0.3q-3.9 0.3-6.7-2-3.7-2.5-4.6-7.9-1.4 3.1-5.3 6.5-5.6 5.1-12.1 5.1-5.4 0-9.6-2.6-2.5-1.4-7.3-5.9-5.7-5-9.6-7.9l-0.8-0.5q-0.3 0 0.2 1.4 2.3 4.8 2.3 7.3 0 7.3-5.1 12.7-4.2 4.5-8.7 4.5 0.8 3.1 0.8 5.4 0 3.6-1.4 6.4-0.5 1.4-1.4 1.4-0.6 0-2.2-0.8-6-3.4-7.9-7.9-1.2-2.8-1.7-8.7-0.6-2.8-4.8-2.8-13.2 0-22.8 9.3-4.3 4.5-8.5 9.2-4.8 5.1-9.3 10.2-8.4 8.7-14.9 8.7-4.8 0-8.5-4.5-3.6-4.2-3.6-10.7 0-8.7 7.3-22.8 0.8-1.4 1.1-1.4 0.3 0 0.3 0.5 0 1.5-3.1 9.6-3.1 8.5-3.1 13.5 0 3.7 1.7 6 2 2.2 5.1 2.2 6.4 0 15.2-8.7 3.9-4.2 7.6-8.2 3.9-3.9 7.6-8.2 8.2-7.6 14.6-10.7 6.2-3.1 14.1-3.1 3.1 0 5.4 1.2 0-1.7 0.8-1.7 0.6 0 2 1.1 2 1.7 3.9 3.7 2.9 2.5 5.7 2.2v0.3q6.2 0 10.7-5.4 0.6-0.8 0.3-1.4-2-6.2-12.7-14.6-8.7-7.1-17.8-13.8l-6.2-5.1q-0.2-0.3-0.2-2 0-2.8 0.8-7 1.1-4.5 2.5-5.6 8.2-7.4 34.7-19.2 26.8-12.1 35.5-12.1 2.5 0 3.4 1.1 1.1 0.9 1.1 3.4 0 5.6-6.8 14.1-0.8 1.1-1.9 2-1.4 1.9-3.1 3.6-4.3 4.8-5.7 7.6-0.8 2.3-1.1 2.3-0.3 0 0.3-2.8 0.3-1.4 2.2-5.1 1.7-3.4 2.9-4.2 7.3-8.8 9-11.6v-0.5q0-1.4-4.3-1.5-6.7 0.1-32.1 11.6-25.3 11.5-34.6 19.2-0.6 0.5 0.3 0.8 6.7 3.1 12.9 6.8 15.8 9 27.6 18.6 7.6 6.2 9.6 7.6 6.2 3.9 11.3 3.9 7.9 0 13.5-4.2 0.3-0.6 4.2-4.8 3.4-3.7 3.7-3.7 0.5 0 0.6 0.9v1.1q-0.6 1.7-0.6 3.4zm-62.3 30.7q0-2-2.1-4.4-2.1-2.4-4.4-2.9 0.1 2.2 2.3 4.8 2.3 2.5 4.2 2.5zm103.7-34.7q0.6 0 0.6-0.8 0-2.5-2.6-4.8-1.7-1.7-3.4-1.7-2.5 0-3.8 0.9-1.2 0.8-1.2 1.9 3.9 2.9 9.3 4.3z"/>
				<path id="path17" fill-rule="evenodd" class="s0" d="m1378.7 321.7l-0.3-0.3q0-0.6 26.8-12.1 29-12.1 43.6-23.7 5.4-3.9 5.4-5.9-1.1-2-2.8-2.8-1.7-0.8-7.1-0.8-11 0-11-7.7 0-5.9 3.7-10.2 3.7-4.4 7.3-4.4 5.1 0 8.9 6.9 3.8 6.9 3.8 12.8 0 11-5.8 17.5-5.7 6.5-20.7 15.2-13.5 7.6-15.7 7.6-0.6 0-14.3 3.4-13.6 3.4-17.3 3.9-3.7 0.6-4.5 0.6zm65.1-54.4q2.2 0 4.5-0.5-3.4-4.6-5.9-4.6-4.3 0.1-4.3 2.3 0 2.8 5.7 2.8z"/>
				<path id="path9" fill-rule="evenodd" class="s0" d="m1468.6 202q0.5 0 0.8 1.1 3.1 5.9 4.5 20 1.1 8.7 1.7 34.9 0.8 24.5 1.1 26.8 1.2 6.7 4.3 8.7 1.6 1.2 5.3 1.1 6.8 0.1 12.1-3.6 2.3-1.4 9.6-8.7 0.6-0.9 1.7-0.9 0.8 0 0.8 0.9 0 0.5-0.2 1.3l-0.1 0.1q-0.2 0.8-0.2 1.4 0 2.8 1.4 4.8 1.4 2.2 4.5 2.2 4.2 0 8.4-1.7 5.1-2.2 7.1-5.9 0.5-1.1 3.1-6.5 1.1-2.5 2-2.8 1.6-2.8 4.2-5.6 3.9-3.7 7.3-3.7 4.2 0 6.8 5.4 1.7 3.9 1.7 9 0 4.5-1.7 8.1-1.4 3.7-3.1 3.7-8.8 0-17.5-6.7-2.8 7-7.6 11.5-5.1 4.8-10.7 4.8-8.5 0-8.7-9.9 0-0.5-0.6-0.5-0.9 0-1.4 1.1-4.8 5.3-6.2 6.5-6.2 5.3-12.7 5.3-5.1 0-7.9-2.2-4.2-2.9-5.6-11-0.9-5.1-1.7-29.6-0.6-26.8-1.4-33-0.9-9.5-3.7-18.3 0-2.2 2-6.7 0.3-1.4 0.6-1.4zm81.4 80.5q0.5 0 0.5-0.8 0-2.8-2.5-5.1-1.7-1.4-3.4-1.4-2.5 0-3.8 0.9-1.3 0.8-1.3 1.6 3.7 2.9 9.3 4.6z"/>
			</g>
			<g id="taqabbalallah">
				<path id="path18" fill-rule="evenodd" class="s0" d="m1305.7 146q0-0.1 2.7-1.7l2.2-1.2q2.3-1.5 3.6-2.8-1.6-0.3-1.6-1.5 0-0.8 0.4-1.7l-0.1-0.7q0-1.2 1.2-1.2 0.4 0 1.1 0.3 2.1 1.2 2.8 2.8 0.1 0.1 0.1 0.3 0 0.6-0.4 1.3-0.4 0.8-0.6 0.8l-2.1-0.1q-1 1.2-2.3 2.2-1.7 1.3-3.1 1.8-0.2 0.2-3.1 1.3zm11.5-6.6v-0.4q-0.5-1-1.6-1.5 0 1-0.2 1.7zm-2.4-0.4l0.1-0.5q0-1.3-0.8-1.3-0.2 0-0.6 0.4-0.4 0.5-0.4 0.7 0 0.5 1.7 0.7z"/>
				<path id="Layer" fill-rule="evenodd" class="s0" d="m1368.9 134.1q-2.5 0-2.5-4.1 0-5 2.9-10.5 0.7-1.4 0.8-1.4h0.2l-0.5 1.6q-1.9 5.7-1.9 8 0 3.2 1.7 3.2 1 0 2.3-2.5l0.2-0.3q0.1 0 0.1 0.1v0.3q-1 5.6-3.3 5.6z"/>
				<path id="path19" fill-rule="evenodd" class="s0" d="m1306.9 153.3q-0.1 0-0.1-0.1 0-0.2 1-0.8l9-5.4q5.3-3.2 7.9-5.9-3.5-1.8-3.5-3.9 0-2.3 2.3-4.4 1.8-1.6 3-1.6 1.9 0 1.9 2.8 0 2-0.9 4.5 1.9 1.1 2.3 1.7 0 1-1.6 3.3-0.5-0.8-2.2-1.8-1.9 2.7-4.9 5-3.4 2.4-6.3 3.7-0.6 0.4-6.6 2.6-1 0.3-1.3 0.3zm19.2-15.5q0.2-0.9 0.3-1.6-0.1-1.8-1.2-1.8-0.4 0-1.1 0.4-0.8 0.4-0.8 0.8 0 0.9 2.8 2.2z"/>
				<path id="Layer" fill-rule="evenodd" class="s0" d="m1325.2 128q0.3-1.6 1.2-3.4 38.9-14.5 39.2-14.5h0.1v0.1l-0.1 0.4q-0.6 1.7-0.9 2-0.3 0.3-18.9 7.2-18.5 6.9-20.6 8.2z"/>
				<path id="Layer" fill-rule="evenodd" class="s0" d="m1347.2 137.4q-1 0-1.8-1.1-0.8-1.1-0.8-3v-3.2q0-0.3-0.5-0.4-0.6-0.2-0.6-0.8 0-1.1 0.8-2 0.8-0.9 1.3-0.9 0.5 0 0.5 2 0 1.1-0.2 1.8-0.1 0.7-0.1 1.2 0 1.1 0.5 2.2 0.4 1.1 1.3 1.1 1 0 1.9-0.9 0.9-0.9 0.9-2.2 0-0.7-0.4-2.5-0.5-1.7-0.5-2.1 0-0.3 0.4-1.1 0.4-0.8 0.6-0.8 0.3 0 0.9 2.2 0.5 2.3 0.5 3.5 0 3.1 2.5 3.1 0.9 0 1.3-1.1-2.2-3.7-2.2-5.6 0-1.2 0.5-1.9 0.5-0.8 0.7-0.8 0.1 0 0.2 0.9 0.1 1 0.3 1.6l1 2.6q0.6 1.5 0.6 2.3 0 1.5-0.6 3-0.9 2.1-2.3 2.1-2.1 0-3-2.9-1 3.7-3.7 3.7z"/>
				<path id="Layer" fill-rule="evenodd" class="s0" d="m1430.4 147.1h-0.4q-4.6-1-4.6-3.2 0-1.4 1.3-3.5 1.3-2 2.6-2.9 1.3-0.8 18.7-7.1l18.4-6.7q0.1 0 0.1 0.1l-0.1 0.5q-0.7 2-1 2.1-0.3 0.2-15.9 6-16.5 6-20 7.8-2.7 1.5-2.7 2.1 0 0.3 0.9 0.7 0.9 0.5 2.9 1.2 0.3 0.1 0.3 1.4 0 1.2-0.1 1.3-0.1 0.2-0.4 0.2z"/>
				<path id="Layer" fill-rule="evenodd" class="s0" d="m1416.3 118.2q-0.3 0-0.3-1 0-1-1.4-4.6-1.4-3.6-2.1-3.6-0.4 0-0.5 0.3-0.1 0.2-0.6 0.2-0.7 0-1.7-0.9-1-1-1-1.5 0-0.3 0.8-1.8 0.9-1.5 1.1-1.5 2.1 0 3.8 2.6 1.7 2.5 2.3 6.6l0.1 0.4h0.1v-0.1q0.2-0.2 0.3-0.3 0.3-2.5 1.6-7.2 1.4-3.5 3.1-3.5 0.8 0 1.7 1.1 0.8 1.1 0.8 1.7 0 0.6-0.3 1.5-0.3 0.9-0.8 0.9-0.1 0-0.8-0.8-0.6-0.8-1.4-0.8-1.5 0-2.8 7.1-0.8 5.2-2 5.2z"/>
				<path id="Layer" fill-rule="evenodd" class="s0" d="m1410.5 125.8q0.4-1.5 1.3-3.4l25.9-9.5 12.7-4.9 0.6-0.1q0.2 0 0.2 0.2l-0.1 0.5q-0.8 1.6-1.1 1.8-0.3 0.3-18.6 7.2-18.7 7-20.9 8.2z"/>
				<path id="Layer" fill-rule="evenodd" class="s0" d="m1420.6 163.1q-1 0-1.8-1.1-0.9-1.2-0.9-3.1v-3.1q0-0.3-0.5-0.5-0.5-0.1-0.5-0.8 0-1 0.9-1.9 0.8-1 1.2-1 0.5 0 0.5 2 0 1.1-0.1 1.8-0.2 0.7-0.2 1.3 0 1.1 0.5 2.2 0.5 1.1 1.2 1.1 1.1 0 2-0.9 0.8-0.9 0.8-2.2 0-0.7-0.4-2.4-0.3-1.8-0.3-2.2 0-0.4 0.3-1.2 0.4-0.8 0.5-0.8 0.4 0 1 2.3 0.5 2.2 0.5 3.4 0 3.1 2.5 3.1 1 0 1.3-1-2.2-3.7-2.2-5.6 0-1.2 0.5-2 0.5-0.7 0.6-0.7 0.2 0 0.3 0.9 0 0.9 0.3 1.6l1 2.6q0.7 1.4 0.7 2.3 0 1.5-0.7 3-0.8 2-2.2 2-2.2 0-3-2.9-1.1 3.8-3.8 3.8z"/>
				<path id="Layer" fill-rule="evenodd" class="s0" d="m1419.6 138.9h-0.3q-4.6-0.8-4.6-3.2 0-1.3 1.3-3.4 1.3-2.1 2.7-2.9 2-1.3 36.4-13.6l0.7-0.3-0.1 0.8q-0.8 1.8-1.2 2.1l-15.8 5.8q-16.4 6.2-19.9 8-2.7 1.4-2.7 1.9 0 0.7 3.7 1.9 0.4 0.2 0.4 1.4 0 1.3-0.1 1.4-0.1 0.1-0.5 0.1z"/>
				<path id="Layer" fill-rule="evenodd" class="s0" d="m1431.7 194.7l-0.3-0.2q-2.9-2.2-5.9-4v-0.2l2.5-5.2q0.2-0.4 0.4-0.4 0.5 0 3.3 1.9 2.9 1.9 2.9 2.3 0 1.2-2.5 5.3-0.2 0.5-0.4 0.5z"/>
				<path id="Layer" fill-rule="evenodd" class="s0" d="m1444.5 150.4l-0.2-0.1q-2.9-2.1-5.9-4.1v-0.2q0-0.1 1.4-2.8 1.3-2.8 1.5-2.9 0.3 0.1 2.8 1.8 2.4 1.6 3.1 2.3l1.9-4q0.3-0.4 0.6-0.4 0.3 0 3.2 1.9 2.9 2 2.9 2.3 0 1.3-2.6 5.4-0.2 0.4-0.4 0.4l-0.2-0.1q-2.5-1.9-5.6-4-1.9 4.5-2.5 4.5z"/>
				<path id="Layer" fill-rule="evenodd" class="s0" d="m1465.1 152.8l-0.2-0.1q-2.9-2.2-5.9-4.1v-0.2l2.5-5.2q0.2-0.4 0.4-0.4 0.3 0 2.8 1.6 2.4 1.6 3.1 2.4l2-4q0.2-0.4 0.5-0.4 0.3 0 3.2 2 2.9 1.9 2.9 2.3 0 1.3-2.6 5.2-0.2 0.5-0.4 0.5l-0.2-0.1q-2.5-1.9-5.6-3.9-1.9 4.4-2.5 4.4z"/>
				<path id="Layer" fill-rule="evenodd" class="s0" d="m1341.4 187.1q-6.7 0-9.3-6.3-1.5-3.5-1.5-8.3 0-6.3 1.5-11.8 0.5-1.5 0.5-2 0-0.2-0.2-0.2-0.3 0-1.2 1.5-1.5 2.2-3.1 9.3-2.1 9-2.7 11-0.9 2.5-2.5 4.2-1.3 1.2-2.2 1.2-4.2 0-6.5-5.3-1.9-4.4-1.9-10.8 0-4.4 1.4-9.5 0.5-2.2 0.9-2.2 0.3 0 0.3 0.6 0 0.6-0.3 1.8-0.7 4-0.7 7.2 0 12.8 5.4 12.8 2.2 0 3.7-3.5 1-2.1 2.4-8.1 1.5-6.7 2.6-9.8 1.2-3.5 3.2-6.5 1.9-2.9 3.3-2.9 1.3 0 1.3 2.5 0 2.2-1.2 8.6-1.3 6.5-1.3 8.7 0 4.9 2.1 7.5 2 2.7 5.5 2.7 6.5 0 9.8-4 2.5-3.2 2.5-7.9 0-7.7-2.2-14.4l-0.7-2.2q0-2.6 1.7-7.1 0.3-1 0.5-1 0.4 0 0.9 1.3 2.5 5 3.9 15.4 1.3 9.7 3.7 13.9 2.5 4.1 7.5 4.1 4.2 0 5.6-3 0-1.1-1.8-4.5-4.6-9-5.8-18.2l-0.3-2.3q-0.3-1.1-1.1-2.1 1.7-5.8 2.4-5.8 0.6 0 5.9 8.3 0.8 1.4 0.8 1.9 0 0.5-0.3 0.5-0.7 0-2.8-1.2-0.1 0-0.3 0.2 0.7 2.5 2.2 6.8 3.4 9.6 3.4 14 0 4.4-1.3 7.6-2.2 5.6-7.5 5.6-5.8 0-9.2-4.9-1.9-3-3.4-8.9-0.7 6-3.9 10.3-3.8 5.2-9.7 5.2z"/>
				<path id="Layer" fill-rule="evenodd" class="s0" d="m1383.7 186.2q-0.2 0-0.2-1l0.1-2.2q0.3-3.1 0.3-7 0-3.7-1.8-29.8-1.9-26.2-1.9-29.3 0-3.5-1.1-5.9 0-1.3 2.1-6.2 0.2-0.6 0.4-0.6 0.5 0 3.4 7.9 3 7.8 3 8.8 0 0.5-0.4 0.5-0.6 0-2.9-2.5l-0.2-0.2q-0.2 0-0.2 0.6 0 0.4 1.7 23.2 1.6 22.8 1.6 25.6 0 10.5-3.5 17.5-0.3 0.6-0.4 0.6z"/>
				<path id="path10" fill-rule="evenodd" class="s0" d="m1410.7 176.6q1.4 1.1 3.9 1.1 5.6 0 9.8-3 1.6-1.1 7.4-7 0.6-0.6 1.4-0.6 0.6 0 0.6 0.7 0 0.3-0.1 1.1-0.2 0.7-0.2 1.2 0 2.1 0.9 3.6 1.3 2 3.7 2 2.8 0 5.4-1.2-1.2-2.2-1.2-5.9 0-5.3 3.8-10.5 3.7-4.9 6.3-4.9 2.4 0 3.7 3.6 1.1 2.6 1.1 5.8 0 7.2-3.3 11.2 2.1 0.6 7.6 0.6 7.5 0 10-4.8 0-1.6-3.6-7.3-0.2-0.3-0.2-0.8 0-2.8 1.3-5.7 0.4-0.9 1 0 2.1 3.1 2.7 4.5 1.1 2.7 1.1 6.3 0 6.5-2.5 10.4-3.3 5-9.8 5-9.5 0-13.9-2.7-5.3 4-9.5 4v-0.1q-6.8 0.1-7-7.8 0-0.4-0.4-0.4-0.5 0-1.2 0.8-3.7 4.4-4.8 5.2-4.9 4.2-10.1 4.2-5.6 0-8.2-4.4-1.6-2.8-2.2-9.5-1.1 6.6-2.3 8.3-1.3 2.2-6.9 6.9-6.9 5.9-13.7 9.7-8.8 5-15.3 5-9.2 0-13-7.5-2.6-5-2.6-12.5 0-8.4 2.8-14.1 1.1-2.1 1.5-2.1 0.2 0 0.2 0.2 0 0.9-0.6 2.3-2.2 6-2.2 10.9 0 5.4 2.3 9.3 3.5 6 11.9 6 8.8 0 21-8.1 9.4-6.2 14-11.7 1-1.3 1.4-3.6 0.2-2.4 0.2-10.3 0-19-1.8-33.9-0.6-5.1-2.2-14.5 0.9-5.4 1.3-6.5 0.3-0.8 0.5-0.8 0.3 0 0.6 0.8 2.4 8 3.9 20.3 1.1 8.3 1.5 25.8 0.5 15.8 1.2 19.5 1 4.3 2.8 5.9zm38-4.7q4.2-2 5.6-4.4 0-1.5-1.2-4.3-1.3-2.9-2.1-2.9-1.2 0-3.6 2.6-2.3 2.6-3.2 4.6 0.3 1.2 1.7 2.5 1.4 1.4 2.8 1.9z"/>
			</g>
		</g>
	</g>
	<path id="EID AL-FITR MUBARAK" class="s3" aria-label="EID
AL-FITR
MUBARAK"  d="m445.5 205.7c-4.6 11.3-9.2 19.5-14.3 25.1-5.9 6.4-14.9 8.2-28.2 8.2-9.7 0-18.4-0.5-23-2.6-5.1-2.5-6.1-8.7-6.1-20.9v-44.5h17.1c21.8 0 25.1 1 28.4 19.4h9.2v-51.4h-9.2c-3.3 17.9-6.9 19.2-28.4 19.2h-17.1v-54.3c0-8.4 1-8.9 10.5-8.9h12.2c14.4 0 21.3 1.8 25.6 6.4 4.6 4.6 8 13 10.3 22l9.4-1.3c-1-15.9-2.3-33.8-2.5-38.4h-120.5v9c18.1 1.5 20.7 2.8 20.7 25v98.3c0 21.7-2.6 23.3-24.3 25v9h130.5c2-7.7 7.1-31 8.9-42.5zm98.2 44.3v-9c-19.1-1.8-21.2-3.5-21.2-25v-98c0-22 2.1-23.5 21.2-25.3v-9h-77v9c19.2 1.8 21.5 3.3 21.5 25.3v98c0 21.5-2.3 23.2-21.5 25v9zm20.8-166.3v9c17.9 1.8 20.4 3.3 20.4 25.3v97.7c0 22-2.5 23.5-22.7 25.3v9h65.7c31.7 0 58.6-6.9 77.5-21.2 19.5-14.9 32-37.4 32-68.6 0-24.3-10-42.5-22.8-54.5-16.3-15.6-41.2-22-73.4-22zm54.8 28.1c0-7.4 0.5-11.7 2.5-14 1.8-1.8 6.9-3.6 16.1-3.6 17.7 0 31.2 5.1 41.7 15.9 11.8 11.5 19.2 30.9 19.2 55.2 0 45.8-23.5 73.7-57.8 73.7-17.9 0-21.7-6.4-21.7-24.8zm-227.2 249.1v-3.9c-7.2-0.9-8.5-2.3-12.3-12.1-7.2-19.1-14.1-38.5-21.2-57.9l-5.7 1.4-22.8 57.2c-3.7 9.3-5.1 10.5-12.5 11.4v3.9h25v-3.9c-8.2-1-8.5-2.5-6.8-7.9 1.3-4.4 2.8-8.4 4-11.9h21.3c1.7 4.5 3.4 9.3 4.5 12.6 1.8 4.9 1.2 6.2-5.4 7.2v3.9zm-33-29.6h-17.3c2.9-7.9 5.6-16 8.7-24.1h0.4zm92.1 9.6c-2 5.6-4.1 9.2-6.1 11.4-2.7 3-6.7 3.8-11.5 3.8-3.4 0-6.3-0.2-8.3-1-2.3-1-2.7-2.9-2.7-8.1v-43.5c0-9.6 1-10.2 9.4-11v-3.9h-33.9v3.9c8.5 0.8 9.6 1.4 9.6 11v42.6c0 9.4-1.1 10.1-10.8 10.9v3.9h54.2c0.9-3 3.2-14 4.1-18.8zm37.9-9.5h-27.4l-1.6 7.9h27.3zm62.8-25.8c-0.6-6.5-1.1-15.1-1.3-17h-52.6v3.9c8.2 0.8 9.2 1.6 9.2 11.6v41c0 10.5-1 11.1-9.2 11.9v3.9h34.6v-3.9c-9.7-0.8-10.5-1.4-10.5-11.9v-17.6h9.1c9.9 0 11 0.9 12.2 8.5h4v-22.1h-4c-1.2 7.1-2.3 8.1-12.2 8.1h-9.1v-24.6c0-3.7 0.4-3.9 4.3-3.9h5.6c6.2 0 9.2 0.8 11.5 3.2 1.9 2 3.4 5.4 4.5 9.6zm40.9 55.3v-3.9c-8.3-0.8-9.2-1.6-9.2-10.9v-42.6c0-9.6 0.9-10.3 9.2-11v-3.9h-33.5v3.9c8.4 0.7 9.4 1.4 9.4 11v42.6c0 9.3-1 10.1-9.4 10.9v3.9zm73-53.5c-0.6-7.1-1.1-16.9-1.2-21.6h-2.8c-1.9 2.1-3.5 2.8-6.4 2.8h-44.7c-3.2 0-4.6-0.4-6.3-2.8h-2.8c-0.2 5.7-0.9 13.8-1.3 21.9h4.1c1.4-5.6 2.8-9.3 4.7-11.2 1.5-1.9 3.5-3 12.8-3h3.7v52.6c0 9.4-1.1 10.1-10.4 10.9v3.9h36.2v-3.9c-9.7-0.8-10.9-1.5-10.9-10.9v-52.6h5c6.6 0 9.4 0.5 11.4 2.5 2 2 3.6 5.8 4.9 11.6zm76.2 50.9c-2.5-0.9-4.4-2.2-6.8-4.7-2.1-2.4-4.6-5.9-8.5-12.2-3.3-5.1-7.4-12.4-9.1-15.8 7.5-3 13.9-8.3 13.9-18.1 0-6.9-3-11.8-7.4-14.8-4.6-3-10.2-4.1-19.9-4.1h-31.3v3.9c8.1 0.8 9.1 1.9 9.1 10.8v42.7c0 9.2-1.2 10.2-9.5 11v3.9h33.5v-3.9c-8.4-0.8-9.4-1.8-9.4-11v-16.3h2.1c3.6 0 5.6 1.5 7.3 4.8 3.3 5.9 6.3 11.9 9.2 16.5 4.5 7 8.8 10.1 22.8 10.8 1.4 0 2.6 0.1 3.3 0.1zm-45.4-33v-27.1c0-2.3 0.3-3.4 1-4.1 0.7-0.7 2.3-1.1 5-1.1 6.3 0 13.2 4.2 13.2 16.1 0 5.7-1.6 10.2-5.4 13.3-2.4 2.1-6.2 2.9-10.9 2.9zm-304.5 124.6v-3c-6.5-0.6-6.9-1.2-7.1-8.9l-0.7-31.2c-0.2-6.9 0.1-7.6 6.8-8.3v-2.9h-16.8l-16.4 36.6-16-36.6h-17.3v2.9c7.2 0.7 7.8 1.9 7.1 11.3l-1.3 16.5c-0.7 8.8-1.3 13.2-1.8 15.8-0.6 3-2.1 4.4-6.8 4.8v3h20.1v-3c-5.6-0.5-7.2-1.2-7.5-5-0.3-2.6-0.4-6.5 0-13.4l1-21.8h0.3l17 42.6h2.4l18.4-43.4h0.4l0.2 32.1c0 7.7-0.4 8.3-6.7 8.9v3zm62.7-54.3h-20.9v2.9c5.7 0.4 7.6 2.1 8.1 5 0.4 2.5 0.8 5.6 0.8 11.6v8.9c0 13.9-4.3 21.4-14.2 21.4-9 0-13.5-7.2-13.5-19.7v-18.2c0-7.9 0.8-8.4 6.9-9v-2.9h-25.1v2.9c6.2 0.6 7 1.1 7 9v19.7c0 9.7 2.2 15.9 6.9 19.6 4 3.1 9.3 4.3 14.8 4.3 5.9 0 11.6-2.1 15.4-6.1 4.7-5 6-12 6-20.8v-9.1c0-6 0.3-9 0.8-11.6 0.4-2.9 2.5-4.7 7-5zm33.9 24.8c6-1.1 13-4.4 13-12.4 0-4.1-1.8-7.5-4.9-9.5-3.2-2-7.3-2.9-13.8-2.9h-24.3v3c5.9 0.6 6.7 1.1 6.7 8.2v31.9c0 7.1-0.8 7.7-7.2 8.3v2.9h21.2c6.9 0 13.3-1.2 17.6-3.6 4.7-2.6 7.7-6.9 7.7-12.5 0-8-6.3-11.9-16-13zm-12.3-0.9v-15.8c0-1.8 0.1-3 0.7-3.6 0.5-0.5 1.9-1.1 3.8-1.1 4.5 0 9 2.8 9 10.4 0 7-3.6 10.1-11.6 10.1zm0 3.4h1.7c9.4 0 14.3 3.9 14.3 11.7 0 8.2-5.2 11.6-9.9 11.7-4.4 0.1-6.1-1.7-6.1-7.8zm86.1 26.9v-2.9c-5.4-0.7-6.4-1.8-9.2-9.1-5.4-14.4-10.6-28.9-15.9-43.5l-4.3 1.1-17.1 42.9c-2.7 7-3.8 7.9-9.3 8.6v2.9h18.7v-2.9c-6.1-0.8-6.4-1.9-5.1-5.9 1-3.4 2.1-6.4 3-9h16c1.2 3.4 2.5 7 3.3 9.5 1.4 3.6 0.9 4.6-4 5.4v2.9zm-24.8-22.2h-13c2.2-5.9 4.3-12 6.6-18.1h0.3zm81.4 20.3c-1.8-0.7-3.3-1.7-5.1-3.6-1.6-1.8-3.4-4.4-6.3-9.1-2.5-3.8-5.6-9.3-6.9-11.8 5.6-2.3 10.5-6.3 10.5-13.6 0-5.2-2.3-8.9-5.6-11.1-3.5-2.3-7.6-3.1-15-3.1h-23.4v2.9c6.1 0.6 6.8 1.4 6.8 8.1v32c0 6.9-0.9 7.7-7.1 8.3v2.9h25.1v-2.9c-6.3-0.6-7-1.4-7-8.3v-12.2h1.5c2.7 0 4.2 1.1 5.5 3.6 2.5 4.5 4.7 9 6.9 12.4 3.4 5.2 6.6 7.6 17.1 8.1 1.1 0 2 0.1 2.5 0.1zm-34-24.8v-20.3c0-1.7 0.1-2.6 0.7-3.1 0.5-0.5 1.7-0.8 3.8-0.8 4.6 0 9.8 3.2 9.8 12.1 0 4.2-1.2 7.6-4 9.9-1.8 1.6-4.7 2.2-8.2 2.2zm92 26.7v-2.9c-5.3-0.7-6.3-1.8-9.1-9.1-5.5-14.4-10.6-28.9-16-43.5l-4.2 1.1-17.1 42.9c-2.8 7-3.9 7.9-9.4 8.6v2.9h18.7v-2.9c-6.1-0.8-6.3-2-5.1-6 1-3.3 2.1-6.3 3-8.9h16c1.3 3.3 2.5 6.9 3.4 9.4 1.3 3.7 0.9 4.7-4 5.5v2.9zm-24.8-22.2h-13c2.2-5.9 4.2-12 6.6-18.1h0.2zm84.7 22.2v-3c-3.3-0.5-5.6-1.8-9-6.1-6-7.6-12.2-16-17.5-24 3.7-3.9 7.2-7.9 12.2-12.4 4.5-4.3 8-5.3 13.1-5.8v-3h-21.7v3l1.5 0.1c4 0.5 4.1 1.8 2.1 4.4-2.7 3.7-6.1 7.8-11.6 13.5-2.6 2.6-4.6 3.9-6.4 4.4v-14.2c0-7.1 0.7-7.6 6.6-8.2v-3h-24.5v3c6.2 0.6 7 1.1 7 8.2v31.9c0 7.2-0.8 7.7-6.9 8.2v3h25v-3c-6.4-0.5-7.2-1-7.2-8.2v-15c1.3-0.2 2.3 0.3 4.1 2.8 5.9 8.7 12.8 18.4 16.4 23.4z"/>
	<path id="mmic_logo" fill-rule="evenodd" class="s4" d="m1084 311.6v2.2h-247.2l0.2-2.2h69.6v-15.8h-1.9v-5.9h1.8c-30.8-30.1 15.8-48 36.2-69.5v-2.2c0-1.7 1-3.2 2.6-4-0.8-0.4-1.3-1.1-1.3-1.8 0-0.9 0.7-1.6 1.8-2.1l0.4-5.7c-0.6-0.3-1-0.8-1-1.3 0-0.6 0.5-1.2 1.2-1.4l0.2-3.4 1.4-17.4 1.3 17.4 0.2 3.4c0.7 0.2 1.2 0.8 1.2 1.4 0 0.5-0.4 1-1 1.3l0.4 5.5c1.3 0.5 2.3 1.3 2.3 2.3 0 0.8-0.6 1.5-1.5 2 1.4 0.8 2.3 2.2 2.3 3.8v2.5c15.1 15.7 43.9 29.5 46 47.6v4.1c-0.6 5.4-3.6 11.2-10.1 17.5h1.8v5.9h-2.8v15.8h22.7v-34.1h-3v-6.8h3v-38.7h-3v-6.8h3v-17.2h-1.3v-3.2c-8.7-9.5 2.6-15.1 8.1-21.7-0.1-0.2-0.2-0.5-0.2-0.8v-1.4c0-0.7 0.4-1.3 1-1.6q-0.5-0.3-0.5-0.7c0-0.4 0.3-0.7 0.7-0.9l0.2-2.3c-0.3-0.1-0.4-0.3-0.4-0.5 0-0.2 0.2-0.4 0.4-0.6l0.2-1.3 0.4-7 0.5 7 0.2 1.3c0.2 0.2 0.4 0.4 0.4 0.6 0 0.2-0.1 0.4-0.4 0.5l0.2 2.3c0.5 0.1 0.9 0.5 0.9 0.9 0 0.3-0.3 0.6-0.6 0.8 0.5 0.3 0.9 0.9 0.9 1.5v1.4c0 0.3-0.1 0.6-0.2 0.8 5.4 6.4 16.3 12.7 8.1 21.7v3.2h-1.3v17.2h2.2v6.8h-2.2v38.7h2.2v6.8h-2.2v34.1zm-157.5-9.8c0.2-2.2-4.6-3.8-6-5.8-1.5 2-6.3 3.6-6.1 5.8v9.4h12.1zm18 0c0.1-2.2-4.6-3.8-6.1-5.8-1.5 2-6.2 3.6-6.1 5.8v9.4h12.2zm17.9 0c0.2-2.2-4.6-3.8-6-5.8-1.5 2-6.3 3.6-6.1 5.8v9.4h12.1zm18 0c0.1-2.2-4.6-3.8-6.1-5.8-1.5 2-6.2 3.6-6.1 5.8v9.4h12.2zm43-39.5c0.1-1.9-3-3.2-4-4.8-0.9 1.6-4 2.9-3.9 4.8v8.4h7.9zm0-45.5c0.1-1.9-3-3.2-4-4.8-0.9 1.6-4 2.9-3.9 4.8v8.4h7.9zm-135.9 142h-1.3l-0.7-0.9c-0.6 0.7-1.2 1.1-2.4 1.1-2 0-2.3-1.5-2.3-2.1 0-1.1 0.3-1.7 1.8-2.5-0.6-0.7-0.9-1.1-0.9-1.8 0-0.9 0.7-1.8 1.9-1.8 1.3 0 1.8 0.9 1.8 1.7 0 1.1-0.8 1.7-1.4 2.1l1.4 1.7c0.2-0.5 0.3-0.7 0.4-1.2h0.9c0 0.5-0.2 1.3-0.6 2zm-4.4-3.8c-0.9 0.6-1.4 0.9-1.4 1.8 0 1 1 1.3 1.5 1.3 0.7 0 1.3-0.3 1.7-0.9zm1.4-2.5c0-0.7-0.6-0.8-0.9-0.8-0.8 0-0.9 0.5-0.9 0.8 0 0.5 0.5 1.1 0.8 1.4 0.4-0.3 1-0.7 1-1.4zm14.5-1.7h1v8h-1zm11.3 2.3c0-1.2-1.1-1.6-2-1.6-0.7 0-1.8 0.2-1.8 1.4 0 0.7 0.5 0.9 0.9 1l2.3 0.5c1.1 0.3 1.8 0.9 1.8 2.2 0 1.9-1.7 2.4-3.1 2.4-1.5 0-2.1-0.4-2.4-0.8-0.7-0.6-0.9-1.2-0.9-2h1.1c0 1.5 1.2 1.9 2.2 1.9 0.8 0 2.1-0.2 2.1-1.4 0-0.8-0.4-1.1-1.7-1.4l-1.7-0.4c-0.5-0.1-1.7-0.5-1.7-1.8 0-1.3 0.9-2.5 2.8-2.5 2.8 0 3.1 1.6 3.1 2.5zm7.3 4.7h4.1v1h-5.2v-8h1.1zm10-1.4l-0.9 2.4h-1.1l3-8.1h1.2l3 8.1h-1.2l-0.8-2.4zm2.8-0.9l-1.2-3.6-1.3 3.6zm13.6 3.3v-4.8c0-0.2 0-1.2 0-2l-2.3 6.8h-1.1l-2.2-6.8h-0.1c0 0.8 0.1 1.8 0.1 2v4.8h-1.1v-8.1h1.6l2.3 6.8 2.3-6.8h1.5v8.1zm6.4-8.1h1.1v8.1h-1.1zm12.2 2.4c-0.3-1.5-1.5-1.7-2.3-1.7-1.4 0-2.6 1-2.6 3.2 0 1.9 0.7 3.3 2.7 3.3 0.7 0 1.9-0.3 2.3-2.2h1c-0.4 3.1-2.9 3.2-3.5 3.2-1.8 0-3.6-1.2-3.6-4.3 0-2.5 1.4-4.2 3.7-4.2 2.1 0 3.2 1.3 3.3 2.7zm18.4 0c-0.4-1.5-1.5-1.7-2.3-1.7-1.5 0-2.6 1-2.6 3.2 0 1.9 0.6 3.3 2.6 3.3 0.7 0 2-0.3 2.3-2.2h1.1c-0.5 3.1-2.9 3.2-3.5 3.2-1.9 0-3.6-1.2-3.6-4.3 0-2.5 1.4-4.2 3.7-4.2 2.1 0 3.1 1.3 3.3 2.7zm12 5.6h-5.9v-8h5.9v0.9h-4.8v2.5h4.4v0.9h-4.4v2.7h4.8zm10.4-8h1v8h-1.2l-4.1-6.5v6.5h-1.1v-8h1.3l4 6.5h0.1zm5.6 0h6.5v0.9h-2.7v7.1h-1.1v-7.1h-2.7zm12.3 8h-1.1v-8h3.7c1.3 0 2.7 0.4 2.7 2.1 0 1.3-0.7 1.7-1.2 2 0.5 0.2 0.9 0.4 1 1.5l0.1 1.5c0 0.4 0 0.6 0.4 0.8v0.1h-1.4c-0.1-0.4-0.2-1.7-0.2-2 0-0.6-0.1-1.4-1.4-1.4h-2.6zm0-4.4h2.5c0.8 0 1.6-0.2 1.6-1.4 0-1.2-0.9-1.3-1.4-1.3h-2.7zm16.4 4.4h-5.9v-8h5.9v0.9h-4.8v2.5h4.4v0.9h-4.4v2.7h4.8zm-172.1-21c0.2 1.1 1.1 1.8 2.2 1.8h0.5v0.3h-6.4v-0.3h0.4c0.6 0 1.2-0.6 1.2-1.2l-1.4-14.8-6.2 13.7c0 0-0.8 1.8-1 3h-0.2l-7.6-16.3-1.3 14.4c0 0.6 0.5 1.2 1.2 1.2h0.4v0.3h-5.7v-0.3h0.5c1 0 2-0.7 2.2-1.8l2.2-18.9h0.2l8.3 17.7 8-17.7h0.2zm21.6 0c0.6 1.3 1.6 1.8 2.5 1.8h0.3v0.4h-6.6v-0.4h0.2c0.8 0 1.6-0.6 1.1-1.8l-1.8-5h-8l-2 5c-0.4 1.2 0.4 1.8 1.2 1.8h0.2v0.4h-5.9v-0.4h0.3c0.9 0 2-0.5 2.5-1.8l6.7-15.8c0 0 1.1-2.4 1.1-3.1h0.3zm-4.7-5.9l-3.5-9.4-3.7 9.4zm18.9-12.5c6.3 0 10.5 4.1 10.5 10.3 0 6.2-4.2 10.3-10.5 10.3h-10v-0.3h0.4c1 0 1.8-0.8 1.9-1.9v-16.5c0-0.9-0.9-1.7-1.9-1.7h-0.4v-0.2zm-5.8 19.7h5.8c5.1 0 8.4-3.8 8.4-9.4 0-5.7-3.4-9.4-8.4-9.4h-5.8zm25.5 0.9h-6.5v-0.3h0.4c1 0 1.9-0.9 1.9-1.9v-16.3c0-1.1-0.9-1.9-1.9-1.9h-0.4v-0.3h6.5v0.3h-0.4c-1 0-1.8 0.8-1.9 1.9v16.3c0 1 0.9 1.9 1.9 1.9h0.4zm25.1-20.7v0.3h-0.5c-1 0-1.8 0.8-1.8 1.8v15.2c0 1.9 0.3 3.8 0.3 3.8h-0.3l-16.1-17.2v14.7c0.1 1 0.9 1.7 1.8 1.7h0.6v0.4h-6.1v-0.4h0.6c1 0 1.8-0.8 1.8-1.7v-15.3c0-2-0.3-3.7-0.3-3.7h0.3l16.1 17.1v-14.6c-0.1-1-0.9-1.8-1.9-1.8h-0.5v-0.3zm19.3 18.5c0.6 1.3 1.7 1.8 2.6 1.8h0.3v0.4h-6.7v-0.4h0.3c0.8 0 1.5-0.6 1.1-1.8l-1.9-5h-7.9l-2 5c-0.4 1.2 0.4 1.8 1.1 1.8h0.3v0.4h-5.9v-0.4h0.3c0.8 0 1.9-0.5 2.5-1.8l6.7-15.8c0 0 1.1-2.4 1.1-3.1h0.3zm-4.7-5.9l-3.5-9.4-3.7 9.4zm38.8 5.9c0.2 1.2 1.1 1.9 2.2 1.9h0.4v0.3h-6.4v-0.3h0.5c0.6 0 1.2-0.6 1.1-1.3l-1.3-14.8-6.2 13.8c0 0-0.8 1.8-1 3h-0.3l-7.5-16.3-1.3 14.3c-0.1 0.7 0.5 1.3 1.1 1.3h0.5v0.3h-5.7v-0.3h0.5c1 0 2-0.7 2.1-1.8l2.2-18.9h0.3l8.2 17.7 8.1-17.7h0.2zm21.5 0c0.6 1.3 1.7 1.8 2.6 1.8h0.3v0.3h-6.7v-0.3h0.3c0.7 0 1.5-0.6 1.1-1.8l-1.9-5h-7.9l-2 5c-0.4 1.2 0.4 1.8 1.1 1.8h0.3v0.3h-5.9v-0.3h0.2c0.9 0 2-0.5 2.6-1.8l6.7-15.9c0 0 1.1-2.4 1.1-3h0.3zm-4.7-5.9l-3.5-9.4-3.7 9.4zm18-0.6c1.1 1.1 1.4 2.4 1.4 3.6 0 3.2-2.1 5.5-5.5 5.5-1.4 0-3.8-0.4-5-1.6-0.2-0.9-0.1-2.8 0.4-4.2h0.2c-0.3 3.1 1.7 5 4.3 4.9 2.1-0.1 3.9-1.6 3.9-4 0-1.1-0.4-2-1.1-2.7l-5.7-5.2c-1.2-1.1-1.6-2.5-1.6-3.7 0-2.5 1.9-5 5.2-5 0.8 0 1.8 0.2 2.5 0.3h1.2v3.6h-0.3c0-1.9-1.5-3-3.3-3-2.2 0-3.6 1.6-3.6 3.4 0 0.8 0.2 1.9 1.2 2.7zm11.3-11.9v0.3h-0.4c-1 0-1.8 0.8-1.9 1.8v18.5c0 3.3-2.3 5.9-5.3 5.9v-0.3c1.9-0.6 3.4-3.1 3.4-5.7v-18.4c0-1-0.8-1.8-1.9-1.8h-0.3v-0.3zm9.5 20.6h-6.4v-0.3h0.4c1 0 1.8-0.8 1.8-1.9v-16.3c0-1-0.8-1.8-1.8-1.8h-0.4v-0.3h6.4v0.3h-0.4c-1 0-1.8 0.8-1.8 1.8v16.3c0 1.1 0.8 1.9 1.8 1.9h0.4zm13.5-20.6c6.3 0 10.6 4.1 10.6 10.3 0 6.2-4.3 10.3-10.6 10.3h-10v-0.3h0.4c1 0 1.9-0.8 1.9-1.9v-16.4c0-1-0.9-1.7-1.9-1.7h-0.4v-0.3zm-5.7 19.7h5.7c5.1 0 8.4-3.8 8.4-9.4 0-5.7-3.3-9.4-8.4-9.4h-5.7zm-226.9 25.8h248.8v2.2h-248.8z"/>
</svg>